<svg xmlns="http://www.w3.org/2000/svg" width="218" height="84" fill="none" viewBox="0 0 218 84"><path fill="#a9928f" d="m63.732 50.154-6.028-6.16v-.088l5.962-5.962.704.682-4.29 5.236v.044l4.334 5.566zm3.014-1.848-4.356-4.268v-.066l4.312-4.18.704.638-2.618 3.608v.044l2.662 3.586zM68.534 50v-.726q.66 0 1.012-.352t.572-.968q.242-.615.55-1.43L75.2 34.182h.528L80.634 46.7q.176.462.396 1.188t.176 1.232l.748-.044.748-.044V50h-5.038v-.726q.836-.023 1.1-.374.264-.352.198-.836a4 4 0 0 0-.22-.88l-.77-2.068-5.72.132-.77 2.354q-.154.527-.286.836-.11.308-.264.682a329 329 0 0 0 1.716-.088V50zm4.048-5.698h5.082L76.102 40.1q-.242-.682-.506-1.342l-.484-1.364h-.044q-.22.615-.462 1.232-.22.616-.462 1.254zm16.08 5.918-4.994-11.704q-.484-1.122-.682-1.804a9 9 0 0 1-.264-1.188q-.307.022-.616.022-.307 0-.616.022V34.6h5.104l-.022.748q-1.1.066-1.32.682-.22.593.22 1.694.528 1.298 1.012 2.508t1.078 2.618q.529 1.232 1.012 2.376.507 1.122.77 1.87h.044q.242-.77.484-1.474.265-.705.616-1.672.66-1.848 1.1-3.124.462-1.276.792-2.178t.55-1.54q.199-.572.352-.968a8 8 0 0 1 .286-.66l-.836.044q-.417.023-.858.044V34.6h4.466v.726q-.968.045-1.496.506-.505.462-.924 1.65a6 6 0 0 0-.11.308l-.22.594q-.155.419-.44 1.232-.286.792-.792 2.156-.484 1.364-1.254 3.432-.747 2.068-1.826 5.016zm17.145-10.956a5.5 5.5 0 0 0-.506-2.002 3.84 3.84 0 0 0-1.276-1.54q-.835-.594-2.134-.594-1.364 0-2.09.77a2.55 2.55 0 0 0-.726 1.804q0 .924.528 1.562.528.615 1.364 1.1a35 35 0 0 0 1.804.902q.837.374 1.672.814a8.3 8.3 0 0 1 1.518.968q.682.55 1.078 1.32.418.748.418 1.804 0 1.21-.616 2.156-.594.946-1.738 1.496-1.144.528-2.794.528-.99 0-2.046-.286a6.2 6.2 0 0 1-1.87-.836l.11.946H97.36l-.132-4.686h.858q.11 1.935 1.342 2.948 1.233.99 2.97.99.858 0 1.584-.308.727-.33 1.144-.946.44-.616.44-1.496 0-.99-.528-1.65a4.8 4.8 0 0 0-1.364-1.144 22 22 0 0 0-1.782-.924 34 34 0 0 1-1.65-.792 9.6 9.6 0 0 1-1.496-.946q-.66-.55-1.078-1.298-.396-.748-.396-1.804 0-.572.198-1.232t.682-1.254q.507-.615 1.364-.99.88-.396 2.222-.396.837 0 1.87.242 1.056.22 1.958.88l-.088-.946h1.122v4.84zm17.25 11.088q-2.09 0-3.586-.704-1.495-.705-2.442-1.87a8.1 8.1 0 0 1-1.364-2.618 9.7 9.7 0 0 1-.44-2.86q0-1.386.462-2.794a8.2 8.2 0 0 1 1.408-2.618 7.3 7.3 0 0 1 2.398-1.914q1.452-.726 3.388-.726 2.023 0 3.498.726 1.474.727 2.42 1.936a8.1 8.1 0 0 1 1.43 2.596q.484 1.408.484 2.794 0 1.364-.462 2.794a8.3 8.3 0 0 1-1.43 2.618 7.1 7.1 0 0 1-2.376 1.914q-1.43.726-3.388.726m.044-.902q1.363 0 2.376-.572a5.16 5.16 0 0 0 1.672-1.562 7.2 7.2 0 0 0 1.012-2.178 8.6 8.6 0 0 0 .352-2.42q0-1.364-.374-2.706a8.6 8.6 0 0 0-1.1-2.442 5.7 5.7 0 0 0-1.804-1.76q-1.056-.682-2.42-.682t-2.398.594a5.3 5.3 0 0 0-1.694 1.584 7.6 7.6 0 0 0-1.012 2.178 9 9 0 0 0-.33 2.42q0 1.21.33 2.53.352 1.32 1.056 2.464a5.8 5.8 0 0 0 1.782 1.848q1.078.705 2.552.704m11.747.55v-.66q.682 0 .946-.33.263-.352.308-.946.066-.615.066-1.408v-6.05q.022-.308.088-.682h-1.562q-.88 0-1.298.506-.396.506-.396 1.892h-.836l.088-3.322h9.724l.11 3.322h-.836q-.022-1.386-.418-1.892-.375-.506-1.408-.506h-1.364v7.744q0 .44-.022.792 0 .33-.066.704l1.386-.066V50zm14.016.352q-1.518 0-2.75-.704a5.2 5.2 0 0 1-1.914-2.024q-.704-1.32-.704-3.102a6.3 6.3 0 0 1 .682-2.882 5.67 5.67 0 0 1 1.958-2.156q1.254-.836 2.904-.836.924 0 1.716.308.815.285 1.43.902.617.594.968 1.518.352.902.352 2.134l-7.744.132q0 1.672.352 2.948.375 1.254 1.188 1.958.815.682 2.09.682.683 0 1.386-.242a5.4 5.4 0 0 0 1.342-.66q.617-.419.99-.924l.528.44a4.9 4.9 0 0 1-1.43 1.474 6 6 0 0 1-1.716.792 6.2 6.2 0 0 1-1.628.242m-3.036-7.634h5.61a4.8 4.8 0 0 0-.242-1.518 2.5 2.5 0 0 0-.748-1.21q-.528-.484-1.386-.484-1.275 0-2.134.77-.836.749-1.1 2.442m10.472 7.524q-.792 0-1.232-.308a1.04 1.04 0 0 1-.418-.858q0-.484.242-.792.242-.307.726-.33.528 0 .748.264.242.264.242.528a1 1 0 0 1-.022.176q0 .088-.022.154a.7.7 0 0 0 .198.044q.44 0 .924-.88t.88-2.904q.418-2.046.572-5.478l-2.068.088V39h9.482v.66q-.66 0-.946.352-.264.33-.308.946-.044.594-.044 1.386v5.324q-.022.44-.044.792a7 7 0 0 1-.088.704l1.386-.066V50h-4.488v-.66q.682 0 .946-.33.264-.352.308-.946.066-.615.088-1.408v-6.094q.022-.352.088-.726h-1.936q-.748 0-1.034.484-.264.462-.264 1.254a32 32 0 0 1-.33 3.102 15 15 0 0 1-.66 2.794q-.44 1.254-1.166 2.024-.704.748-1.76.748M168.484 50v-.66q.813-.022 1.056-.506.264-.506.264-1.364v-6.908q.022-.352.088-.726l-.704.044q-.33 0-.682.022V39h4.488v.66q-.66 0-.946.308a1.34 1.34 0 0 0-.308.77q-.045.44-.044.858v2.024l1.364-.044q1.782-.044 2.794.396 1.033.418 1.452 1.166.44.726.44 1.606 0 1.056-.506 1.782a3.07 3.07 0 0 1-1.298 1.1 4.2 4.2 0 0 1-1.782.374zm3.168-.902q.242.022.594.022h1.122q1.011 0 1.716-.528.726-.528.726-1.804 0-1.122-.66-1.738-.639-.638-1.782-.638-.485 0-.902.022-.396 0-.77.022v3.41q0 .418-.022.726 0 .308-.022.506m11.942 1.056-.682-.682 4.334-5.566v-.044l-4.29-5.236.704-.682 5.962 5.962v.088zm-3.014-1.848-.704-.638 2.662-3.586v-.044l-2.618-3.608.704-.638 4.312 4.18v.066zM1.21 21.274q.836-.045 1.144-.374.308-.352.33-.946.045-.616.044-1.386V9.064q0-.44.022-.836.023-.418.044-.748l-.792.044-.792.044V6.6q1.166-.022 2.398-.022 1.232-.022 2.508-.022 2.134 0 3.586.484 1.452.485 2.222 1.43t.836 2.354q.044.858-.264 1.804-.285.924-1.1 1.76-.792.815-2.244 1.32t-3.718.506h-.33q-.242 0-.462-.022v3.19q0 .593-.022 1.034 0 .418-.044.704l.682-.044q.33-.022.66-.022l.682-.044V22H1.21zm3.432-5.984q.418.044.704.066h.726q1.254 0 2.288-.484a4.1 4.1 0 0 0 1.65-1.43q.616-.924.616-2.2 0-1.034-.33-1.76a2.8 2.8 0 0 0-.946-1.188 3.7 3.7 0 0 0-1.43-.66 7.3 7.3 0 0 0-1.848-.22q-.77 0-1.078.33-.285.33-.33.924-.022.572-.022 1.364zm14.992 7.062q-1.518 0-2.75-.704a5.2 5.2 0 0 1-1.914-2.024q-.705-1.32-.704-3.102 0-1.54.682-2.882a5.66 5.66 0 0 1 1.958-2.156q1.254-.836 2.904-.836.924 0 1.716.308.815.285 1.43.902.615.594.968 1.518.352.902.352 2.134l-7.744.132q0 1.672.352 2.948.374 1.254 1.188 1.958.815.682 2.09.682.681 0 1.386-.242a5.4 5.4 0 0 0 1.342-.66q.615-.418.99-.924l.528.44a4.9 4.9 0 0 1-1.43 1.474q-.837.55-1.716.792a6.2 6.2 0 0 1-1.628.242m-3.036-7.634h5.61a4.8 4.8 0 0 0-.242-1.518q-.22-.748-.748-1.21-.528-.484-1.386-.484-1.276 0-2.134.77-.837.749-1.1 2.442m14.896 7.634q-1.474 0-2.728-.66a5.2 5.2 0 0 1-1.98-1.936q-.726-1.276-.726-3.058 0-1.144.418-2.222a6.5 6.5 0 0 1 1.166-1.936 5.6 5.6 0 0 1 1.826-1.386q1.056-.506 2.332-.506 1.233 0 2.134.374.924.375 1.43.99.506.616.506 1.342 0 .484-.264.836-.264.33-.77.33-.55.023-.792-.33-.22-.375-.22-.66 0-.22.066-.44a1 1 0 0 1 .264-.44q-.175-.528-.616-.77a2.4 2.4 0 0 0-.924-.33 4.3 4.3 0 0 0-.77-.088q-1.495 0-2.53 1.21-1.011 1.188-1.012 3.476 0 1.474.462 2.618.484 1.144 1.342 1.804.858.638 1.98.638 1.035 0 1.98-.55t1.474-1.342l.572.44a5 5 0 0 1-1.386 1.496 5.7 5.7 0 0 1-1.65.836 5.3 5.3 0 0 1-1.584.264M37.835 22v-.66q.682 0 .946-.33.264-.352.308-.946.066-.615.066-1.408v-6.094q.022-.352.088-.726l-1.386.066V11H49.43v.66q-.66 0-.946.352-.263.33-.308.946-.044.594-.044 1.386l-.044 5.324q0 .44-.022.792 0 .33-.066.704l1.386-.066V22h-4.51v-.66q.682 0 .946-.33.264-.352.308-.946.066-.615.066-1.408l.022-5.324v-.77q.022-.352.088-.726l-3.916.044q-.682 0-.946.286t-.308.836-.066 1.342l-.022 5.324q0 .44-.022.792 0 .33-.066.704l1.386-.066V22zm15.1 5.962q-.681 0-1.166-.33-.483-.33-.484-1.012 0-.396.264-.726a.83.83 0 0 1 .682-.33q.528-.023.704.33.198.352.198.616v.132a.7.7 0 0 1-.022.176q.066.045.242.044.264 0 .572-.22.31-.22.55-.638.286-.485.66-1.452.396-.968.88-2.31l-3.432-7.348a26 26 0 0 1-.836-1.958 16 16 0 0 1-.33-1.078l-1.056.044V11h4.554v.66h-.088q-.924.066-1.012.704-.087.615.506 1.892l2.574 5.522q.506-1.408.968-2.772.462-1.385.924-2.75.177-.485.352-.99.198-.528.374-.924.199-.418.352-.528l-1.518.088V11h3.454v.66q-.813.308-1.232 1.034-.396.704-.814 1.826l-2.75 7.678a54 54 0 0 1-1.21 3.124q-.55 1.298-1.21 1.958-.66.682-1.65.682m14.968-5.632a4.67 4.67 0 0 1-2.575-.748q-1.142-.77-1.826-2.288-.681-1.54-.681-3.872 0-1.935.396-3.63.417-1.695 1.297-2.926a5.03 5.03 0 0 1 2.355-1.804q.55-.22 1.121-.308a15 15 0 0 1 1.145-.176q.593-.089 1.165-.242.573-.176.859-.374.308-.198.483-.682l.77.242q-.153.705-.308 1.21a2 2 0 0 1-.505.858q-.33.352-1.1.616-.595.198-1.21.308-.616.11-1.189.198a6.6 6.6 0 0 0-1.1.22q-1.671.505-2.442 1.98-.747 1.452-.726 3.344h.154q.507-1.298 1.54-2.068 1.057-.77 2.663-.77 1.386 0 2.486.594 1.1.571 1.737 1.716.66 1.122.66 2.772 0 1.76-.704 3.08-.681 1.32-1.87 2.046a4.93 4.93 0 0 1-2.596.704m.087-.836q1.079 0 1.717-.616.66-.638.946-1.65t.285-2.112q0-1.21-.33-2.332-.308-1.122-1.011-1.848-.682-.726-1.804-.726-.99 0-1.629.594-.638.594-.968 1.562a6.6 6.6 0 0 0-.308 2.046q0 1.584.352 2.728.352 1.122 1.035 1.738.703.616 1.715.616m7.677.748q-.792 0-1.232-.308a1.04 1.04 0 0 1-.418-.858q0-.485.242-.792.243-.307.726-.33.529 0 .748.264.243.264.242.528a1 1 0 0 1-.022.176.5.5 0 0 1-.022.154.7.7 0 0 0 .198.044q.441 0 .924-.88t.88-2.904q.419-2.046.572-5.478l-2.068.088V11h9.482v.66q-.66 0-.946.352-.264.33-.308.946-.044.594-.044 1.386v5.324q-.022.44-.044.792-.022.33-.088.704l1.386-.066V22h-4.488v-.66q.682 0 .946-.33.264-.352.308-.946.066-.615.088-1.408v-6.094q.022-.352.088-.726H80.88q-.747 0-1.034.484-.264.462-.264 1.254a31 31 0 0 1-.33 3.102 14.7 14.7 0 0 1-.66 2.794q-.44 1.253-1.166 2.024-.704.748-1.76.748M92.383 11.66q-.682 0-.946.352-.264.33-.308.946-.045.594-.066 1.386l-.022 5.324q0 .44-.022.792 0 .33-.066.704.351-.022.682-.022l.704-.044V22H87.85v-.66q.681 0 .946-.33.264-.352.308-.946.066-.615.066-1.408v-6.094q.022-.352.088-.726l-.704.044q-.33 0-.682.022V11h4.51zm4.312.396.704.528-6.754 8.47-.748-.616zm3.014-.396q-.66 0-.946.352-.264.33-.308.946-.044.594-.044 1.386l-.044 5.324q0 .44-.022.792 0 .33-.044.704.352-.022.682-.022l.704-.044V22h-4.51v-.66q.681 0 .946-.33.264-.352.308-.946.066-.615.066-1.408l.022-5.324v-.77q.022-.352.088-.726l-.704.044q-.33 0-.682.022V11h4.488zM101.424 22v-.66q.681 0 .946-.33.264-.352.308-.946.066-.615.066-1.408l.022-5.324v-.77q.022-.352.088-.726l-.704.044q-.33 0-.682.022V11h4.488v.66q-.66 0-.946.352-.264.33-.308.946-.045.594-.044 1.386l-.022 1.452h.858l2.684-2.816q.373-.375.682-.66.307-.308.616-.506l-1.496.066V11h4.004v.66a3.1 3.1 0 0 0-1.408.484 8 8 0 0 0-1.188.902q-.528.505-.924.924l-1.716 1.804q.44.197.748.506.307.308.616.682l1.562 2.002q.11.132.374.506.285.374.66.814.396.44.814.748.44.308.814.308V22h-2.002q-.617 0-1.166-.638a36 36 0 0 1-1.166-1.43l-1.034-1.43q-.44-.66-.814-1.144a5 5 0 0 0-.638-.748l-.88.044-.022 3.014q0 .44-.022.792 0 .33-.066.704.352-.022.682-.022l.704-.044V22zm18.724 0a7 7 0 0 1-.088-.66 8 8 0 0 0-.066-.594 6.2 6.2 0 0 1-1.628 1.188 4.1 4.1 0 0 1-1.826.418q-1.671 0-2.486-.748-.814-.77-.814-1.87 0-1.012.616-1.738a4.7 4.7 0 0 1 1.628-1.21 8.8 8.8 0 0 1 2.178-.704 10.4 10.4 0 0 1 2.288-.22v-1.364q0-.77-.132-1.452-.131-.683-.572-1.122t-1.408-.462a3.3 3.3 0 0 0-1.32.242 1.77 1.77 0 0 0-.968.902.77.77 0 0 1 .22.418q.066.22.066.418 0 .264-.22.616-.22.33-.77.308-.462 0-.704-.308a1.27 1.27 0 0 1-.242-.77q0-.748.55-1.342.573-.594 1.562-.946t2.244-.352q1.849 0 2.728.99.88.968.858 3.08v1.65q0 .814-.022 1.65v1.65q0 .353-.022.704-.021.352-.066.792l.77-.044.792-.044V22zm-.198-5.39a9 9 0 0 0-1.584.198 6.4 6.4 0 0 0-1.518.484q-.681.33-1.122.88-.417.528-.396 1.298.045.814.528 1.232.507.396 1.188.396.903 0 1.562-.33a6 6 0 0 0 1.342-.968 6 6 0 0 1-.022-.528v-1.298q.022-.594.022-1.364m9.386-4.95q-.682 0-.946.352-.264.33-.308.946-.043.594-.066 1.386l-.022 5.324q0 .44-.022.792 0 .33-.066.704l1.386-.066V22h-4.488v-.66q.682 0 .946-.33.264-.352.308-.946.066-.615.066-1.408v-6.094q.022-.352.088-.726l-1.386.066V11h4.51zm7.216 0q-.66 0-.946.352-.264.33-.308.946-.022.594-.044 1.386l-.022 5.324q0 .44-.022.792 0 .33-.066.704l1.386-.066V22h-4.488v-.66q.682 0 .946-.33.264-.352.308-.946.044-.615.044-1.408l.022-5.324v-.77q.022-.352.088-.726l-1.386.066V11h4.488zm-9.328 4.268h6.908v.858l-6.908.088zm16.633 6.424a5.8 5.8 0 0 1-2.728-.66 5.23 5.23 0 0 1-1.98-1.936q-.726-1.276-.726-3.058 0-1.144.418-2.222a6.5 6.5 0 0 1 1.166-1.936 5.65 5.65 0 0 1 1.826-1.386q1.056-.506 2.332-.506 1.233 0 2.134.374.924.375 1.43.99.506.616.506 1.342 0 .484-.264.836-.263.33-.77.33-.549.023-.792-.33-.22-.375-.22-.66 0-.22.066-.44a1 1 0 0 1 .264-.44q-.175-.528-.616-.77a2.4 2.4 0 0 0-.924-.33 4.3 4.3 0 0 0-.77-.088q-1.495 0-2.53 1.21-1.012 1.188-1.012 3.476 0 1.474.462 2.618.484 1.144 1.342 1.804.858.638 1.98.638 1.035 0 1.98-.55t1.474-1.342l.572.44a5 5 0 0 1-1.386 1.496 5.7 5.7 0 0 1-1.65.836 5.3 5.3 0 0 1-1.584.264m6.121-.352v-.66q.682 0 .946-.33.264-.352.308-.946.066-.615.066-1.408l.022-5.324v-.77q.022-.352.088-.726l-.704.044q-.33 0-.682.022V11h4.488v.66q-.66 0-.946.352-.263.33-.308.946-.044.594-.044 1.386l-.022 1.452h.858l2.684-2.816q.375-.375.682-.66.309-.308.616-.506l-1.496.066V11h4.004v.66a3.1 3.1 0 0 0-1.408.484 8 8 0 0 0-1.188.902q-.528.505-.924.924l-1.716 1.804q.44.197.748.506.309.308.616.682l1.562 2.002q.11.132.374.506.287.374.66.814.397.44.814.748.44.308.814.308V22h-2.002q-.615 0-1.166-.638a38 38 0 0 1-1.166-1.43l-1.034-1.43q-.44-.66-.814-1.144a5 5 0 0 0-.638-.748l-.88.044-.022 3.014q0 .44-.022.792 0 .33-.066.704.352-.022.682-.022l.704-.044V22zm18.725 0a7 7 0 0 1-.088-.66 10 10 0 0 0-.066-.594 6.3 6.3 0 0 1-1.628 1.188 4.1 4.1 0 0 1-1.826.418q-1.672 0-2.486-.748-.814-.77-.814-1.87 0-1.012.616-1.738.638-.748 1.628-1.21a8.8 8.8 0 0 1 2.178-.704 10.4 10.4 0 0 1 2.288-.22v-1.364q0-.77-.132-1.452-.132-.683-.572-1.122t-1.408-.462a3.3 3.3 0 0 0-1.32.242q-.66.264-.968.902a.8.8 0 0 1 .22.418q.066.22.066.418 0 .264-.22.616-.22.33-.77.308-.462 0-.704-.308a1.27 1.27 0 0 1-.242-.77q0-.748.55-1.342.572-.594 1.562-.946t2.244-.352q1.848 0 2.728.99.88.968.858 3.08v1.65q0 .814-.022 1.65v1.65q0 .353-.022.704-.023.352-.066.792l.77-.044.792-.044V22zm-.198-5.39a9 9 0 0 0-1.584.198 6.3 6.3 0 0 0-1.518.484q-.683.33-1.122.88-.418.528-.396 1.298.043.814.528 1.232a1.87 1.87 0 0 0 1.188.396q.902 0 1.562-.33a6 6 0 0 0 1.342-.968 6 6 0 0 1-.022-.528v-1.298q.022-.594.022-1.364m4.26 5.39v-.66q.505 0 .858-.264.374-.285.77-.814.417-.528 1.034-1.298l.792-.99q.241-.308.484-.44.242-.154.528-.242-1.673-.286-2.354-1.122a3 3 0 0 1-.66-1.914q0-1.056.506-1.782.505-.726 1.32-1.1a4.3 4.3 0 0 1 1.782-.374h5.566v.66q-.529 0-.814.242-.287.22-.396.638-.11.396-.11.99v6.138q0 .44-.022.792 0 .33-.066.704l1.386-.066V22h-4.488v-.66q.858 0 1.078-.572.22-.594.22-1.386V17.6l-1.518.022q-.286.264-.616.704t-.638.88q-.286.44-.484.726-.55.77-1.188 1.43-.638.638-1.232.638zm5.852-5.192h.836l.726-.044v-4.356q.021-.308.044-.506a6 6 0 0 0-.902-.022h-.704q-1.012 0-1.738.528-.704.528-.704 1.804 0 1.079.638 1.848.66.748 1.804.748m8.336 9.13-.594-.44q.243-.308.506-.88.264-.572.418-1.276.177-.682.088-1.342a1.3 1.3 0 0 1-.286.088.8.8 0 0 1-.264.044 1 1 0 0 1-.726-.308 1.1 1.1 0 0 1-.286-.77q0-.616.352-.946.375-.33.858-.33.77 0 1.166.594.396.571.396 1.408 0 .55-.22 1.342a7.5 7.5 0 0 1-.572 1.54 4.6 4.6 0 0 1-.836 1.276M197.329 22v-.726q.77-.045 1.166-.352a1.54 1.54 0 0 0 .572-.858q.177-.55.176-1.298l-.066-10.384-2.64 1.694-.44-.638 4.29-3.19h.748l.022 13.354q0 .418-.022.814 0 .396-.044.704l.924-.044.924-.044V22zm6.254 0v-.726q.66 0 1.012-.352t.572-.968q.242-.615.55-1.43l4.532-12.342h.528l4.906 12.518q.175.462.396 1.188.22.726.176 1.232l.748-.044.748-.044V22h-5.038v-.726q.836-.023 1.1-.374.264-.352.198-.836a4 4 0 0 0-.22-.88l-.77-2.068-5.72.132-.77 2.354q-.154.527-.286.836-.11.308-.264.682a343 343 0 0 0 1.716-.088V22zm4.048-5.698h5.082l-1.562-4.202q-.242-.682-.506-1.342l-.484-1.364h-.044q-.22.615-.462 1.232-.22.616-.462 1.254zM105.968 78v-.66q.682 0 .946-.33.264-.352.308-.946.066-.615.066-1.408v-6.094q.022-.353.088-.726l-1.386.066V67h4.51v.66q-.682 0-.968.352-.264.33-.308.946-.043.594-.066 1.386v5.324q0 .44-.022.792 0 .33-.066.704l2.882-.044q.682-.022.946-.286.264-.286.308-.836.066-.55.088-1.342v-6.094q.022-.353.088-.726l-1.386.066V67h4.488v.66q-.66 0-.946.352-.264.33-.33.946-.043.594-.066 1.386v5.324q0 .44-.022.792 0 .33-.044.704l2.684-.044q.682-.022.946-.286.264-.286.308-.836.066-.55.088-1.342v-6.094q.022-.353.088-.726l-1.386.066V67h4.488v.66q-.66 0-.946.352-.264.33-.308.946-.043.594-.066 1.386v5.324q-.022.44-.044.792 0 .33-.066.704l1.386-.066V78zm24.95 0a7 7 0 0 1-.088-.66 10 10 0 0 0-.066-.594 6.3 6.3 0 0 1-1.628 1.188 4.1 4.1 0 0 1-1.826.418q-1.673 0-2.486-.748-.814-.77-.814-1.87 0-1.012.616-1.738.638-.748 1.628-1.21a8.8 8.8 0 0 1 2.178-.704 10.4 10.4 0 0 1 2.288-.22v-1.364q0-.77-.132-1.452t-.572-1.122-1.408-.462a3.3 3.3 0 0 0-1.32.242q-.66.264-.968.902.175.176.22.418.066.22.066.418 0 .264-.22.616-.22.33-.77.308-.462 0-.704-.308a1.26 1.26 0 0 1-.242-.77q0-.748.55-1.342.572-.594 1.562-.946t2.244-.352q1.848 0 2.728.99.879.968.858 3.08v1.65q0 .815-.022 1.65v1.65q0 .353-.022.704-.022.353-.066.792l.77-.044.792-.044V78zm-.198-5.39a9 9 0 0 0-1.584.198 6.3 6.3 0 0 0-1.518.484q-.682.33-1.122.88-.418.528-.396 1.298.043.814.528 1.232a1.87 1.87 0 0 0 1.188.396q.902 0 1.562-.33a6 6 0 0 0 1.342-.968 6 6 0 0 1-.022-.528v-1.298q.022-.594.022-1.364m5.689 5.632q-.791 0-1.232-.308a1.04 1.04 0 0 1-.418-.858q0-.484.242-.792.243-.307.726-.33.529 0 .748.264.243.264.242.528a1 1 0 0 1-.022.176q0 .088-.022.154a.7.7 0 0 0 .198.044q.441 0 .924-.88t.88-2.904q.419-2.046.572-5.478l-2.068.088V67h9.482v.66q-.66 0-.946.352-.263.33-.308.946-.044.594-.044 1.386v5.324a49 49 0 0 1-.044.792q-.022.33-.088.704l1.386-.066V78h-4.488v-.66q.682 0 .946-.33.264-.352.308-.946.067-.615.088-1.408v-6.094q.022-.353.088-.726h-1.936q-.747 0-1.034.484-.264.462-.264 1.254a31 31 0 0 1-.33 3.102 14.6 14.6 0 0 1-.66 2.794q-.44 1.254-1.166 2.024-.704.748-1.76.748m17.508.11q-1.518 0-2.75-.704a5.2 5.2 0 0 1-1.914-2.024q-.704-1.32-.704-3.102 0-1.54.682-2.882a5.66 5.66 0 0 1 1.958-2.156q1.254-.836 2.904-.836.924 0 1.716.308.814.285 1.43.902.616.594.968 1.518.352.902.352 2.134l-7.744.132q0 1.672.352 2.948.374 1.254 1.188 1.958.814.682 2.09.682.683 0 1.386-.242a5.5 5.5 0 0 0 1.342-.66q.617-.418.99-.924l.528.44a4.9 4.9 0 0 1-1.43 1.474 6 6 0 0 1-1.716.792 6.2 6.2 0 0 1-1.628.242m-3.036-7.634h5.61q0-.792-.242-1.518-.22-.748-.748-1.21-.528-.484-1.386-.484-1.276 0-2.134.77-.836.748-1.1 2.442m27.691 7.634-8.778-11.792a15 15 0 0 0-.396-.506 11 11 0 0 0-.374-.528h-.022l.066 9.416v1.1q0 .55-.044 1.078l.792-.044.792-.044V78h-4.026v-.726q.682 0 .968-.286.308-.308.396-.704.088-.418.088-.748l.022-10.582V63.48q-.353.023-.726.044l-.748.044V62.6h2.618l8.25 11.044q.286.375.55.748l.572.748h.022l.022-10.076q0-.44.022-.836.022-.418.044-.748l-.792.044-.792.044V62.6h4.048v.726q-.815.023-1.122.374-.308.352-.33.946t-.022 1.386l-.044 12.32zm6.908-8.712q-.99 0-1.804-.44a3.6 3.6 0 0 1-1.276-1.254q-.462-.815-.462-1.848 0-1.1.462-1.958a3.7 3.7 0 0 1 1.298-1.386q.815-.506 1.848-.506 1.012 0 1.804.462a3.4 3.4 0 0 1 1.254 1.276q.462.792.462 1.848.022 1.1-.44 1.98a3.4 3.4 0 0 1-1.276 1.342q-.814.484-1.87.484m.176-.792q.901-.022 1.386-.792.484-.792.484-1.892 0-.814-.22-1.54-.198-.748-.66-1.21-.44-.462-1.188-.44-.924.045-1.43.836-.484.77-.484 1.892 0 .858.22 1.584.242.726.704 1.166.462.418 1.188.396m-3.916 3.982v-1.54h7.81v1.452zm14.679 5.522q-1.584 0-2.618-.462-1.035-.484-1.54-1.188-.484-.705-.484-1.342 0-.506.264-.836.264-.353.748-.374.396-.022.616.154a.8.8 0 0 1 .33.396q.088.242.088.44 0 .22-.066.44a3 3 0 0 1-.176.44q.219.748.99 1.078.792.33 1.694.33 1.562 0 2.486-.858.946-.858.946-2.486 0-.968-.308-1.826-.309-.88-1.144-1.43-.837-.55-2.442-.506-.176 0-.374.022-.198 0-.44.022v-.99h.902q1.166 0 1.826-.528t.946-1.254.286-1.342q0-.902-.242-1.606-.22-.726-.792-1.122-.573-.418-1.584-.418-.99 0-1.694.528-.705.506-.88 1.056.198.22.264.44.088.22.088.462 0 .176-.11.418a.84.84 0 0 1-.308.374q-.22.154-.594.154-.462 0-.704-.33a1.3 1.3 0 0 1-.242-.792q0-.615.484-1.342.483-.748 1.474-1.276 1.012-.55 2.53-.55 1.188 0 2.2.374 1.011.374 1.628 1.232.616.836.616 2.222 0 .683-.352 1.386-.33.682-1.122 1.276-.77.594-2.134 1.012 2.09.22 3.278 1.342 1.21 1.122 1.21 2.838 0 1.496-.792 2.486-.771.968-2.046 1.452a7.5 7.5 0 0 1-2.706.484"/></svg>