<svg xmlns="http://www.w3.org/2000/svg" width="365" height="141" fill="none" viewBox="0 0 365 141"><path fill="#833c40" d="M2.2 111v-1.32q1.52-.04 2.08-.68.56-.68.6-1.8.08-1.16.08-2.64v-16.8q0-1.08.04-1.84.04-.8.08-1.32l-1.44.08-1.44.08V83q2.2-.04 4.4-.04 2.24-.04 4.64-.04 4.64 0 7.24 1.64 2.64 1.64 2.56 5.2 0 1.28-.76 2.56-.72 1.28-2.2 2.28-1.44.96-3.64 1.36v.08q4.4 0 6.64 2.04 2.24 2 2.24 5.08 0 2.44-1.24 4.2t-3.36 2.72q-2.12.92-4.84.92zm6.12-1.6q.64.04 1.52.08h2.72q3.08 0 4.96-1.52 1.92-1.56 1.92-4.56 0-2.44-.96-3.8a5.14 5.14 0 0 0-2.52-1.92q-1.56-.56-3.4-.56-1.2 0-2.2.04-.96 0-1.92.08v9.04q0 1.08-.04 1.84 0 .76-.08 1.28m.12-13.72 2.92-.08q2.28-.04 3.6-.92 1.32-.92 1.88-2.28.6-1.36.56-2.84-.04-2.16-1-3.28a4.56 4.56 0 0 0-2.28-1.52q-1.36-.4-2.68-.4t-1.96.36-.84 1.2-.2 2.32z"/><path fill="#833c40" fill-opacity=".3" d="M51.14 111v-3.63q3.85-.22 5.83-1.76 2.09-1.54 2.86-4.29.88-2.75.88-6.49l-.33-51.92-13.2 8.47-2.2-3.19 21.45-15.95h3.74l.11 66.77q0 2.09-.11 4.07 0 1.98-.22 3.52l4.62-.22 4.62-.22V111zm76.698-11.99q0 2.2-.11 4.18 0 1.98-.33 3.63a86 86 0 0 1 4.29-.11l4.18-.22V111h-27.61v-3.63h.77q3.741-.33 5.61-2.09t2.53-4.73q.66-2.97.66-7.04v-3.74h-33.44v-5.39l39.82-52.14h3.63v50.93l11.11.11v6.49h-11.11zm-10.23-51.15-25.96 34.76 26.18.33V47.86zm67.726 64.9q-2.53 0-4.51-1.98-1.87-2.09-1.87-5.06t1.98-5.06 4.51-2.09q2.75 0 4.51 2.09 1.87 2.09 1.87 5.06t-1.98 5.06q-1.98 1.98-4.51 1.98m0-44.33q-2.53 0-4.51-1.98-1.87-2.09-1.87-5.06t1.98-5.06 4.51-2.09q2.75 0 4.51 2.09 1.87 2.09 1.87 5.06t-1.98 5.06q-1.98 1.98-4.51 1.98m76.856 44.33q-8.36 0-13.86-3.52-5.499-3.63-8.58-9.46-3.08-5.94-4.4-12.98a82.4 82.4 0 0 1-1.21-13.97q0-6.93 1.54-14.08 1.65-7.15 5.06-13.09 3.41-6.05 8.8-9.68 5.39-3.74 13.09-3.74 8.03 0 13.31 3.63 5.39 3.63 8.47 9.57 3.19 5.83 4.51 12.87t1.32 13.97q0 6.82-1.54 13.97t-4.84 13.2q-3.3 5.94-8.69 9.68-5.28 3.63-12.98 3.63m.66-4.29q4.73 0 7.81-2.97t4.84-7.92q1.87-4.95 2.64-10.89.77-6.05.77-12.1 0-6.71-.77-13.42t-2.64-12.32-5.06-9.02-8.03-3.41q-4.73 0-8.03 2.97-3.19 2.97-5.17 7.92t-2.86 11a85 85 0 0 0-.88 12.21q0 4.62.44 9.79a80 80 0 0 0 1.54 10.23q1.21 4.95 3.19 9.02t4.95 6.49 7.26 2.42m67.661 4.29q-8.361 0-13.86-3.52-5.5-3.63-8.58-9.46-3.08-5.94-4.4-12.98a82.3 82.3 0 0 1-1.21-13.97q0-6.93 1.54-14.08 1.65-7.15 5.06-13.09 3.41-6.05 8.8-9.68 5.39-3.74 13.09-3.74 8.03 0 13.31 3.63 5.39 3.63 8.47 9.57 3.19 5.83 4.51 12.87t1.32 13.97q0 6.82-1.54 13.97t-4.84 13.2q-3.3 5.94-8.69 9.68-5.28 3.63-12.98 3.63m.66-4.29q4.73 0 7.81-2.97t4.84-7.92q1.869-4.95 2.64-10.89.77-6.05.77-12.1 0-6.71-.77-13.42-.771-6.71-2.64-12.32t-5.06-9.02q-3.19-3.41-8.03-3.41-4.73 0-8.03 2.97-3.19 2.97-5.17 7.92t-2.86 11a85 85 0 0 0-.88 12.21q0 4.62.44 9.79a80 80 0 0 0 1.54 10.23q1.21 4.95 3.19 9.02t4.95 6.49 7.26 2.42"/></svg>