<svg xmlns="http://www.w3.org/2000/svg" width="251" height="41" fill="none" viewBox="0 0 251 41"><path fill="#833c40" d="M16.95 3.65q0 2.15-5.3 4.8 2.9 1.75 2.9 4.4 0 3.15-3.3 5.75Q8.15 21 4.9 21q-3.7 0-4.5-2.45-.4-1.3-.4-2.3 0-.85.45-.85.3 0 .3.25 0 4.7 3.9 4.7 3.3 0 5.9-2.5 2.65-2.5 2.65-5.8 0-3.2-2.85-3.2-.25 0-.85.25-.6.2-.9.2-.4 0-.4-.35 0-.75 1.1-.75.15 0 .45.05h.5q1.25 0 3.2-1.55 1.95-1.6 1.95-2.8 0-1.25-1.65-1.25t-3.05.95q-1.35.95-1.25.95-.15 0-.15-.2 0-.15.2-.4.7-.85 2.35-1.5 1.65-.7 2.85-.7a2.45 2.45 0 0 1 1.55.55q.7.5.7 1.35m24.642 4q0 3.7-3.85 7.3-2.6 2.45-6.2 4.05-3.85 1.75-7.15 1.75-2.95 0-4.9-1.65-2.1-1.8-2.1-4.65 0-4.7 4.2-8.3 2.2-1.8 6-3.3 3.85-1.55 6.55-1.55 1.3 0 1.3.25 0 .15-.4.2-7.5.75-11.65 4.4-1.95 1.8-3.3 4.2-1.5 2.65-1.5 5.05 0 4.75 5.8 4.75 5.7 0 11.8-5.5 1.65-1.5 2.8-3.45 1.4-2.3 1.4-4.15 0-3.25-4.25-3.25-5.55 0-10.15 3.95-.05.1-.2.1-.2 0-.2-.2 0-.7 2.7-2.2 3.95-2.25 7.55-2.25 5.75 0 5.75 4.45m19.533 3.1q-1 2.1-2.15 4.2-1.15 2.05-2.15 3.05-1.4 1.35-2.65 1.75t-2.1-.05q-.85-.4-1.25-1.6-.351-1.25 0-3.2.15-.95.55-1.3t.85-.35.8.3q.35.25.45.6-.8 2.05-.8 3.3.05 1.25.7 1.5.7.25 1.9-.55 1.2-.85 2.7-2.95.55-.75 1.25-2.1.75-1.35 1.5-3.9 1.85-.95 2.65-.9.8 0 .85.65.1.6-.35 1.7-.45 1.05-1 2.25-.55 1.15-1.05 2.25-.45 1.05-.45 1.7.15-.2.55-.7.4-.55 1-1.25.6-.75 1.3-1.6a72 72 0 0 1 1.55-1.7q1-1.15 3.1-3.4.2-.2.45-.35.249-.15.45-.15 1.15 0 1.15 1.15 0 .25-.2.6-2.8 4.6-2.8 7.3 0 1.9 1.8 1.9 1.4 0 3-1.45 1.1-.95 2.35-2.7 1.05-1.45 1.2-1.45t.15.3q0 .35-.3.85-3.4 5.65-7.05 5.65-2.85 0-2.85-3.6 0-1.6.3-2.9.35-1.35 1.05-2.6a33 33 0 0 0-1.85 1.9q-.8.95-1.85 2.25-.45.6-.9 1.25t-.9 1.15-.9.75-.95-.05q-.55-.35-.35-1.5.25-1.15.7-2.45.5-1.3.95-2.35t.3-1.2q0-.25-.35-.25t-.35.25m29.425 3.2q0 .25-.3.7-2.2 3.55-4.15 4.55-.9.45-1.8.45-3.05 0-3.05-4.3 0-.7.1-1.5Q78 19.8 75.4 19.8q-1.55 0-1.55-1.7 0-2.6 2.5-6.25 2.5-3.7 4.85-4.5A4.3 4.3 0 0 1 82.85 7q1.8 0 2.6 1.25.15.25.15.35 0 .05-.35.15t-.5.35q-1.2 1.95-1.2 5.85 0 3.6 1.55 3.6 1.1 0 3.1-2.4 2.05-2.45 2.2-2.45t.15.25M83.2 8.7a2 2 0 0 0-.45-.05q-2 0-4.15 2.55-3.05 3.7-3.05 6.05 0 1.05.7 1.05 1.101 0 2.85-2.3 2.45-3.1 4.1-7.3m19.105 2.95q1.1.1 1.1 1.15 0 .1-.2.6a27 27 0 0 1-1.05 2q-.45.85-.45 1.8 0 1.9 1.8 1.9 1.4 0 3-1.45 1.1-.95 2.35-2.7 1.05-1.45 1.2-1.45t.15.3q0 .35-.3.85-3.4 5.65-7.05 5.65-2.85 0-2.85-3.6v-.65q0-.35.05-.65.2-.7.55-1.5-.3.1-.6.15t-.55.05q-.85 1.15-1.7 2.2-.85 1-1.1 1.25-1.4 1.35-2.75 1.85-1.35.45-2.35.1t-1.5-1.5q-.45-1.15-.1-3.1.15-.95.55-1.3t.85-.35.8.3q.35.25.45.6-.8 2.05-.8 3.3.05 1.25.7 1.5.7.25 1.9-.55 1.2-.85 2.7-2.95.3-.4.9-1.3-1.5-.05-2.7-.7-1.15-.65-1.55-1.65-.4-1.05.15-2.2.55-1.2 2.45-2.3 1.35-.75 2.3-.75.95-.05 1.5.45.6.45.8 1.3a5 5 0 0 1 .2 1.75 7 7 0 0 1-.35 1.85q-.3.85-.85 1.45h.5q.25 0 .5-.1.7-1.25 1-1.4.3-.2.35-.2m-2.5-2.95q-2.1-.7-3.05-.2-.9.45-.95 1.4-.05.9.7 1.95.8 1 2.15 1.35.45-.7.8-1.45.4-.75.55-1.35.2-.65.15-1.1 0-.5-.35-.6m33.602-4.5q0 1.85-1.5 3.65-.85 1-3 2.8-.3.25-5 3.4-4.05 2.75-4.15 3.2h1.4a30 30 0 0 1 1.45-.05q3.3 0 4.5.95.25.2.25.4 0 .15-.15.15-.1 0-.35-.1-1.65-.85-3.2-.85-2.6 0-6.5 1.35-2.55.85-2.45.85-.5 0-.5-.9 0-.55 2.3-1.35 1.749-.65 3.9-1.95 3.4-2.05 7-5.25 4.95-4.35 4.95-6.65 0-2-1.95-2-3.351 0-8.7 6.5-.15.2-.35.2-.25 0-.25-.3v-.1q.35-1.75 2.8-4 2.3-2.1 4.15-2.55 1.2-.25 2.2-.25 3.15 0 3.15 2.85m22.492 3.45q0 3.7-3.85 7.3-2.6 2.45-6.2 4.05-3.85 1.75-7.15 1.75-2.95 0-4.9-1.65-2.1-1.8-2.1-4.65 0-4.7 4.2-8.3 2.199-1.8 6-3.3 3.85-1.55 6.55-1.55 1.3 0 1.3.25 0 .15-.4.2-7.5.75-11.65 4.4-1.95 1.8-3.3 4.2-1.5 2.65-1.5 5.05 0 4.75 5.8 4.75 5.7 0 11.8-5.5 1.65-1.5 2.8-3.45 1.4-2.3 1.4-4.15 0-3.25-4.25-3.25-5.55 0-10.15 3.95-.05.1-.2.1-.2 0-.2-.2 0-.7 2.7-2.2 3.95-2.25 7.55-2.25 5.75 0 5.75 4.45m19.109-3.45q0 1.85-1.5 3.65-.849 1-3 2.8-.3.25-5 3.4-4.05 2.75-4.15 3.2h1.4a30 30 0 0 1 1.45-.05q3.3 0 4.5.95.25.2.25.4 0 .15-.15.15-.1 0-.35-.1-1.65-.85-3.2-.85-2.6 0-6.5 1.35-2.55.85-2.45.85-.5 0-.5-.9 0-.55 2.3-1.35 1.75-.65 3.9-1.95 3.4-2.05 7-5.25 4.95-4.35 4.95-6.65 0-2-1.95-2-3.35 0-8.7 6.5-.15.2-.35.2-.25 0-.25-.3v-.1q.35-1.75 2.8-4 2.3-2.1 4.15-2.55 1.2-.25 2.2-.25 3.15 0 3.15 2.85M186.7.05q0 .3-.65.8-.9.65-2.7 2-3.15 2.7-5.4 5.95-2.7 4.05-2.7 7.4 0 3.95 2.9 3.95 2.601 0 4.8-2.75 2.2-2.75 2.2-5.4 0-2.85-2.45-2.85-1.25 0-2.55.9t-1.5.9q-.15-.1-.15-.2 0-.65 1.7-1.55 1.551-.85 2.25-.85 1.75 0 2.9 1.3 1.15 1.25 1.15 3 0 2.8-2.95 5.5-2.9 2.65-5.7 2.65-1.9 0-2.95-1.75-.95-1.5-.95-3.5 0-3.9 4.25-8.9 3.801-4.5 7.8-6.5.4-.15.6-.15.1 0 .1.05m18.32 12.4q-.75.6-1.25 1.35t-.8 1.5q-.25.75-.35 1.4t-.1 1.1q0 1.7 1.65 1.6.7-.05 1.15-.25t1.3-1.05l4-5.35q.55.25.4.45t-.55.6q-1.9 3.1-3.5 4.85-1.6 1.7-3.5 1.8a6.1 6.1 0 0 1-2.3-.55q-1.05-.5-1.3-1.75-.201-.75.15-1.5a7 7 0 0 1 1-1.6 25 25 0 0 1 1.65-1.8 42 42 0 0 0 1.95-2.1q.8-.65.75-1.3 0-.7-.55-1.05t-1.45-.2q-.85.15-1.7 1.1-.45.5-.8.9-.3.4-.55.8t-.5.85q-.25.4-.6.95-1.8 2.75-2.35 2.75-.2 0-.25-.2a.6.6 0 0 0 .1-.15q.05-.15.15-.4.6-.75 1.2-1.7.6-1 1.3-2 .7-1.05 1.55-2a10.3 10.3 0 0 1 2.05-1.75q1.85-.65 3-.6 1.2.05 1.5.7.35.65-.25 1.85-.6 1.15-2.2 2.75m17.541 1.7q0 .1-.1.2-.7 1.2-2.15 2.05-1.4.85-2.75.85a3.6 3.6 0 0 1-1.85-.5q-2.3 3.65-4.75 3.65-1.75 0-1.75-2.05 0-2.85 2.5-6.7a6 6 0 0 1-.1-1.1q0-1.8 1.2-3.5t2.95-1.7q1.15 0 1.85 1.35.55 1.15.55 2.4 0 2.7-2.1 6.85.75.45 1.7.45 1.65 0 3.1-1.3t1.35-1.3q.35 0 .35.35m-5.9-3.8q0-1.1-.35-2.25-.5-1.6-1.3-1.6-1.149 0-1.8 1.4a5.24 5.24 0 0 0-.45 2.4q.8-.95 1.6-.95.75 0 1.1.5v.25q.05.15.05.25 0 .15-.5.15-.9 0-1.9 1.9a6.26 6.26 0 0 0 2.3 3.1q1.25-3.15 1.25-5.15m-1.65 5.85q-1.65-1.1-2.5-2.55-1.5 3.15-1.5 4.55 0 1 .75 1 .7 0 1.85-1.2 1-.95 1.4-1.8m17.176-7.65q0 .2-.45.35t-.6.45q-.25 1.1-.55 2.55-.6 2.55-1.75 7.65h.2q2.65-.1 2.65 1.15 0 .3-.2.3-.05 0-.45-.25-.35-.25-1.4-.25-.5 0-1 .05-1.85 7.5-4.75 11.65-5.4 7.9-11.5 7.9-2.4 0-4-1.4-1.65-1.4-1.65-3.75 0-5.35 7.6-10.25 6.45-4.15 12.5-5.1.35-1.9 1.15-5.75-3.35 5.95-5.95 5.95-1.55 0-1.55-1.7 0-2.55 2.5-6.25t4.85-4.5q.9-.35 1.65-.35.7 0 1.7.5 1 .45 1 1.05m-2.35.15a2 2 0 0 0-.45-.05q-2 0-4.15 2.55-3.05 3.7-3.05 6.05 0 1.05.7 1.05 1.1 0 2.85-2.3 2.45-3.1 4.1-7.3m-3.05 11.8q-3.3.55-7.85 2.85t-7 4.6q-3.75 3.6-3.75 7.15 0 1.95 1.25 3.1 1.2 1.2 3.15 1.2 3.1 0 6.1-2.6 2.4-2.05 4.25-5.25 2.65-4.5 3.85-11.05m23.236-6.55q0 .25-.3.7-2.2 3.55-4.15 4.55-.9.45-1.8.45-3.05 0-3.05-4.3 0-.7.1-1.5-3.35 5.95-5.95 5.95-1.55 0-1.55-1.7 0-2.6 2.5-6.25 2.5-3.7 4.85-4.5a4.3 4.3 0 0 1 1.65-.35q1.8 0 2.6 1.25.15.25.15.35 0 .05-.35.15t-.5.35q-1.2 1.95-1.2 5.85 0 3.6 1.55 3.6 1.1 0 3.1-2.4 2.05-2.45 2.2-2.45t.15.25m-7.35-5.25a2 2 0 0 0-.45-.05q-2 0-4.15 2.55-3.05 3.7-3.05 6.05 0 1.05.7 1.05 1.1 0 2.85-2.3 2.45-3.1 4.1-7.3"/></svg>