<svg xmlns="http://www.w3.org/2000/svg" width="253" height="53" fill="none" viewBox="0 0 253 53"><path fill="#833c40" d="M47.16 15q0 4.74-3.3 9.36-2.82 3.96-7.32 6.96.24.54.24.84 0 .84-.6.84-.24 0-.84-.96-9 5.4-20.7 5.4-1.26 0-2.4-.06-4.08-.18-7.56-1.68Q0 33.72 0 30.36q0-4.02 3.78-6.6 3.3-2.16 7.56-2.4 2.7-6.3 5.88-12.06.96-1.86 2.82-4.74 1.02-1.32 3.06-1.32.84 0 .84.48 0 .18-.12.36-5.64 7.62-10.44 17.28 16.14.36 22.02 8.1 3.96-2.76 6.48-6.36 2.94-4.2 2.94-8.4 0-6.78-7.62-10.38-5.88-2.7-13.5-2.7-10.14 0-18 4.44-.48.24-.78.24-.78 0-.78-.9 0-1.32 1.86-2.34Q8.7 1.62 14.22.72 18.84 0 22.8 0q8.88 0 15.6 3.12Q47.16 7.14 47.16 15M34.08 30.36q-2.76-3.42-9.12-5.58-5.7-1.98-10.74-1.98-.78 0-1.56.06-3.6 7.68-3.6 10.26 0 .18.06.48t.06.48q0 .78-.66.78-.96 0-.96-1.62 0-2.7 3.06-10.14-7.98 1.32-7.98 7.38 0 2.7 3.66 4.26 2.76 1.2 6 1.32h1.5q11.4 0 20.28-5.7m29.64-3.18q0 .12-.12.24-.84 1.44-2.58 2.46-1.68 1.02-3.3 1.02-1.2 0-2.22-.6-2.76 4.38-5.7 4.38-2.1 0-2.1-2.46 0-3.42 3-8.04-.12-.66-.12-1.32 0-2.16 1.44-4.2t3.54-2.04q1.38 0 2.22 1.62.66 1.38.66 2.88 0 3.24-2.52 8.22.9.54 2.04.54 1.98 0 3.72-1.56t1.62-1.56q.42 0 .42.42m-7.08-4.56q0-1.32-.42-2.7-.6-1.92-1.56-1.92-1.38 0-2.16 1.68-.6 1.32-.54 2.88.96-1.14 1.92-1.14.9 0 1.32.6v.3q.06.18.06.3 0 .18-.6.18-1.08 0-2.28 2.28.78 2.28 2.76 3.72 1.5-3.78 1.5-6.18m-1.98 7.02q-1.98-1.32-3-3.06-1.8 3.78-1.8 5.46 0 1.2.9 1.2.84 0 2.22-1.44 1.2-1.14 1.68-2.16m28.83-3.12q0 .42-.36 1.02-1.56 2.58-5.16 5.16-3.84 2.88-6.48 2.88-.54 0-1.62-.06h-1.56q-.24 0-1.8-.42-1.86 4.8-5.04 10.08-4.5 7.32-7.32 7.32-1.5 0-1.5-2.22 0-2.94 5.4-10.92 3.84-5.28 7.74-10.62v-.36q0-2.16-.06-3.78-2.28 3.72-2.88 3.72-.36 0-.36-.42 0-.24.18-.48 2.64-3.72 2.64-6.66 0-.6-.36-.96-.3-.42-.3-.66t1.86-.24q2.04 0 2.04 4.08 0 .6-.12 1.8-.06 1.14-.06 1.68 1.68-3.06 3.72-5.64 3.12-3.84 5.22-3.84 1.92 0 1.92 2.82 0 3.54-2.52 8.22-2.46 4.68-5.4 6.54 5.22-.12 11.58-8.1.24-.3.36-.3.24 0 .24.36m-6.9-5.46q0-1.86-1.02-1.86-.3 0-.6.12-2.16.96-4.56 5.58-1.8 3.42-2.88 7.02.6.9 2.1 2.28 2.64-1.14 4.86-5.7 2.1-4.32 2.1-7.44M65.25 31.98q-.06-.06-.12-.06-.24 0-.66.6-1.44 2.16-4.32 6.36-1.26 1.8-3.18 5.46-2.22 4.26-2.22 5.52 0 .54.36.54 2.64 0 7.26-8.64 1.2-2.28 2.58-7.86-.06-.3-.06-.6 0-.72.36-1.32m31.81-4.8q0 .12-.12.24-.84 1.44-2.58 2.46-1.68 1.02-3.3 1.02-1.2 0-2.22-.6-2.76 4.38-5.7 4.38-2.1 0-2.1-2.46 0-3.42 3-8.04-.12-.66-.12-1.32 0-2.16 1.44-4.2t3.54-2.04q1.38 0 2.22 1.62.66 1.38.66 2.88 0 3.24-2.52 8.22.9.54 2.04.54 1.98 0 3.72-1.56t1.62-1.56q.42 0 .42.42m-7.08-4.56q0-1.32-.42-2.7Q88.96 18 88 18q-1.38 0-2.16 1.68-.6 1.32-.54 2.88.96-1.14 1.92-1.14.9 0 1.32.6v.3q.06.18.06.3 0 .18-.6.18-1.08 0-2.28 2.28.78 2.28 2.76 3.72 1.5-3.78 1.5-6.18M88 29.64q-1.98-1.32-3-3.06-1.8 3.78-1.8 5.46 0 1.2.9 1.2.84 0 2.22-1.44 1.2-1.14 1.68-2.16m17.131-4.5q-.9.72-1.5 1.62t-.96 1.8q-.3.9-.42 1.68t-.12 1.32q0 2.04 1.98 1.92.84-.06 1.38-.3t1.56-1.26l4.8-6.42q.66.3.48.54t-.66.72q-2.28 3.72-4.2 5.82-1.92 2.04-4.2 2.16a7.4 7.4 0 0 1-2.76-.66q-1.26-.6-1.56-2.1-.24-.9.18-1.8.42-.96 1.2-1.92.84-1.02 1.98-2.16t2.34-2.52q.96-.78.9-1.56 0-.84-.66-1.26t-1.74-.24q-1.02.18-2.04 1.32-.54.6-.96 1.08-.36.48-.66.96t-.6 1.02q-.3.48-.72 1.14-2.16 3.3-2.82 3.3-.24 0-.3-.24.06-.06.12-.18.06-.18.18-.48.72-.9 1.44-2.04.72-1.2 1.56-2.4.84-1.26 1.86-2.4 1.08-1.2 2.46-2.1 2.22-.78 3.6-.72 1.44.06 1.8.84.42.78-.3 2.22-.72 1.38-2.64 3.3m25.13 1.38q0 .42-.36 1.02-1.68 2.76-3.9 4.8-2.88 2.64-5.4 2.64-3.36 0-3.36-4.2 0-.96.9-3.78-2.1 3.06-2.7 3.78-1.98 2.34-3.54 2.34-1.98 0-1.98-3.36 0-1.92 1.26-4.62 1.38-3.12 3-3.12.9 0 .9.48 0 .06-1.56 2.76-1.5 2.64-1.5 4.08 0 1.92 1.14 1.92 1.92 0 6.9-8.76.42-.84 1.26-2.34.42-.48.9-.48.54 0 .96.48.48.42.48 1.02 0-.06-2.16 4.02-2.1 4.08-2.1 6.3 0 2.1 1.98 2.1 1.68 0 3.84-1.92 1.44-1.26 3.24-3.6 1.5-1.92 1.62-1.92.18 0 .18.36m11.701.66q0 .12-.12.36-1.5 2.34-4.5 4.32-3.18 2.1-5.82 2.1-3.78 0-3.78-4.74 0-3.12 2.7-6.84 2.88-3.96 5.94-3.96.6 0 1.02.54.48.54.48 1.14 0 1.86-2.82 4.5-2.52 2.34-4.62 3.12-.42 1.5-.42 2.52 0 2.46 2.22 2.46 2.1 0 4.74-1.74 2.28-1.5 3.9-3.42.42-.6.84-.6.24 0 .24.24m-5.88-6.36q0-.72-.72-.72-.9 0-2.64 2.76-1.5 2.34-1.86 3.66 1.56-.66 3.24-2.34 1.98-1.92 1.98-3.36m24.42 4.32q-.9.72-1.5 1.62t-.96 1.8q-.3.9-.42 1.68t-.12 1.32q0 2.04 1.98 1.92.84-.06 1.38-.3t1.56-1.26l4.8-6.42q.66.3.48.54t-.66.72q-2.28 3.72-4.2 5.82-1.92 2.04-4.2 2.16a7.4 7.4 0 0 1-2.76-.66q-1.26-.6-1.56-2.1-.24-.9.18-1.8.42-.96 1.2-1.92.84-1.02 1.98-2.16t2.34-2.52q.96-.78.9-1.56 0-.84-.66-1.26t-1.74-.24q-1.02.18-2.04 1.32-.54.6-.96 1.08-.36.48-.66.96t-.6 1.02q-.3.48-.72 1.14-2.16 3.3-2.82 3.3-.24 0-.3-.24.06-.06.12-.18.06-.18.18-.48.72-.9 1.44-2.04.72-1.2 1.56-2.4.84-1.26 1.86-2.4 1.08-1.2 2.46-2.1 2.22-.78 3.6-.72 1.44.06 1.8.84.42.78-.3 2.22-.72 1.38-2.64 3.3m21.05 2.04q0 .12-.12.24-.84 1.44-2.58 2.46-1.68 1.02-3.3 1.02-1.2 0-2.22-.6-2.76 4.38-5.7 4.38-2.1 0-2.1-2.46 0-3.42 3-8.04-.12-.66-.12-1.32 0-2.16 1.44-4.2t3.54-2.04q1.38 0 2.22 1.62.66 1.38.66 2.88 0 3.24-2.52 8.22.9.54 2.04.54 1.98 0 3.72-1.56t1.62-1.56q.42 0 .42.42m-7.08-4.56q0-1.32-.42-2.7-.6-1.92-1.56-1.92-1.38 0-2.16 1.68-.6 1.32-.54 2.88.96-1.14 1.92-1.14.9 0 1.32.6v.3q.06.18.06.3 0 .18-.6.18-1.08 0-2.28 2.28.78 2.28 2.76 3.72 1.5-3.78 1.5-6.18m-1.98 7.02q-1.98-1.32-3-3.06-1.8 3.78-1.8 5.46 0 1.2.9 1.2.84 0 2.22-1.44 1.2-1.14 1.68-2.16m22.651-3.06q0 .24-.36.66-2.1 3.06-5.82 5.58-2.16 1.38-4.56 1.38-4.44 0-4.44-4.74 0-2.94 3.24-6.48 3.3-3.54 6.18-3.54 1.92 0 1.92 1.5 0 .6-.9 2.1-.84 1.44-1.38 1.44-.24 0-.24-.3 0-.24.18-.78.24-.54.24-.84 0-1.26-1.56-1.26-2.16 0-3.9 2.82-1.62 2.58-1.62 4.86 0 3.72 3.24 3.72 4.08 0 8.52-5.58.6-.72 1.02-.72.24 0 .24.18m22.604.48q0 .24-.12.36-1.5 2.1-3.36 3.9-2.58 2.4-4.32 2.4-2.82 0-2.82-6.24 0-.96.06-2.16-2.16 1.92-4.86 6.9-.9 1.68-1.98 1.68-.36 0-.54-.24-.18-.66-.18-1.68 0-1.74.78-6.36.42-2.34.42-3 0-.48-.18-.48-1.02.9-3.3 3.9-2.46 3.24-5.28 7.62-.36.54-.6.54-.48 0-.48-1.08 0-.3.06-.48 1.38-3.24 2.82-9.12.12-.84.48-2.4.12-.42.78-.84.72-.42 1.2-.42.42 0 .42.36 0 .6-2.82 9.12 2.16-2.88 4.44-5.94l2.16-2.88q.9-1.08 1.86-1.08t.96 1.08q0 .78-.42 3.12-.42 2.28-.96 6.72 1.68-2.4 5.22-7.02.96-1.14 1.92-1.14.9 0 .9 1.14 0 .96-.3 2.88-.3 1.86-.3 2.82 0 3.12 1.62 3.12 2.28 0 5.82-5.04.36-.6.6-.6.3 0 .3.54m-6.06-11.16q-7.56-1.8-11.1.18-.66.36-1.08 1.14-.18.42-.18 1.14t-.18 1.08l-.24.18q-.6.42-.54-.84.12-1.32.6-2.22.6-1.38 2.04-2.1 2.64-1.56 6.96-1.2 1.08 0 7.26 1.02 3.78.66 4.98 0 .72-.42 1.02-1.08.36-.78.12-1.44-.18-.66.06-1.14l.12-.06q.48-.3.42 1.2 0 1.5-.36 2.22-.9 1.74-1.92 2.4-1.5.84-4.74.3-.36-.18-1.44-.3-.48 0-1.8-.48m23.75 10.62q0 .42-.36 1.02-1.68 2.76-3.9 4.8-2.88 2.64-5.4 2.64-3.36 0-3.36-4.2 0-.96.9-3.78-2.1 3.06-2.7 3.78-1.98 2.34-3.54 2.34-1.98 0-1.98-3.36 0-1.92 1.26-4.62 1.38-3.12 3-3.12.9 0 .9.48 0 .06-1.56 2.76-1.5 2.64-1.5 4.08 0 1.92 1.14 1.92 1.92 0 6.9-8.76.42-.84 1.26-2.34.42-.48.9-.48.54 0 .96.48.48.42.48 1.02 0-.06-2.16 4.02-2.1 4.08-2.1 6.3 0 2.1 1.98 2.1 1.68 0 3.84-1.92 1.44-1.26 3.24-3.6 1.5-1.92 1.62-1.92.18 0 .18.36m16.801-20.7-.36.54-1.62 2.52q-6.48 10.2-9.36 15.78-.36.78-1.14 2.4-.36.78-.9.78-.42 0-.42-.42 0-1.02 5.22-11.16 4.86-9.42 6.36-11.82.06-.12.18-.12.36 0 1.2.6t.84.9m-14.34 27.36q0 1.44-1.5 1.44-1.56 0-1.56-1.44t1.56-1.44q1.5 0 1.5 1.44"/></svg>