<svg xmlns="http://www.w3.org/2000/svg" width="299" height="65" fill="none" viewBox="0 0 299 65"><path fill="#833c40" d="M56.28 15.84q-2.52 2.1-6.3 6.78-2.52 3.18-4.68 6.12-2.1 2.94-3.78 5.7-.48.9-.96 1.68-.42.72-.78 1.38-.12.3-.36.66-.18.36-.48.78-.18.06-.48.06-1.68 0-1.74-1.44 0-.3.18-.6.06-.06.48-1.02.48-.96 1.02-2.28.6-1.38 1.2-2.82.66-1.44 1.14-2.52.54-2.34 1.2-4.56.72-2.22 1.38-4.14t1.2-3.48q.54-1.62.84-2.64.36-1.32.18-1.62t-1.26.72q-.24.42-3.72 4.98-.96 1.32-1.86 2.52-.84 1.2-1.68 2.22t-2.7 3.36q-1.8 2.34-4.68 5.94-4.8 5.28-10.56 8.52Q12 43.98 6.12 42.72q-2.7-.6-4.26-2.16Q0 38.7.6 36.12q.78-4.14 7.5-7.92 6.36-3.66 10.44-2.88.48.12.42.54-.12.42-.96.48-7.14 1.08-12.12 5.16-3 2.52-3.6 5.4-.84 3.72 3.48 4.62 5.88 1.2 12.72-3.18 5.22-3.3 10.26-9 5.04-5.64 7.02-8.1 1.02-1.2 1.98-2.4.96-1.26 1.98-2.58.54-.78 1.38-1.86.84-1.14 1.98-2.64.6-1.26 1.8-1.74 1.2-.54 2.28-.6t1.74.12q.66.12.18.12.54 0 .54.54 0 .18-.3.66l-.72 1.2q-.3.54-.6 1.14-.9 1.74-1.56 3.42t-1.26 3.54q-.54 1.8-1.14 3.96-.54 2.1-1.26 4.8 3.6-4.56 7.86-9.12 1.32-1.44 2.76-2.7 1.44-1.32 2.88-2.28 1.44-1.02 2.76-1.56 1.38-.6 2.46-.6.54 0 .54.54 0 .6-.36 1.44-.3.78-.72 1.68t-.9 1.8q-.42.84-.6 1.44-.84 2.28-1.62 4.62-.72 2.28-1.56 4.62-1.98 6.48-1.92 9.24.06 2.22 1.62 2.22.84 0 2.1-1.08 1.38-1.02 1.56-1.02.24 0 .24.3.12 1.26-1.56 2.16-1.44.9-2.64.9-3.18 0-3.36-4.08-.12-2.64 1.08-7.14.48-1.62 1.14-3.66.72-2.1 1.62-4.62.36-.84.84-2.04t1.02-2.94q.36-1.32-.18-1.74-.48-.48-1.56.54m20.15 17.7q0 .12-.12.36-1.5 2.34-4.5 4.32-3.18 2.1-5.82 2.1-3.78 0-3.78-4.74 0-3.12 2.7-6.84 2.88-3.96 5.94-3.96.6 0 1.02.54.48.54.48 1.14 0 1.86-2.82 4.5-2.52 2.34-4.62 3.12-.42 1.5-.42 2.52 0 2.46 2.22 2.46 2.1 0 4.74-1.74 2.28-1.5 3.9-3.42.42-.6.84-.6.24 0 .24.24m-5.88-6.36q0-.72-.72-.72-.9 0-2.64 2.76-1.5 2.34-1.86 3.66 1.56-.66 3.24-2.34 1.98-1.92 1.98-3.36m19.627 5.76q0 .24-.36.66-2.1 3.06-5.82 5.58-2.16 1.38-4.56 1.38-4.44 0-4.44-4.74 0-2.94 3.24-6.48 3.3-3.54 6.18-3.54 1.92 0 1.92 1.5 0 .6-.9 2.1-.84 1.44-1.38 1.44-.24 0-.24-.3 0-.24.18-.78.24-.54.24-.84 0-1.26-1.56-1.26-2.16 0-3.9 2.82-1.62 2.58-1.62 4.86 0 3.72 3.24 3.72 4.08 0 8.52-5.58.6-.72 1.02-.72.24 0 .24.18m22.603.48q0 .24-.12.36-1.5 2.1-3.36 3.9-2.58 2.4-4.32 2.4-2.82 0-2.82-6.24 0-.96.06-2.16-2.16 1.92-4.86 6.9-.9 1.68-1.98 1.68-.36 0-.54-.24-.18-.66-.18-1.68 0-1.74.78-6.36.42-2.34.42-3 0-.48-.18-.48-1.02.9-3.3 3.9-2.46 3.24-5.28 7.62-.36.54-.6.54-.48 0-.48-1.08 0-.3.06-.48 1.38-3.24 2.82-9.12.12-.84.48-2.4.12-.42.78-.84.72-.42 1.2-.42.42 0 .42.36 0 .6-2.82 9.12 2.16-2.88 4.44-5.94l2.16-2.88q.9-1.08 1.86-1.08t.96 1.08q0 .78-.42 3.12-.42 2.28-.96 6.72 1.68-2.4 5.22-7.02.96-1.14 1.92-1.14.9 0 .9 1.14 0 .96-.3 2.88-.3 1.86-.3 2.82 0 3.12 1.62 3.12 2.28 0 5.82-5.04.36-.6.6-.6.3 0 .3.54m-6.06-11.16q-7.56-1.8-11.1.18-.66.36-1.08 1.14-.18.42-.18 1.14t-.18 1.08l-.24.18q-.6.42-.54-.84.12-1.32.6-2.22.6-1.38 2.04-2.1 2.64-1.56 6.96-1.2 1.08 0 7.26 1.02 3.78.66 4.98 0 .72-.42 1.02-1.08.36-.78.12-1.44-.18-.66.06-1.14l.12-.06q.48-.3.42 1.2 0 1.5-.36 2.22-.9 1.74-1.92 2.4-1.5.84-4.74.3-.36-.18-1.44-.3-.48 0-1.8-.48m19.67 11.28q0 .12-.12.24-.84 1.44-2.58 2.46-1.68 1.02-3.3 1.02-1.2 0-2.22-.6-2.76 4.38-5.7 4.38-2.1 0-2.1-2.46 0-3.42 3-8.04-.12-.66-.12-1.32 0-2.16 1.44-4.2t3.54-2.04q1.38 0 2.22 1.62.66 1.38.66 2.88 0 3.24-2.52 8.22.9.54 2.04.54 1.98 0 3.72-1.56t1.62-1.56q.42 0 .42.42m-7.08-4.56q0-1.32-.42-2.7-.6-1.92-1.56-1.92-1.38 0-2.16 1.68-.6 1.32-.54 2.88.96-1.14 1.92-1.14.9 0 1.32.6v.3q.06.18.06.3 0 .18-.6.18-1.08 0-2.28 2.28.78 2.28 2.76 3.72 1.5-3.78 1.5-6.18M117.33 36q-1.98-1.32-3-3.06-1.8 3.78-1.8 5.46 0 1.2.9 1.2.84 0 2.22-1.44 1.2-1.14 1.68-2.16m34.739-3.12q0 .42-.36 1.02-4.08 6.78-8.46 6.78-3.42 0-3.42-4.32 0-3.84 1.74-6.78-4.2 3.78-8.58 10.44-.36.54-.54.54-.54 0-.54-1.08 0-.3.12-.48 1.26-3.06 2.64-8.7.18-.96.6-2.82.18-.42.84-.84t1.2-.42q.42 0 .42.36 0 .6-2.82 9.12.72-.96 4.5-5.1 1.26-1.44 3.72-4.08.48-.42.96-.42 1.38 0 1.38 1.38 0 .3-.24.72-3.36 5.52-3.36 8.76 0 2.28 2.16 2.28 1.68 0 3.6-1.74 1.26-1.08 2.82-3.24 1.26-1.74 1.44-1.74t.18.36m19.639 0q0 .42-.36 1.02-1.56 2.58-5.16 5.16-3.84 2.88-6.48 2.88-.54 0-1.62-.06h-1.56q-.24 0-1.8-.42-1.86 4.8-5.04 10.08-4.5 7.32-7.32 7.32-1.5 0-1.5-2.22 0-2.94 5.4-10.92 3.84-5.28 7.74-10.62v-.36q0-2.16-.06-3.78-2.28 3.72-2.88 3.72-.36 0-.36-.42 0-.24.18-.48 2.64-3.72 2.64-6.66 0-.6-.36-.96-.3-.42-.3-.66t1.86-.24q2.04 0 2.04 4.08 0 .6-.12 1.8-.06 1.14-.06 1.68 1.68-3.06 3.72-5.64 3.12-3.84 5.22-3.84 1.92 0 1.92 2.82 0 3.54-2.52 8.22-2.46 4.68-5.4 6.54 5.22-.12 11.58-8.1.24-.3.36-.3.24 0 .24.36m-6.9-5.46q0-1.86-1.02-1.86-.3 0-.6.12-2.16.96-4.56 5.58-1.8 3.42-2.88 7.02.6.9 2.1 2.28 2.64-1.14 4.86-5.7 2.1-4.32 2.1-7.44m-11.34 10.92q-.06-.06-.12-.06-.24 0-.66.6-1.44 2.16-4.32 6.36-1.26 1.8-3.18 5.46-2.22 4.26-2.22 5.52 0 .54.36.54 2.64 0 7.26-8.64 1.2-2.28 2.58-7.86-.06-.3-.06-.6 0-.72.36-1.32m31.809-4.8q0 .12-.12.24-.84 1.44-2.58 2.46-1.68 1.02-3.3 1.02-1.2 0-2.22-.6-2.76 4.38-5.7 4.38-2.1 0-2.1-2.46 0-3.42 3-8.04-.12-.66-.12-1.32 0-2.16 1.44-4.2t3.54-2.04q1.38 0 2.22 1.62.66 1.38.66 2.88 0 3.24-2.52 8.22.9.54 2.04.54 1.98 0 3.72-1.56t1.62-1.56q.42 0 .42.42m-7.08-4.56q0-1.32-.42-2.7-.6-1.92-1.56-1.92-1.38 0-2.16 1.68-.6 1.32-.54 2.88.96-1.14 1.92-1.14.9 0 1.32.6v.3q.06.18.06.3 0 .18-.6.18-1.08 0-2.28 2.28.78 2.28 2.76 3.72 1.5-3.78 1.5-6.18m-1.98 7.02q-1.98-1.32-3-3.06-1.8 3.78-1.8 5.46 0 1.2.9 1.2.84 0 2.22-1.44 1.2-1.14 1.68-2.16m14.311-12.54q-1.02 1.62-2.1 3.96a33 33 0 0 0-1.62 4.38q1.5-2.7 3.66-5.16 2.88-3.3 5.1-3.3 1.8 0 1.8 2.58 0 3.72-2.34 8.46-1.56 3.24-4.08 5.64-3 2.82-6.12 2.82-2.4 0-2.4-.9 0-.36.36-.36.18 0 .84.18.72.24 1.2.24 2.7 0 5.34-3.06 1.98-2.34 3.24-5.46 1.14-2.7 1.14-5.94 0-1.98-.9-1.98-1.98 0-5.28 5.46-3.12 5.1-3.12 7.62 0 .66.42 1.02.48.36.48.6t-.3.24q-2.22 0-2.22-3.24 0-2.28 1.08-5.88 1.14-3.66 3.42-8.34 1.92-3.78 6.66-11.34Q202.108 0 206.728 0q2.7 0 2.7 2.46 0 4.32-7.56 12.06-4.86 4.92-11.34 8.94m17.76-19.92q0-1.26-1.02-1.32-1.56 0-4.86 2.64-5.82 4.62-10.02 14.16-.66 1.62-.96 2.52 4.32-2.52 9.96-8.1 6.78-6.54 6.9-9.9m3.61 30q0 .12-.12.36-1.5 2.34-4.5 4.32-3.18 2.1-5.82 2.1-3.78 0-3.78-4.74 0-3.12 2.7-6.84 2.88-3.96 5.94-3.96.6 0 1.02.54.48.54.48 1.14 0 1.86-2.82 4.5-2.52 2.34-4.62 3.12-.42 1.5-.42 2.52 0 2.46 2.22 2.46 2.1 0 4.74-1.74 2.28-1.5 3.9-3.42.42-.6.84-.6.24 0 .24.24m-5.88-6.36q0-.72-.72-.72-.9 0-2.64 2.76-1.5 2.34-1.86 3.66 1.56-.66 3.24-2.34 1.98-1.92 1.98-3.36m17.587-.36q0 .24-.54.42t-.72.54q-.3 1.32-.66 3.06-.72 3.06-2.1 9.18h.24q3.18-.12 3.18 1.38 0 .36-.24.36-.06 0-.54-.3-.42-.3-1.68-.3-.6 0-1.2.06-2.22 9-5.7 13.98-6.48 9.48-13.8 9.48-2.88 0-4.8-1.68-1.98-1.68-1.98-4.5 0-6.42 9.12-12.3 7.74-4.98 15-6.12.42-2.28 1.38-6.9-4.02 7.14-7.14 7.14-1.86 0-1.86-2.04 0-3.06 3-7.5t5.82-5.4q1.08-.42 1.98-.42.84 0 2.04.6 1.2.54 1.2 1.26m-2.82.18a2.2 2.2 0 0 0-.54-.06q-2.4 0-4.98 3.06-3.66 4.44-3.66 7.26 0 1.26.84 1.26 1.32 0 3.42-2.76 2.94-3.72 4.92-8.76m-3.66 14.16q-3.96.66-9.42 3.42t-8.4 5.52q-4.5 4.32-4.5 8.58 0 2.34 1.5 3.72 1.44 1.44 3.78 1.44 3.72 0 7.32-3.12 2.88-2.46 5.1-6.3 3.18-5.4 4.62-13.26m22.664-7.62q0 .12-.12.36-1.5 2.34-4.5 4.32-3.18 2.1-5.82 2.1-3.78 0-3.78-4.74 0-3.12 2.7-6.84 2.88-3.96 5.94-3.96.6 0 1.02.54.48.54.48 1.14 0 1.86-2.82 4.5-2.52 2.34-4.62 3.12-.42 1.5-.42 2.52 0 2.46 2.22 2.46 2.1 0 4.74-1.74 2.28-1.5 3.9-3.42.42-.6.84-.6.24 0 .24.24m-5.88-6.36q0-.72-.72-.72-.9 0-2.64 2.76-1.5 2.34-1.86 3.66 1.56-.66 3.24-2.34 1.98-1.92 1.98-3.36m13.387 2.4q.18-.18.36-.6t.36-.9q.24-.48.42-.9.24-.48.42-.66.42-.42.96-.42 1.38 0 1.38 1.38 0 .3-.24.72-3.36 5.52-3.36 8.76 0 2.28 2.16 2.28 1.68 0 3.6-1.74 1.32-1.14 2.82-3.24 1.26-1.74 1.44-1.74t.18.36q0 .42-.36 1.02-4.08 6.78-8.46 6.78-3.42 0-3.42-4.32 0-2.4.72-4.5-1.44.36-2.94.84t-3.12 1.14q-.12.48-.3.96-.18.42-.3.9-.48 2.82-1.08 3.84t-1.38 1.02q-.54 0-.54-1.08 0-.24.12-.48.66-1.56 1.32-3.66.66-2.16 1.32-5.04.12-.48.24-1.14.12-.72.36-1.68.18-.42.84-.84t1.2-.42q.42 0 .42.36 0 .3-.48 1.86-.48 1.5-1.38 4.38.84-.3 2.04-.66 1.2-.42 2.82-.9.42-.06 1.2-.36.3-.66.66-1.32m27.608 3.3q0 .42-.36 1.02-1.68 2.76-3.9 4.8-2.88 2.64-5.4 2.64-3.36 0-3.36-4.2 0-.96.9-3.78-2.1 3.06-2.7 3.78-1.98 2.34-3.54 2.34-1.98 0-1.98-3.36 0-1.92 1.26-4.62 1.38-3.12 3-3.12.9 0 .9.48 0 .06-1.56 2.76-1.5 2.64-1.5 4.08 0 1.92 1.14 1.92 1.92 0 6.9-8.76.42-.84 1.26-2.34.42-.48.9-.48.54 0 .96.48.48.42.48 1.02 0-.06-2.16 4.02-2.1 4.08-2.1 6.3 0 2.1 1.98 2.1 1.68 0 3.84-1.92 1.44-1.26 3.24-3.6 1.5-1.92 1.62-1.92.18 0 .18.36m13.741-2.34q1.32.12 1.32 1.38 0 .12-.24.72-.66 1.38-1.26 2.4-.54 1.02-.54 2.16 0 2.28 2.16 2.28 1.68 0 3.6-1.74 1.32-1.14 2.82-3.24 1.26-1.74 1.44-1.74t.18.36q0 .42-.36 1.02-4.08 6.78-8.46 6.78-3.42 0-3.42-4.32v-.78q0-.42.06-.78.24-.84.66-1.8-.36.12-.72.18t-.66.06q-1.02 1.38-2.04 2.64-1.02 1.2-1.32 1.5-1.68 1.62-3.3 2.22-1.62.54-2.82.12t-1.8-1.8q-.54-1.38-.12-3.72.18-1.14.66-1.56t1.02-.42.96.36q.42.3.54.72-.96 2.46-.96 3.96.06 1.5.84 1.8.84.3 2.28-.66 1.44-1.02 3.24-3.54.36-.48 1.08-1.56-1.8-.06-3.24-.84-1.38-.78-1.86-1.98-.48-1.26.18-2.64.66-1.44 2.94-2.76 1.62-.9 2.76-.9 1.14-.06 1.8.54.72.54.96 1.56.3.96.24 2.1t-.42 2.22q-.36 1.02-1.02 1.74h.6q.3 0 .6-.12.84-1.5 1.2-1.68.36-.24.42-.24m-3-3.54q-2.52-.84-3.66-.24-1.08.54-1.14 1.68-.06 1.08.84 2.34.96 1.2 2.58 1.62.54-.84.96-1.74.48-.9.66-1.62.24-.78.18-1.32 0-.6-.42-.72"/></svg>