<svg xmlns="http://www.w3.org/2000/svg" width="249" height="159" fill="none" viewBox="0 0 249 159"><path fill="#833c40" fill-opacity=".4" d="M5.66 23.32q-.82 0-1.78-.24-.96-.22-1.92-.86T.16 20.4l.52-.42a5.3 5.3 0 0 0 1.96 1.72q1.2.58 2.5.58 1.74 0 2.96-.78 1.24-.8 1.9-2.24t.66-3.34q0-1.46-.38-2.64-.36-1.18-1.04-2.02a4.46 4.46 0 0 0-1.62-1.3 4.7 4.7 0 0 0-2.08-.46q-1.72 0-2.64.94t-1.14 2.82h-.72V8.82h1.08l-.1 1.08q1-.7 1.94-.96a7.6 7.6 0 0 1 2-.26q1.7 0 2.94.6 1.26.58 2.08 1.58a6.8 6.8 0 0 1 1.22 2.24q.42 1.22.42 2.52a8.8 8.8 0 0 1-.5 2.98 7.4 7.4 0 0 1-1.44 2.46 6.6 6.6 0 0 1-2.2 1.66q-1.26.6-2.82.6m-2.28-5.44v-4.26h.9l-.08.86-.08.86 7.16-.02v.8l-4.86.06q-.84 0-1.38.06-.52.06-.76.42-.24.34-.24 1.22zM16.385 23v-.6q.62 0 .86-.3.24-.32.28-.86.06-.56.06-1.28v-5.5q.02-.28.08-.62h-1.42q-.8 0-1.18.46-.36.46-.36 1.72h-.76l.08-3.02h8.84l.1 3.02h-.76q-.02-1.26-.38-1.72-.34-.46-1.28-.46h-1.24v7.04q0 .4-.02.72 0 .3-.06.64l1.26-.06V23zm12.863.32q-1.4 0-2.54-.64a5 5 0 0 1-1.82-1.8q-.66-1.16-.66-2.64 0-1.58.66-2.84t1.8-1.98q1.14-.74 2.56-.74 1.4 0 2.54.68 1.14.66 1.82 1.8t.68 2.6q0 1.54-.68 2.82a5.2 5.2 0 0 1-1.8 2q-1.14.74-2.56.74m.16-.8q1.059 0 1.68-.6.62-.6.88-1.56.28-.96.28-2.02 0-.9-.18-1.76a5.6 5.6 0 0 0-.52-1.58 3.1 3.1 0 0 0-.94-1.14q-.56-.42-1.36-.42-1.04 0-1.7.6t-.98 1.56q-.3.96-.3 2.06 0 1.24.34 2.36.34 1.1 1.04 1.8t1.76.7M40.7 23v-.6q.459 0 .78-.24.34-.26.7-.74.38-.48.94-1.18l.72-.9q.22-.28.44-.4.22-.14.48-.22-1.52-.26-2.14-1.02a2.73 2.73 0 0 1-.6-1.74q0-.96.46-1.62.459-.66 1.2-1A3.9 3.9 0 0 1 45.3 13h5.06v.6q-.48 0-.74.22a1.04 1.04 0 0 0-.36.58q-.1.36-.1.9v5.58q0 .4-.02.72 0 .3-.06.64l1.26-.06V23h-4.08v-.6q.78 0 .98-.52.2-.54.2-1.26V19l-1.38.02q-.26.24-.56.64t-.58.8q-.26.4-.44.66-.501.7-1.08 1.3-.58.58-1.12.58zm5.32-4.72h.76l.66-.04v-3.96q.02-.28.04-.46a5 5 0 0 0-.82-.02h-.64q-.92 0-1.58.48-.64.48-.64 1.64 0 .98.58 1.68.6.68 1.64.68m7.579 8.3-.54-.4q.22-.28.46-.8t.38-1.16q.16-.62.08-1.22-.14.06-.26.08a.8.8 0 0 1-.24.04.9.9 0 0 1-.66-.28 1 1 0 0 1-.26-.7q0-.56.32-.86.339-.3.78-.3.7 0 1.06.54.36.52.36 1.28 0 .5-.2 1.22-.18.72-.52 1.4a4.2 4.2 0 0 1-.76 1.16M62.192 23v-.6q.64.02.86-.34.22-.38.3-1l.74-6.2.08-.56a8 8 0 0 0 .06-.54l-1.22.06V13h2.66l2.64 6.18.64 1.52q.16-.36.3-.7l.28-.72 2.58-6.28h2.36v.6q-.56 0-.84.32t-.16 1.12l.92 6.08q.06.58 0 1.1l1.3-.04V23h-4.04v-.6q.621.02.9-.38.3-.42.16-1.32l-.78-5.14-3.06 7.44h-.8l-2.38-5.8q-.18-.46-.38-.92l-.36-.92-.12.92q-.04.46-.1.92l-.48 3.86a4 4 0 0 1-.1.6q-.06.32-.14.56l1.26-.04V23zm21.086 0a6 6 0 0 1-.08-.6 9 9 0 0 0-.06-.54 5.7 5.7 0 0 1-1.48 1.08q-.78.38-1.66.38-1.52 0-2.26-.68a2.25 2.25 0 0 1-.74-1.7q0-.92.56-1.58.58-.68 1.48-1.1a8 8 0 0 1 1.98-.64 9.5 9.5 0 0 1 2.08-.2v-1.24q0-.7-.12-1.32a1.9 1.9 0 0 0-.52-1.02q-.4-.4-1.28-.42a3 3 0 0 0-1.2.22q-.6.24-.88.82a.7.7 0 0 1 .2.38q.06.2.06.38 0 .24-.2.56-.2.3-.7.28-.42 0-.64-.28-.22-.3-.22-.7 0-.68.5-1.22.52-.54 1.42-.86t2.04-.32q1.68 0 2.48.9.8.88.78 2.8v1.5q0 .74-.02 1.5v1.5q0 .32-.02.64-.021.32-.06.72l.7-.04.72-.04V23zm-.18-4.9a8 8 0 0 0-1.44.18q-.74.14-1.38.44-.62.3-1.02.8-.38.48-.36 1.18.04.74.48 1.12a1.7 1.7 0 0 0 1.08.36q.82 0 1.42-.3a5.5 5.5 0 0 0 1.22-.88 5 5 0 0 1-.02-.48v-1.18q.02-.54.02-1.24m5.172 5.12q-.72 0-1.12-.28a.95.95 0 0 1-.38-.78q0-.44.22-.72t.66-.3q.48 0 .68.24.22.24.22.48 0 .06-.02.16 0 .08-.02.14.12.04.18.04.4 0 .84-.8t.8-2.64q.38-1.86.52-4.98l-1.88.08V13h8.62v.6q-.6 0-.86.32-.24.3-.28.86-.04.54-.04 1.26v4.84q-.02.4-.04.72-.02.3-.08.64l1.26-.06V23h-4.08v-.6q.62 0 .86-.3.24-.32.28-.86.06-.56.08-1.28v-5.54q.02-.32.08-.66h-1.76q-.68 0-.94.44-.24.42-.24 1.14a29 29 0 0 1-.3 2.82q-.2 1.4-.6 2.54t-1.06 1.84q-.64.68-1.6.68m15.916.1q-1.38 0-2.5-.64a4.7 4.7 0 0 1-1.74-1.84q-.64-1.2-.64-2.82 0-1.4.62-2.62a5.15 5.15 0 0 1 1.78-1.96q1.14-.76 2.64-.76.84 0 1.56.28.74.26 1.3.82.56.54.88 1.38.32.82.32 1.94l-7.04.12q0 1.52.32 2.68.34 1.14 1.08 1.78.74.62 1.9.62.621 0 1.26-.22.66-.22 1.22-.6.561-.38.9-.84l.48.4a4.5 4.5 0 0 1-1.3 1.34 5.5 5.5 0 0 1-1.56.72 5.6 5.6 0 0 1-1.48.22m-2.76-6.94h5.1q0-.72-.22-1.38a2.27 2.27 0 0 0-.68-1.1q-.48-.44-1.26-.44-1.16 0-1.94.7-.76.68-1 2.22m12.88-2.78q-.62 0-.86.32-.24.3-.28.86-.04.54-.06 1.26l-.02 4.84q0 .4-.02.72 0 .3-.06.64l1.26-.06V23h-4.08v-.6q.62 0 .86-.3.24-.32.28-.86.06-.56.06-1.28v-5.54q.02-.32.08-.66l-1.26.06V13h4.1zm6.56 0q-.6 0-.86.32-.24.3-.28.86-.02.54-.04 1.26l-.02 4.84q0 .4-.02.72 0 .3-.06.64l1.26-.06V23h-4.08v-.6q.62 0 .86-.3.24-.32.28-.86.04-.56.04-1.28l.02-4.84v-.7q.02-.32.08-.66l-1.26.06V13h4.08zm-8.48 3.88h6.28v.78l-6.28.08zM122.628 23v-.6q.74-.02.96-.46.24-.46.24-1.24v-6.28q.02-.32.08-.66l-.64.04q-.3 0-.62.02V13h4.08v.6q-.6 0-.86.28a1.22 1.22 0 0 0-.28.7q-.04.4-.04.78v1.84l1.24-.04q1.62-.04 2.54.36.939.38 1.32 1.06.4.66.4 1.46 0 .96-.46 1.62-.44.66-1.18 1a3.8 3.8 0 0 1-1.62.34zm2.88-.82q.219.02.54.02h1.02q.92 0 1.56-.48.66-.48.66-1.64 0-1.02-.6-1.58-.58-.58-1.62-.58-.44 0-.82.02-.36 0-.7.02v3.1q0 .38-.02.66a4 4 0 0 1-.02.46m7.056.82v-.6q.62 0 .86-.3.24-.32.28-.86.06-.56.06-1.28l.02-4.84v-.7a6 6 0 0 1 .08-.66l-.64.04q-.3 0-.62.02V13h4.08v.6q-.6 0-.86.32-.24.3-.28.86-.04.54-.04 1.26l-.02 1.32h.78l2.44-2.56q.34-.34.62-.6.28-.28.56-.46l-1.36.06V13h3.64v.6a2.8 2.8 0 0 0-1.28.44q-.579.36-1.08.82-.48.46-.84.84l-1.56 1.64q.4.18.68.46t.56.62l1.42 1.82q.1.12.34.46.261.34.6.74.36.4.74.68.4.28.74.28v.6h-1.82q-.56 0-1.06-.58a34 34 0 0 1-1.06-1.3l-.94-1.3q-.4-.6-.74-1.04a4.6 4.6 0 0 0-.58-.68l-.8.04-.02 2.74q0 .4-.02.72 0 .3-.06.64.32-.02.62-.02l.64-.04V23zm17.022 0a7 7 0 0 1-.08-.6 8 8 0 0 0-.06-.54 5.7 5.7 0 0 1-1.48 1.08 3.74 3.74 0 0 1-1.66.38q-1.52 0-2.26-.68a2.25 2.25 0 0 1-.74-1.7q0-.92.56-1.58.58-.68 1.48-1.1a8 8 0 0 1 1.98-.64 9.5 9.5 0 0 1 2.08-.2v-1.24q0-.7-.12-1.32a1.9 1.9 0 0 0-.52-1.02q-.4-.4-1.28-.42a3 3 0 0 0-1.2.22q-.6.24-.88.82a.7.7 0 0 1 .2.38q.06.2.06.38 0 .24-.2.56-.2.3-.7.28-.42 0-.64-.28-.22-.3-.22-.7 0-.68.5-1.22.52-.54 1.42-.86t2.04-.32q1.68 0 2.48.9.801.88.78 2.8v1.5q0 .74-.02 1.5v1.5q0 .32-.02.64t-.06.72l.7-.04.72-.04V23zm-.18-4.9a8 8 0 0 0-1.44.18q-.74.14-1.38.44-.62.3-1.02.8-.38.48-.36 1.18.04.74.48 1.12.46.36 1.08.36.82 0 1.42-.3.62-.32 1.22-.88a6 6 0 0 1-.02-.48v-1.18q.02-.54.02-1.24m3.873 4.9v-.6q.46 0 .78-.24.34-.26.7-.74.38-.48.94-1.18l.72-.9q.22-.28.44-.4.22-.14.48-.22-1.52-.26-2.14-1.02a2.73 2.73 0 0 1-.6-1.74q0-.96.46-1.62t1.2-1a3.9 3.9 0 0 1 1.62-.34h5.06v.6q-.48 0-.74.22a1.04 1.04 0 0 0-.36.58q-.1.36-.1.9v5.58q0 .4-.02.72 0 .3-.06.64l1.26-.06V23h-4.08v-.6q.78 0 .98-.52.2-.54.2-1.26V19l-1.38.02a5 5 0 0 0-.56.64q-.3.4-.58.8-.26.4-.44.66-.5.7-1.08 1.3-.58.58-1.12.58zm5.32-4.72h.76l.66-.04v-3.96q.02-.28.04-.46a5 5 0 0 0-.82-.02h-.64q-.92 0-1.58.48-.64.48-.64 1.64 0 .98.58 1.68.6.68 1.64.68m45.553-10.32q0 2.36-2.32 7.44t-2.32 6.56q0 1.2 1.12 1.2.639 0 1.56-.68.96-.68 1.12-.68t.16.2q0 .8-1.12 1.4-1.08.6-1.96.6-2.12 0-2.12-2.24 0-1.64 1.2-4.4 1.44-3.24 1.52-3.48.84-2 1.28-3.6.48-1.64.48-2.56 0-1.4-1-1.4-.48 0-1.24.32-2.88 1.32-7.24 6.8a79 79 0 0 0-5.84 8.44q-.64 1.16-1.96 2.8-.88 0-.88-.88 0-.28.12-.48 2.2-2.68 4.88-8.68 2.88-6.44 2.88-9.36 0-4.32-5.12-4.32-2.44 0-5.56 1.08-3.6 1.2-6.96 3.52-4.44 3.04-4.44 5.84 0 2.28 3.08 2.28 1.64 0 4.44-.8.28-.08.4-.08.32 0 .32.24 0 .68-2.08 1.16-1.64.4-2.72.4-4.48 0-4.48-3.52 0-3.28 4.56-6.44a28 28 0 0 1 7.52-3.64q3.36-1 6.16-1 6.6 0 6.6 5.2 0 3.64-2.92 9.16 2.28-2.72 4.56-5.48 3.44-3.72 5.4-3.72 2.92 0 2.92 2.8m11.911 10.72q0 .08-.08.16-.56.96-1.72 1.64-1.12.68-2.2.68a2.87 2.87 0 0 1-1.48-.4q-1.84 2.92-3.8 2.92-1.4 0-1.4-1.64 0-2.28 2-5.36a5 5 0 0 1-.08-.88q0-1.44.96-2.8t2.36-1.36q.92 0 1.48 1.08.44.92.44 1.92 0 2.16-1.68 5.48.6.36 1.36.36 1.32 0 2.48-1.04 1.161-1.04 1.08-1.04.28 0 .28.28m-4.72-3.04q0-.88-.28-1.8-.4-1.28-1.04-1.28-.92 0-1.44 1.12a4.2 4.2 0 0 0-.36 1.92q.64-.76 1.28-.76.6 0 .88.4v.2q.04.12.04.2 0 .12-.4.12-.72 0-1.52 1.52a5 5 0 0 0 1.84 2.48q1-2.52 1-4.12m-1.32 4.68q-1.32-.88-2-2.04-1.2 2.52-1.2 3.64 0 .8.6.8.56 0 1.48-.96.8-.76 1.12-1.44m14.221-4.12q-1.32 1.72-2.52 3.24t-2 2.32q-1.12 1.08-2.12 1.4t-1.68-.04q-.68-.32-1-1.28-.28-1 0-2.56.12-.76.44-1.04t.68-.28.64.24a.9.9 0 0 1 .36.48q-.64 1.64-.64 2.64.04 1 .56 1.2.56.2 1.52-.44.96-.68 2.16-2.36.24-.32.88-1.2.68-.92 1.84-2.2.4-.48.76-.88t1.16-1.28q.28-.28.64-.28.92 0 .92.92 0 .2-.16.48-2.24 3.68-2.24 5.84 0 1.52 1.44 1.52 1.12 0 2.4-1.16.88-.76 1.88-2.16.84-1.16.96-1.16t.12.24q0 .28-.24.68-2.72 4.52-5.64 4.52-2.28 0-2.28-2.88 0-2.52 1.16-4.52m17.098.48q.88.08.88.92 0 .08-.16.48a21 21 0 0 1-.84 1.6q-.36.68-.36 1.44 0 1.52 1.44 1.52 1.12 0 2.4-1.16.88-.76 1.88-2.16.84-1.16.96-1.16t.12.24q0 .28-.24.68-2.72 4.52-5.64 4.52-2.28 0-2.28-2.88v-.52q0-.28.04-.52.16-.56.44-1.2-.24.08-.48.12t-.44.04q-.68.92-1.36 1.76-.68.8-.88 1-1.12 1.08-2.2 1.48-1.08.36-1.88.08t-1.2-1.2q-.36-.92-.08-2.48.12-.76.44-1.04t.68-.28.64.24a.9.9 0 0 1 .36.48q-.64 1.64-.64 2.64.04 1 .56 1.2.56.2 1.52-.44.96-.68 2.16-2.36.24-.32.72-1.04-1.2-.04-2.16-.56-.92-.52-1.24-1.32-.32-.84.12-1.76.44-.96 1.96-1.84 1.08-.6 1.84-.6.76-.04 1.2.36.48.36.64 1.04.2.64.16 1.4t-.28 1.48q-.24.68-.68 1.16h.4q.2 0 .4-.08.56-1 .8-1.12.24-.16.28-.16m-2-2.36q-1.68-.56-2.44-.16-.72.36-.76 1.12-.04.72.56 1.56.64.8 1.72 1.08.36-.56.64-1.16.32-.6.44-1.08.16-.52.12-.88 0-.4-.28-.48m9.044 8.28q0 .42-.74 1.28-.72.86-1.08.86-.04 0-.04-.02 0-.08.14-.22t1-1.4h-.06q-.3.02-.3-.44 0-.54.64-.54.44 0 .44.48M4.56 39.6q-.62 0-.86.32-.24.3-.28.86-.04.54-.06 1.26l-.02 4.84q0 .4-.02.72 0 .3-.06.64.32-.02.62-.02l.64-.04V49H.44v-.6q.62 0 .86-.3.24-.32.28-.86.06-.56.06-1.28v-5.54q.02-.32.08-.66l-.64.04q-.3 0-.62.02V39h4.1zm3.92.36.64.48-6.14 7.7-.68-.56zm2.74-.36q-.6 0-.86.32-.24.3-.28.86-.04.54-.04 1.26L10 46.88q0 .4-.02.72 0 .3-.04.64.32-.02.62-.02l.64-.04V49H7.1v-.6q.62 0 .86-.3.24-.32.28-.86.06-.56.06-1.28l.02-4.84v-.7q.02-.32.08-.66l-.64.04q-.3 0-.62.02V39h4.08zm11.893 9.72q-1.34 0-2.48-.6a4.75 4.75 0 0 1-1.8-1.76q-.66-1.16-.66-2.78 0-1.04.38-2.02a5.9 5.9 0 0 1 1.06-1.76 5.1 5.1 0 0 1 1.66-1.26 4.84 4.84 0 0 1 2.12-.46q1.12 0 1.94.34.84.34 1.3.9t.46 1.22q0 .44-.24.76-.24.3-.7.3-.5.02-.72-.3-.2-.34-.2-.6 0-.2.06-.4.06-.22.24-.4a1.2 1.2 0 0 0-.56-.7 2.2 2.2 0 0 0-.84-.3 4 4 0 0 0-.7-.08q-1.36 0-2.3 1.1-.92 1.08-.92 3.16 0 1.34.42 2.38.44 1.04 1.22 1.64.78.58 1.8.58a3.53 3.53 0 0 0 1.8-.5q.86-.5 1.34-1.22l.52.4a4.6 4.6 0 0 1-1.26 1.36q-.72.52-1.5.76-.76.24-1.44.24m10.627 0q-1.4 0-2.54-.64a5 5 0 0 1-1.82-1.8q-.66-1.16-.66-2.64 0-1.58.66-2.84t1.8-1.98q1.14-.74 2.56-.74 1.4 0 2.54.68 1.14.66 1.82 1.8t.68 2.6q0 1.54-.68 2.82a5.2 5.2 0 0 1-1.8 2q-1.14.74-2.56.74m.16-.8q1.06 0 1.68-.6t.88-1.56q.28-.96.28-2.02 0-.9-.18-1.76a5.6 5.6 0 0 0-.52-1.58 3.1 3.1 0 0 0-.94-1.14q-.56-.42-1.36-.42-1.04 0-1.7.6t-.98 1.56q-.3.96-.3 2.06 0 1.24.34 2.36.34 1.1 1.04 1.8t1.76.7m6.58.48v-.6q.739-.02.96-.46.24-.46.24-1.24v-5.78q0-.36.02-.64.018-.28.06-.52l-.64.04q-.3 0-.62.02V39h1.38q.839-.02 1.84-.02h2.02q1.398 0 2.28.58.899.56.88 1.72-.02.8-.56 1.5-.521.68-1.66.96 1.36.06 2.06.74.7.66.7 1.68 0 .9-.48 1.54t-1.26.98q-.78.32-1.68.32zm2.88-.82q.22.02.58.02h1.12q1.12 0 1.78-.46.679-.48.68-1.52-.001-1.06-.74-1.5-.741-.46-1.72-.46-.42 0-.88.02-.441 0-.78.02v2.76q-.001.38-.02.66-.001.28-.02.46m.04-4.64 1.5-.02q.82-.02 1.3-.34.48-.34.68-.82.199-.5.18-.98 0-.7-.3-1.06t-.78-.48a3.4 3.4 0 0 0-1-.14q-.72 0-1.16.26-.42.26-.42 1.12zm12.389 5.78q-1.34 0-2.48-.6a4.75 4.75 0 0 1-1.8-1.76q-.66-1.16-.66-2.78 0-1.04.38-2.02a5.9 5.9 0 0 1 1.06-1.76 5.1 5.1 0 0 1 1.66-1.26 4.84 4.84 0 0 1 2.12-.46q1.12 0 1.94.34.84.34 1.3.9t.46 1.22q0 .44-.24.76-.24.3-.7.3-.501.02-.72-.3-.2-.34-.2-.6 0-.2.06-.4.06-.22.24-.4a1.2 1.2 0 0 0-.56-.7 2.2 2.2 0 0 0-.84-.3 4 4 0 0 0-.7-.08q-1.36 0-2.3 1.1-.92 1.08-.92 3.16 0 1.34.42 2.38.44 1.04 1.22 1.64.78.58 1.8.58a3.53 3.53 0 0 0 1.8-.5q.86-.5 1.34-1.22l.52.4a4.6 4.6 0 0 1-1.26 1.36q-.72.52-1.5.76-.76.24-1.44.24m10.507 0q-1.38 0-2.5-.64a4.7 4.7 0 0 1-1.74-1.84q-.64-1.2-.64-2.82 0-1.4.62-2.62a5.15 5.15 0 0 1 1.78-1.96q1.14-.76 2.64-.76.84 0 1.56.28a3.4 3.4 0 0 1 1.3.82q.56.54.88 1.38.32.82.32 1.94l-7.04.12q0 1.52.32 2.68.339 1.14 1.08 1.78.74.62 1.9.62a3.9 3.9 0 0 0 1.26-.22q.66-.22 1.22-.6t.9-.84l.48.4a4.5 4.5 0 0 1-1.3 1.34 5.5 5.5 0 0 1-1.56.72 5.6 5.6 0 0 1-1.48.22m-2.76-6.94h5.1q0-.72-.22-1.38a2.3 2.3 0 0 0-.68-1.1q-.48-.44-1.26-.44-1.16 0-1.94.7-.76.68-1 2.22m8.52 6.62v-.6q.64.02.86-.34.219-.38.3-1l.74-6.2.08-.56a8 8 0 0 0 .06-.54l-1.22.06V39h2.66l2.64 6.18.64 1.52q.159-.36.3-.7l.28-.72 2.58-6.28h2.36v.6q-.561 0-.84.32-.28.32-.16 1.12l.92 6.08q.06.58 0 1.1l1.3-.04V49h-4.04v-.6q.62.02.9-.38.3-.42.16-1.32l-.78-5.14-3.06 7.44h-.8l-2.38-5.8q-.18-.46-.38-.92l-.36-.92-.12.92q-.04.46-.1.92l-.48 3.86a4 4 0 0 1-.1.6q-.06.32-.14.56l1.26-.04V49zm25.14.32q-1.34 0-2.48-.6a4.75 4.75 0 0 1-1.8-1.76q-.66-1.16-.66-2.78 0-1.04.38-2.02a5.9 5.9 0 0 1 1.06-1.76 5.1 5.1 0 0 1 1.66-1.26 4.84 4.84 0 0 1 2.12-.46q1.118 0 1.94.34.84.34 1.299.9.46.56.46 1.22 0 .44-.24.76-.24.3-.7.3-.5.02-.72-.3-.2-.34-.2-.6 0-.2.06-.4.06-.22.24-.4a1.2 1.2 0 0 0-.56-.7 2.2 2.2 0 0 0-.84-.3 4 4 0 0 0-.7-.08q-1.36 0-2.3 1.1-.92 1.08-.92 3.16 0 1.34.42 2.38.44 1.04 1.22 1.64.78.58 1.8.58a3.53 3.53 0 0 0 1.8-.5q.86-.5 1.34-1.22l.52.4a4.6 4.6 0 0 1-1.26 1.36q-.72.52-1.5.76-.76.24-1.44.24m5.564-.32v-.6q.62 0 .86-.3.24-.32.28-.86.06-.56.06-1.28l.02-4.84v-.7q.02-.32.08-.66l-.64.04q-.3 0-.62.02V39h4.08v.6q-.6 0-.86.32-.24.3-.28.86-.04.54-.04 1.26l-.02 1.32h.78l2.44-2.56q.34-.34.62-.6.28-.28.56-.46l-1.36.06V39h3.64v.6q-.68.06-1.28.44-.58.36-1.08.82-.48.46-.84.84l-1.56 1.64q.4.18.68.46t.56.62l1.42 1.82q.1.12.34.46.26.34.6.74.36.4.74.68.4.28.74.28v.6h-1.82q-.56 0-1.06-.58t-1.06-1.3l-.94-1.3a19 19 0 0 0-.74-1.04 5 5 0 0 0-.58-.68l-.8.04-.02 2.74q0 .4-.02.72 0 .3-.06.64.32-.02.62-.02l.64-.04V49zm15.765.32q-1.4 0-2.54-.64a5 5 0 0 1-1.82-1.8q-.66-1.16-.66-2.64 0-1.58.66-2.84t1.8-1.98q1.14-.74 2.56-.74 1.4 0 2.54.68 1.14.66 1.82 1.8t.68 2.6q0 1.54-.68 2.82a5.2 5.2 0 0 1-1.8 2q-1.14.74-2.56.74m.16-.8q1.06 0 1.68-.6t.88-1.56q.28-.96.28-2.02 0-.9-.18-1.76a5.7 5.7 0 0 0-.52-1.58q-.36-.72-.94-1.14-.56-.42-1.36-.42-1.04 0-1.7.6t-.98 1.56q-.3.96-.3 2.06 0 1.24.34 2.36.34 1.1 1.04 1.8t1.76.7m6.399 5.58v-.6q.62 0 .86-.32.24-.3.28-.86.04-.54.04-1.26l.04-9.66v-.64a6 6 0 0 1 .08-.66l-.72.04-.7.04v-.84q.88 0 1.32-.08.46-.08.66-.2.22-.12.36-.26h.6q.02.2.04.48.02.26.04.6.6-.54 1.42-.86.84-.34 1.68-.34 1.161 0 2.16.6t1.62 1.72q.62 1.1.62 2.64 0 1.7-.72 2.98-.699 1.28-1.86 2-1.16.7-2.52.7-.7 0-1.3-.18a4.3 4.3 0 0 1-1.1-.48v3.32q0 .4-.02.7 0 .32-.06.66l.62-.04q.32 0 .64-.02v.82zm5.26-5.58q.96 0 1.64-.58.7-.6 1.06-1.62.38-1.04.38-2.36 0-1.08-.32-2.06-.3-1-.98-1.62-.66-.62-1.76-.62-.68 0-1.32.34-.62.32-1.04.78v.24q.02.14.02.52v1.1q0 .72-.02 1.96v3.14q.501.38 1.08.58.6.2 1.26.2m11.814.8q-1.4 0-2.54-.64a5 5 0 0 1-1.82-1.8q-.66-1.16-.66-2.64 0-1.58.66-2.84t1.8-1.98q1.14-.74 2.56-.74 1.4 0 2.54.68 1.14.66 1.82 1.8t.68 2.6q0 1.54-.68 2.82a5.2 5.2 0 0 1-1.8 2q-1.14.74-2.56.74m.16-.8q1.06 0 1.68-.6t.88-1.56q.28-.96.28-2.02 0-.9-.18-1.76a5.7 5.7 0 0 0-.52-1.58q-.36-.72-.94-1.14-.56-.42-1.36-.42-1.04 0-1.7.6t-.98 1.56q-.3.96-.3 2.06 0 1.24.34 2.36.34 1.1 1.04 1.8t1.76.7M.2 75v-.6q.64.02.86-.34.22-.38.3-1l.74-6.2.08-.56q.04-.28.06-.54l-1.22.06V65h2.66l2.64 6.18.32.76.32.76q.16-.36.3-.7l.28-.72L10.12 65h2.36v.6q-.56 0-.84.32t-.16 1.12l.92 6.08q.06.58 0 1.1l1.3-.04V75H9.66v-.6q.62.02.9-.38.3-.42.16-1.32l-.78-5.14L6.88 75h-.8L3.7 69.2q-.18-.46-.38-.92l-.36-.92-.12.92q-.04.46-.1.92l-.48 3.86a4 4 0 0 1-.1.6q-.06.32-.14.56l1.26-.04V75zm19.126-9.4q-.62 0-.86.32-.24.3-.28.86-.04.54-.06 1.26l-.02 4.84q0 .4-.02.72 0 .3-.06.64l1.26-.06V75h-4.08v-.6q.62 0 .86-.3.24-.32.28-.86.06-.56.06-1.28v-5.54q.02-.32.08-.66l-1.26.06V65h4.1zm6.56 0q-.6 0-.86.32-.24.3-.28.86-.02.54-.04 1.26l-.02 4.84q0 .4-.02.72 0 .3-.06.64l1.26-.06V75h-4.08v-.6q.62 0 .86-.3.24-.32.28-.86.04-.56.04-1.28l.02-4.84v-.7q.02-.32.08-.66l-1.26.06V65h4.08zm-8.48 3.88h6.28v.78l-6.28.08zm15.081 5.84q-1.38 0-2.5-.64a4.7 4.7 0 0 1-1.74-1.84q-.64-1.2-.64-2.82 0-1.4.62-2.62a5.15 5.15 0 0 1 1.78-1.96q1.14-.76 2.64-.76.84 0 1.56.28a3.4 3.4 0 0 1 1.3.82q.56.54.88 1.38.32.82.32 1.94l-7.04.12q0 1.52.32 2.68.34 1.14 1.08 1.78.74.62 1.9.62a3.9 3.9 0 0 0 1.26-.22q.66-.22 1.22-.6t.9-.84l.48.4a4.5 4.5 0 0 1-1.3 1.34 5.5 5.5 0 0 1-1.56.72 5.6 5.6 0 0 1-1.48.22m-2.76-6.94h5.1q0-.72-.22-1.38a2.3 2.3 0 0 0-.68-1.1q-.48-.44-1.26-.44-1.16 0-1.94.7-.76.68-1 2.22m18.134-2.78q-.62 0-.86.32-.24.3-.28.86-.04.54-.06 1.26l-.02 4.84q0 .4-.02.72 0 .3-.06.64.32-.02.62-.02l.64-.04V75h-4.08v-.6q.62 0 .86-.3.24-.32.28-.86.06-.56.06-1.28v-5.54q.02-.32.08-.66l-.64.04q-.3 0-.62.02V65h4.1zm3.92.36.64.48-6.14 7.7-.68-.56zm2.74-.36q-.6 0-.86.32-.24.3-.28.86-.04.54-.04 1.26l-.04 4.84q0 .4-.02.72 0 .3-.04.64.32-.02.62-.02l.64-.04V75h-4.1v-.6q.62 0 .86-.3.24-.32.28-.86.06-.56.06-1.28l.02-4.84v-.7q.02-.32.08-.66l-.64.04q-.3 0-.62.02V65h4.08zm6.639 9.72q-1.34 0-2.48-.6a4.75 4.75 0 0 1-1.8-1.76q-.66-1.16-.66-2.78 0-1.04.38-2.02a5.9 5.9 0 0 1 1.06-1.76 5.1 5.1 0 0 1 1.66-1.26 4.84 4.84 0 0 1 2.12-.46q1.12 0 1.94.34.84.34 1.3.9t.46 1.22q0 .44-.24.76-.24.3-.7.3-.5.02-.72-.3-.2-.34-.2-.6 0-.2.06-.4.06-.22.24-.4a1.2 1.2 0 0 0-.56-.7 2.2 2.2 0 0 0-.84-.3 4 4 0 0 0-.7-.08q-1.36 0-2.3 1.1-.92 1.08-.92 3.16 0 1.34.42 2.38.44 1.04 1.22 1.64.78.58 1.8.58a3.53 3.53 0 0 0 1.8-.5q.86-.5 1.34-1.22l.52.4a4.6 4.6 0 0 1-1.26 1.36q-.72.52-1.5.76-.76.24-1.44.24m5.764-.32v-.6q.62 0 .86-.3.24-.32.28-.86.06-.56.06-1.28v-5.54q.02-.32.08-.66l-1.26.06V65h10.52v.6q-.6 0-.86.32-.24.3-.28.86-.04.54-.04 1.26l-.04 4.84q0 .4-.02.72 0 .3-.06.64l1.26-.06V75h-4.1v-.6q.62 0 .86-.3.24-.32.28-.86.06-.56.06-1.28l.02-4.84v-.7q.02-.32.08-.66l-3.56.04q-.62 0-.86.26t-.28.76a24 24 0 0 0-.06 1.22l-.02 4.84q0 .4-.02.72 0 .3-.06.64l1.26-.06V75zm17.265.32q-1.4 0-2.54-.64a5 5 0 0 1-1.82-1.8q-.66-1.16-.66-2.64 0-1.58.66-2.84t1.8-1.98q1.14-.74 2.56-.74 1.4 0 2.54.68 1.14.66 1.82 1.8t.68 2.6q0 1.54-.68 2.82a5.2 5.2 0 0 1-1.8 2q-1.14.74-2.56.74m.16-.8q1.06 0 1.68-.6t.88-1.56q.28-.96.28-2.02 0-.9-.18-1.76a5.6 5.6 0 0 0-.52-1.58 3.1 3.1 0 0 0-.94-1.14q-.56-.42-1.36-.42-1.04 0-1.7.6t-.98 1.56q-.3.96-.3 2.06 0 1.24.34 2.36.34 1.1 1.04 1.8t1.76.7m7.34.7q-.72 0-1.12-.28a.95.95 0 0 1-.38-.78q0-.44.22-.72.219-.28.66-.3.48 0 .68.24.22.24.22.48 0 .06-.02.16 0 .08-.02.14.12.04.18.04.399 0 .84-.8t.8-2.64q.38-1.86.52-4.98l-1.88.08V65h8.619v.6q-.6 0-.86.32-.24.3-.28.86-.04.54-.04 1.26v4.84q-.02.4-.04.72-.02.3-.08.64l1.26-.06V75h-4.08v-.6q.62 0 .86-.3.24-.32.28-.86.06-.56.08-1.28v-5.54q.02-.32.08-.66h-1.76q-.68 0-.94.44-.24.42-.24 1.14a29 29 0 0 1-.3 2.82q-.2 1.4-.6 2.54t-1.06 1.84q-.64.68-1.6.68m15.195-9.62q-.62 0-.86.32-.24.3-.28.86-.039.54-.06 1.26l-.02 4.84q0 .4-.02.72 0 .3-.06.64l1.26-.06V75h-4.08v-.6q.62 0 .86-.3.24-.32.28-.86.06-.56.06-1.28v-5.54a6 6 0 0 1 .08-.66l-1.26.06V65h4.1zm6.56 0q-.6 0-.86.32-.24.3-.28.86-.02.54-.04 1.26l-.02 4.84q0 .4-.02.72 0 .3-.06.64l1.26-.06V75h-4.08v-.6q.62 0 .86-.3.24-.32.28-.86.04-.56.04-1.28l.02-4.84v-.7a6 6 0 0 1 .08-.66l-1.26.06V65h4.08zm-8.48 3.88h6.28v.78l-6.28.08zm14.362-3.88q-.62 0-.86.32-.24.3-.28.86-.04.54-.06 1.26l-.02 4.84q0 .4-.02.72 0 .3-.06.64.32-.02.62-.02l.64-.04V75h-4.08v-.6q.62 0 .86-.3.24-.32.28-.86.06-.56.06-1.28v-5.54q.02-.32.08-.66l-.64.04q-.3 0-.62.02V65h4.1zm3.92.36.64.48-6.14 7.7-.68-.56zm2.74-.36q-.6 0-.86.32-.24.3-.28.86-.04.54-.04 1.26l-.04 4.84q0 .4-.02.72 0 .3-.04.64.32-.02.62-.02l.64-.04V75h-4.1v-.6q.62 0 .86-.3.24-.32.28-.86.06-.56.06-1.28l.02-4.84v-.7q.02-.32.08-.66l-.64.04q-.3 0-.62.02V65h4.08zm3.759 9.4v-.6q.62 0 .86-.3.24-.32.28-.86.06-.56.06-1.28v-5.5q.02-.28.08-.62h-1.42q-.8 0-1.18.46-.36.46-.36 1.72h-.76l.08-3.02h8.84l.1 3.02h-.76q-.02-1.26-.38-1.72-.34-.46-1.28-.46h-1.24v7.04q0 .4-.02.72 0 .3-.06.64l1.26-.06V75zm12.782.32q-1.34 0-2.48-.6a4.74 4.74 0 0 1-1.8-1.76q-.66-1.16-.66-2.78 0-1.04.38-2.02a5.9 5.9 0 0 1 1.06-1.76 5.1 5.1 0 0 1 1.66-1.26 4.84 4.84 0 0 1 2.12-.46q1.12 0 1.94.34.84.34 1.3.9t.46 1.22q0 .44-.24.76-.24.3-.7.3-.5.02-.72-.3-.2-.34-.2-.6 0-.2.06-.4.06-.22.24-.4-.16-.48-.56-.7a2.2 2.2 0 0 0-.84-.3 4 4 0 0 0-.7-.08q-1.36 0-2.3 1.1-.92 1.08-.92 3.16 0 1.34.42 2.38.44 1.04 1.22 1.64.78.58 1.8.58.94 0 1.8-.5t1.34-1.22l.52.4a4.6 4.6 0 0 1-1.26 1.36q-.72.52-1.5.76a4.8 4.8 0 0 1-1.44.24m5.225-.32v-.6q.459 0 .78-.24.34-.26.7-.74.38-.48.94-1.18l.72-.9q.22-.28.44-.4.219-.14.48-.22-1.52-.26-2.14-1.02a2.73 2.73 0 0 1-.6-1.74q0-.96.46-1.62.459-.66 1.2-1a3.9 3.9 0 0 1 1.62-.34h5.06v.6q-.48 0-.74.22a1.03 1.03 0 0 0-.36.58q-.1.36-.1.9v5.58q0 .4-.02.72 0 .3-.06.64l1.26-.06V75h-4.08v-.6q.78 0 .98-.52.2-.54.2-1.26V71l-1.38.02a4.7 4.7 0 0 0-.56.64q-.3.4-.58.8-.26.4-.44.66-.501.7-1.08 1.3-.58.58-1.12.58zm5.32-4.72h.76l.66-.04v-3.96q.02-.28.04-.46a5 5 0 0 0-.82-.02h-.64q-.92 0-1.58.48-.64.48-.64 1.64 0 .98.58 1.68.6.68 1.64.68M164.464 75q0-1.06.32-1.88a6 6 0 0 1 .9-1.5q.561-.7 1.26-1.34.72-.66 1.46-1.38 1.3-1.24 1.88-2.3t.58-2.04a4.8 4.8 0 0 0-.22-1.46 2.33 2.33 0 0 0-.74-1.18q-.54-.46-1.5-.46-.82 0-1.46.42-.64.4-.86 1 .2.2.28.44.08.22.08.44 0 .18-.1.4a.8.8 0 0 1-.3.38q-.22.16-.58.16-.44-.02-.68-.34a1.23 1.23 0 0 1-.24-.76q0-.42.26-.92.261-.52.78-.96a4.2 4.2 0 0 1 1.32-.74q.78-.3 1.82-.3.8 0 1.54.2.76.18 1.36.6t.94 1.12q.36.68.36 1.7 0 .5-.22 1.08-.2.58-.68 1.26-.459.66-1.2 1.42-.74.74-1.82 1.62-1.36 1.12-2.24 2.12-.86.98-1 1.68l3.54.1q.98.02 1.72 0 .76-.02 1.18-.3.44-.3.44-1.08h.6l-.12 2.8zm16.043.32q-1.521 0-2.52-.64a4.6 4.6 0 0 1-1.56-1.72 8.5 8.5 0 0 1-.8-2.36q-.22-1.28-.22-2.54t.28-2.56q.3-1.3.92-2.38a5.1 5.1 0 0 1 1.6-1.76q.98-.68 2.38-.68 1.46 0 2.42.66a4.64 4.64 0 0 1 1.54 1.74q.58 1.06.82 2.34t.24 2.54q0 1.24-.28 2.54a8.9 8.9 0 0 1-.88 2.4q-.6 1.08-1.58 1.76-.96.66-2.36.66m.12-.78q.86 0 1.42-.54t.88-1.44q.339-.9.48-1.98.14-1.1.14-2.2 0-1.22-.14-2.44a11 11 0 0 0-.48-2.24q-.34-1.02-.92-1.64t-1.46-.62q-.86 0-1.46.54-.58.54-.94 1.44a8.7 8.7 0 0 0-.52 2q-.16 1.1-.16 2.22 0 .84.08 1.78t.28 1.86q.22.9.58 1.64t.9 1.18 1.32.44m12.975.68q-.72 0-1.12-.28a.95.95 0 0 1-.38-.78q0-.44.22-.72t.66-.3q.48 0 .68.24.22.24.22.48 0 .06-.02.16 0 .08-.02.14.12.04.18.04.4 0 .84-.8t.8-2.64q.38-1.86.52-4.98l-1.88.08V65h8.62v.6q-.6 0-.86.32-.24.3-.28.86-.04.54-.04 1.26v4.84q-.02.4-.04.72-.02.3-.08.64l1.26-.06V75h-4.08v-.6q.62 0 .86-.3.24-.32.28-.86.06-.56.08-1.28v-5.54a6 6 0 0 1 .08-.66h-1.76q-.68 0-.94.44-.24.42-.24 1.14a28 28 0 0 1-.3 2.82q-.2 1.4-.6 2.54t-1.06 1.84q-.64.68-1.6.68m15.916.1q-1.38 0-2.5-.64a4.73 4.73 0 0 1-1.74-1.84q-.64-1.2-.64-2.82 0-1.4.62-2.62a5.15 5.15 0 0 1 1.78-1.96q1.14-.76 2.64-.76.84 0 1.56.28.74.26 1.3.82.56.54.88 1.38.32.82.32 1.94l-7.04.12q0 1.52.32 2.68.34 1.14 1.08 1.78.74.62 1.9.62.621 0 1.26-.22.66-.22 1.22-.6.561-.38.9-.84l.48.4a4.5 4.5 0 0 1-1.3 1.34 5.5 5.5 0 0 1-1.56.72 5.6 5.6 0 0 1-1.48.22m-2.76-6.94h5.1q0-.72-.22-1.38a2.27 2.27 0 0 0-.68-1.1q-.48-.44-1.26-.44-1.16 0-1.94.7-.76.68-1 2.22m10.76 6.62v-.6q.62 0 .86-.3.24-.32.28-.86.06-.56.06-1.28v-5.5a6 6 0 0 1 .08-.62h-1.42q-.8 0-1.18.46-.36.46-.36 1.72h-.76l.08-3.02h8.84l.1 3.02h-.76q-.02-1.26-.38-1.72-.34-.46-1.28-.46h-1.24v7.04q0 .4-.02.72 0 .3-.06.64l1.26-.06V75zm9.463.32q-.46 0-.82-.36a1.33 1.33 0 0 1-.34-.92q0-.54.36-.92t.82-.38q.5 0 .82.38.34.38.34.92t-.36.92q-.36.36-.82.36M.001 101v-.66q.559 0 .92-.2a2.4 2.4 0 0 0 .7-.64q.34-.44.76-1.06l1.54-2.32q.378-.54.72-.84.34-.3.82-.44-1.44-.34-2.4-1.34-.96-1.02-.96-2.72 0-1.18.48-2.02.498-.86 1.5-1.3 1-.46 2.5-.46h5.34v.66q-.72.02-1.02.34-.282.3-.32.84-.041.54-.04 1.28v8.64q-.001.4-.02.78 0 .36-.04.66l1.44-.08v.88h-4.5v-.66q.759-.04 1.04-.34.279-.32.3-.86.04-.56.04-1.26v-2.74l-1.78.02a3.6 3.6 0 0 0-.78.62q-.321.36-.54.7l-1.5 2.3q-.282.44-.6.9-.322.46-.64.82-.3.34-.6.5zm7.24-6.58q.579 0 1.02-.02.438-.02.54-.04v-5a18 18 0 0 1 .06-1.56q-.461-.04-.88-.04h-.74q-.921 0-1.66.36-.742.34-1.18 1.06-.42.7-.42 1.8 0 1 .44 1.78.439.78 1.18 1.22.739.44 1.64.44m16.49 6.88a4.25 4.25 0 0 1-2.34-.68q-1.04-.7-1.66-2.08-.62-1.4-.62-3.52 0-1.76.36-3.3.38-1.54 1.18-2.66a4.6 4.6 0 0 1 2.14-1.64 4.6 4.6 0 0 1 1.02-.28q.52-.1 1.04-.16.54-.08 1.06-.22.52-.16.78-.34.28-.18.44-.62l.7.22q-.14.64-.28 1.1a1.84 1.84 0 0 1-.46.78q-.3.32-1 .56-.54.18-1.1.28t-1.08.18q-.52.06-1 .2-1.52.46-2.22 1.8-.68 1.32-.66 3.04h.14q.46-1.18 1.4-1.88.96-.7 2.42-.7 1.26 0 2.26.54 1 .52 1.58 1.56.6 1.02.6 2.52 0 1.6-.64 2.8-.62 1.2-1.7 1.86a4.47 4.47 0 0 1-2.36.64m.08-.76q.98 0 1.56-.56.6-.58.86-1.5t.26-1.92q0-1.1-.3-2.12-.28-1.02-.92-1.68-.62-.66-1.64-.66-.9 0-1.48.54t-.88 1.42a6 6 0 0 0-.28 1.86q0 1.44.32 2.48.32 1.02.94 1.58.64.56 1.56.56m7.603 5.88q-.62 0-1.06-.3t-.44-.92q0-.36.24-.66t.62-.3q.48-.02.64.3.18.32.18.56v.12a.7.7 0 0 1-.02.16q.06.04.22.04.24 0 .52-.2t.5-.58q.26-.44.6-1.32.36-.88.8-2.1l-3.12-6.68q-.52-1.12-.76-1.78-.22-.66-.3-.98l-.96.04V91h4.14v.6h-.08q-.84.06-.92.64-.08.56.46 1.72l2.34 5.02q.46-1.28.88-2.52.42-1.26.84-2.5.16-.44.32-.9.18-.48.34-.84.18-.38.32-.48l-1.38.08V91h3.14v.6a2.1 2.1 0 0 0-1.12.94q-.36.64-.74 1.66l-2.5 6.98q-.6 1.68-1.1 2.84-.5 1.18-1.1 1.78-.6.62-1.5.62M40 104.56v-4.32h.82q.48 0 .8-.22.32-.24.62-1.04.22-.6.38-1.32.18-.72.3-1.6.12-.9.2-1.96t.12-2.32l-1.76.08V91h8.84v.6q-.62 0-.86.32-.24.3-.28.86-.04.54-.04 1.26v4.84q-.02.4-.04.72-.02.3-.08.64l1.82-.08v4.4h-.76q0-1.64-.34-2.6-.32-.96-1.32-.96h-5.98q-.98 0-1.34.94-.34.96-.34 2.62zm2.62-4.32h3.58q.62 0 .86-.3.26-.32.3-.86.06-.56.06-1.28v-5.38q.02-.32.06-.66H45.4q-.62 0-.86.36-.22.36-.3.98a33 33 0 0 1-.28 2.52q-.16 1.16-.34 2.06-.16.88-.34 1.38-.14.38-.3.68a3 3 0 0 1-.36.5m11.177 6.18q-.62 0-1.06-.3t-.44-.92q0-.36.24-.66t.62-.3q.48-.02.64.3.18.32.18.56v.12a.7.7 0 0 1-.02.16q.06.04.22.04.24 0 .52-.2t.5-.58q.26-.44.6-1.32.36-.88.8-2.1l-3.12-6.68q-.52-1.12-.76-1.78-.22-.66-.3-.98l-.96.04V91h4.14v.6h-.08q-.84.06-.92.64-.08.56.46 1.72l2.34 5.02q.46-1.28.88-2.52.42-1.26.84-2.5.16-.44.32-.9.18-.48.34-.84.18-.38.32-.48l-1.38.08V91h3.14v.6a2.1 2.1 0 0 0-1.12.94q-.36.64-.74 1.66l-2.5 6.98q-.6 1.68-1.1 2.84-.5 1.18-1.1 1.78-.6.62-1.5.62m19.24-5.1q-1.4 0-2.54-.64a5 5 0 0 1-1.82-1.8q-.66-1.16-.66-2.64 0-1.58.66-2.84t1.8-1.98q1.14-.74 2.56-.74 1.4 0 2.54.68 1.14.66 1.82 1.8t.68 2.6q0 1.54-.68 2.82a5.2 5.2 0 0 1-1.8 2q-1.14.74-2.56.74m.16-.8q1.059 0 1.68-.6.62-.6.88-1.56a7.2 7.2 0 0 0 .28-2.02q0-.9-.18-1.76a5.6 5.6 0 0 0-.52-1.58 3.1 3.1 0 0 0-.94-1.14q-.56-.42-1.36-.42-1.04 0-1.7.6t-.98 1.56q-.3.96-.3 2.06 0 1.24.34 2.36.34 1.1 1.04 1.8t1.76.7m11.879.48v-.6q.62 0 .86-.3.24-.32.28-.86.04-.56.04-1.28v-1.14q-.58.14-1.2.22-.62.06-1.06.06-1.88 0-2.74-.96-.84-.98-.84-2.84 0-.4.02-.82.02-.44.06-.72l-1.26.06V91h4.08v.6q-.68 0-.92.48-.24.46-.26 1.74 0 1 .54 1.64.56.62 1.68.62.4 0 .9-.06.52-.06 1-.18l.02-2.72v-.7q.02-.32.08-.66l-1.26.06V91h4.08v.6q-.6 0-.84.32-.24.3-.28.86-.04.54-.06 1.26l-.02 4.84q0 .4-.02.72 0 .3-.06.64l1.26-.06v.82zm10.692.32q-1.38 0-2.5-.64a4.7 4.7 0 0 1-1.74-1.84q-.64-1.2-.64-2.82 0-1.4.62-2.62a5.15 5.15 0 0 1 1.78-1.96q1.14-.76 2.64-.76.84 0 1.56.28a3.4 3.4 0 0 1 1.3.82q.56.54.88 1.38.32.82.32 1.94l-7.04.12q0 1.52.32 2.68.34 1.14 1.08 1.78.74.62 1.9.62a3.9 3.9 0 0 0 1.26-.22q.66-.22 1.22-.6.561-.38.9-.84l.48.4a4.45 4.45 0 0 1-1.3 1.34 5.5 5.5 0 0 1-1.56.72 5.6 5.6 0 0 1-1.48.22m-2.76-6.94h5.1q0-.72-.22-1.38a2.3 2.3 0 0 0-.68-1.1q-.48-.44-1.26-.44-1.16 0-1.94.7-.76.68-1 2.22m12.88-2.78q-.62 0-.86.32-.24.3-.28.86-.039.54-.06 1.26l-.02 4.84q0 .4-.02.72 0 .3-.06.64l1.26-.06v.82h-4.08v-.6q.62 0 .86-.3.24-.32.28-.86.06-.56.06-1.28v-5.54a6 6 0 0 1 .08-.66l-1.26.06V91h4.1zm6.56 0q-.6 0-.86.32-.24.3-.28.86-.02.54-.04 1.26l-.02 4.84q0 .4-.02.72 0 .3-.06.64l1.26-.06v.82h-4.08v-.6q.62 0 .86-.3.24-.32.28-.86.04-.56.04-1.28l.02-4.84v-.7a6 6 0 0 1 .08-.66l-1.26.06V91h4.08zm-8.48 3.88h6.28v.78l-6.28.08zM114.21 101v-.6q.74-.02.96-.46.24-.46.24-1.24v-6.28q.02-.32.08-.66l-.64.04q-.3 0-.62.02V91h4.08v.6q-.6 0-.86.28a1.22 1.22 0 0 0-.28.7q-.04.4-.04.78v1.84l1.24-.04q1.62-.04 2.54.36.939.38 1.32 1.06.4.66.4 1.46 0 .96-.46 1.62-.44.66-1.18 1a3.8 3.8 0 0 1-1.62.34zm2.88-.82q.219.02.54.02h1.02q.92 0 1.56-.48.66-.48.66-1.64 0-1.02-.6-1.58-.58-.58-1.62-.58-.44 0-.82.02-.36 0-.7.02v3.1q0 .38-.02.66a4 4 0 0 1-.02.46m12.33 5.92v-.6q.62 0 .86-.32.24-.3.28-.86.04-.54.04-1.26l.04-9.66v-.64a6 6 0 0 1 .08-.66l-.72.04-.7.04v-.84q.88 0 1.32-.08.46-.08.66-.2.22-.12.36-.26h.6q.02.2.04.48.02.26.04.6.6-.54 1.42-.86.84-.34 1.68-.34 1.161 0 2.16.6T139.2 93q.62 1.1.62 2.64 0 1.7-.72 2.98-.699 1.28-1.86 2-1.16.7-2.52.7-.7 0-1.3-.18a4.3 4.3 0 0 1-1.1-.48v3.32q0 .4-.02.7 0 .32-.06.66l.62-.04q.32 0 .64-.02v.82zm5.26-5.58q.96 0 1.64-.58.7-.6 1.06-1.62.38-1.04.38-2.36 0-1.08-.32-2.06-.3-1-.98-1.62-.66-.62-1.76-.62-.68 0-1.32.34-.62.32-1.04.78v.24q.02.14.02.52v1.1q0 .72-.02 1.96v3.14a3.9 3.9 0 0 0 1.08.58q.6.2 1.26.2m12.934.48a6 6 0 0 1-.08-.6 10 10 0 0 0-.06-.54 5.7 5.7 0 0 1-1.48 1.08q-.78.38-1.66.38-1.52 0-2.26-.68a2.25 2.25 0 0 1-.74-1.7q0-.92.56-1.58.58-.68 1.48-1.1a8 8 0 0 1 1.98-.64 9.5 9.5 0 0 1 2.08-.2v-1.24q0-.7-.12-1.32a1.9 1.9 0 0 0-.52-1.02q-.4-.4-1.28-.42a3 3 0 0 0-1.2.22q-.6.24-.88.82a.7.7 0 0 1 .2.38q.06.2.06.38 0 .24-.2.56-.2.3-.7.28-.42 0-.64-.28a1.15 1.15 0 0 1-.22-.7q0-.68.5-1.22.52-.54 1.42-.86t2.04-.32q1.68 0 2.48.9.8.88.78 2.8v1.5q0 .74-.02 1.5v1.5q0 .32-.02.64-.021.32-.06.72l.7-.04.72-.04v.84zm-.18-4.9a8 8 0 0 0-1.44.18q-.741.14-1.38.44a2.9 2.9 0 0 0-1.02.8q-.381.48-.36 1.18.039.74.48 1.12.459.36 1.08.36.82 0 1.42-.3.62-.32 1.22-.88a5 5 0 0 1-.02-.48v-1.18q.02-.54.02-1.24m3.972 8.46v-4.32h.82q.48 0 .8-.22.32-.24.62-1.04.22-.6.38-1.32.18-.72.3-1.6.12-.9.2-1.96t.12-2.32l-1.76.08V91h8.84v.6q-.62 0-.86.32-.24.3-.28.86-.04.54-.04 1.26v4.84q-.02.4-.04.72-.02.3-.08.64l1.82-.08v4.4h-.76q0-1.64-.34-2.6-.32-.96-1.32-.96h-5.98q-.98 0-1.34.94-.34.96-.34 2.62zm2.62-4.32h3.58q.62 0 .86-.3.261-.32.3-.86.06-.56.06-1.28v-5.38q.021-.32.06-.66h-2.08q-.62 0-.86.36-.219.36-.3.98a33 33 0 0 1-.28 2.52 35 35 0 0 1-.34 2.06q-.16.88-.34 1.38-.14.38-.3.68a2.8 2.8 0 0 1-.36.5m15.717.76a6 6 0 0 1-.08-.6 10 10 0 0 0-.06-.54 5.7 5.7 0 0 1-1.48 1.08q-.78.38-1.66.38-1.52 0-2.26-.68a2.25 2.25 0 0 1-.74-1.7q0-.92.56-1.58.58-.68 1.48-1.1a8 8 0 0 1 1.98-.64 9.5 9.5 0 0 1 2.08-.2v-1.24q0-.7-.12-1.32a1.9 1.9 0 0 0-.52-1.02q-.4-.4-1.28-.42a3 3 0 0 0-1.2.22q-.6.24-.88.82a.7.7 0 0 1 .2.38q.06.2.06.38 0 .24-.2.56-.2.3-.7.28-.42 0-.64-.28a1.15 1.15 0 0 1-.22-.7q0-.68.5-1.22.52-.54 1.42-.86t2.04-.32q1.68 0 2.48.9.8.88.78 2.8v1.5q0 .74-.02 1.5v1.5q0 .32-.02.64-.021.32-.06.72l.7-.04.72-.04v.84zm-.18-4.9a8 8 0 0 0-1.44.18q-.741.14-1.38.44a2.9 2.9 0 0 0-1.02.8q-.381.48-.36 1.18.039.74.48 1.12.459.36 1.08.36.82 0 1.42-.3.62-.32 1.22-.88a5 5 0 0 1-.02-.48v-1.18q.02-.54.02-1.24m5.892 8.48-.54-.4a4 4 0 0 0 .46-.8q.24-.52.38-1.16.16-.62.08-1.22-.14.06-.26.08a.8.8 0 0 1-.24.04.9.9 0 0 1-.66-.28 1 1 0 0 1-.26-.7q0-.56.32-.86.34-.3.78-.3.7 0 1.06.54.36.52.36 1.28 0 .5-.2 1.22-.18.72-.52 1.4a4.1 4.1 0 0 1-.76 1.16M5.28 127.32q-1.38 0-2.5-.64a4.7 4.7 0 0 1-1.74-1.84q-.64-1.2-.64-2.82 0-1.4.62-2.62a5.15 5.15 0 0 1 1.78-1.96q1.14-.76 2.64-.76.84 0 1.56.28a3.4 3.4 0 0 1 1.3.82q.56.54.88 1.38.32.82.32 1.94l-7.04.12q0 1.52.32 2.68.34 1.14 1.08 1.78.74.62 1.9.62.62 0 1.26-.22a5 5 0 0 0 1.22-.6 3.6 3.6 0 0 0 .9-.84l.48.4a4.5 4.5 0 0 1-1.3 1.34 5.5 5.5 0 0 1-1.56.72 5.6 5.6 0 0 1-1.48.22m-2.76-6.94h5.1q0-.72-.22-1.38a2.3 2.3 0 0 0-.68-1.1q-.48-.44-1.26-.44-1.16 0-1.94.7-.76.68-1 2.22m13.542 6.94q-1.34 0-2.48-.6a4.75 4.75 0 0 1-1.8-1.76q-.66-1.16-.66-2.78 0-1.04.38-2.02a5.9 5.9 0 0 1 1.06-1.76 5.1 5.1 0 0 1 1.66-1.26 4.84 4.84 0 0 1 2.12-.46q1.12 0 1.94.34.84.34 1.3.9t.46 1.22q0 .44-.24.76-.24.3-.7.3-.5.02-.72-.3-.2-.34-.2-.6 0-.2.06-.4.06-.22.24-.4a1.2 1.2 0 0 0-.56-.7 2.2 2.2 0 0 0-.84-.3 4 4 0 0 0-.7-.08q-1.36 0-2.3 1.1-.92 1.08-.92 3.16 0 1.34.42 2.38.44 1.04 1.22 1.64.78.58 1.8.58.94 0 1.8-.5t1.34-1.22l.52.4a4.6 4.6 0 0 1-1.26 1.36q-.72.52-1.5.76-.759.24-1.44.24m6.525-.1q-.72 0-1.12-.28a.95.95 0 0 1-.38-.78q0-.44.22-.72.219-.28.66-.3.48 0 .68.24.22.24.22.48 0 .06-.02.16 0 .08-.02.14.12.04.18.04.399 0 .84-.8t.8-2.64q.38-1.86.52-4.98l-1.88.08V117h8.62v.6q-.6 0-.86.32-.24.3-.28.86-.04.54-.04 1.26v4.84q-.02.4-.04.72-.02.3-.08.64l1.26-.06v.82h-4.08v-.6q.62 0 .86-.3.24-.32.28-.86.06-.56.08-1.28v-5.54q.02-.32.08-.66h-1.76q-.68 0-.94.44-.24.42-.24 1.14a29 29 0 0 1-.3 2.82q-.201 1.4-.6 2.54-.4 1.14-1.06 1.84-.64.68-1.6.68m15.196-9.62q-.62 0-.86.32-.24.3-.28.86-.04.54-.06 1.26l-.02 4.84q0 .4-.02.72 0 .3-.06.64.32-.02.62-.02l.64-.04v.82h-4.08v-.6q.62 0 .86-.3.24-.32.28-.86.06-.56.06-1.28v-5.54q.02-.32.08-.66l-.64.04q-.3 0-.62.02V117h4.1zm3.92.36.64.48-6.14 7.7-.68-.56zm2.74-.36q-.6 0-.86.32-.24.3-.28.86-.04.54-.04 1.26l-.04 4.84q0 .4-.02.72 0 .3-.04.64.32-.02.62-.02l.64-.04v.82h-4.1v-.6q.62 0 .86-.3.24-.32.28-.86.06-.56.06-1.28l.02-4.84v-.7q.02-.32.08-.66l-.64.04q-.3 0-.62.02V117h4.08zm7.013 9.4v-.6q.74-.02.96-.46.24-.46.24-1.24v-5.78q0-.36.02-.64t.06-.52l-.64.04q-.3 0-.62.02V117h1.38q.84-.02 1.84-.02h2.02q1.4 0 2.28.58.9.56.88 1.72-.02.8-.56 1.5-.52.68-1.66.96 1.36.06 2.06.74.7.66.7 1.68 0 .9-.48 1.54t-1.26.98a4.4 4.4 0 0 1-1.68.32zm2.88-.82q.22.02.58.02h1.12q1.12 0 1.78-.46.68-.48.68-1.52 0-1.06-.74-1.5-.74-.46-1.72-.46-.42 0-.88.02-.441 0-.78.02v2.76q0 .38-.02.66 0 .28-.02.46m.04-4.64 1.5-.02q.82-.02 1.3-.34.48-.34.68-.82.2-.5.18-.98 0-.7-.3-1.06t-.78-.48a3.4 3.4 0 0 0-1-.14q-.72 0-1.16.26-.42.26-.42 1.12zm7.51 5.46v-.6q.74-.02.96-.46.24-.46.24-1.24v-6.28q.02-.32.08-.66l-.64.04q-.3 0-.62.02V117h4.08v.6q-.6 0-.86.28-.24.28-.28.7a8 8 0 0 0-.04.78v1.84l1.02-.04q1.62-.06 2.54.34.939.38 1.32 1.06.4.68.4 1.48 0 .96-.46 1.62-.44.66-1.18 1a3.8 3.8 0 0 1-1.62.34zm2.88-.82q.339.02.66.02h.66q.94 0 1.58-.48.66-.48.66-1.64 0-1.02-.6-1.58-.58-.58-1.64-.58-.42 0-.68.02-.261 0-.6.02v3.1q0 .38-.02.66 0 .28-.02.46m6.08.82v-.6q.62 0 .86-.3.24-.32.28-.86.06-.56.06-1.28l.02-4.84v-.7q.02-.32.08-.66l-.64.04q-.3 0-.62.02V117h4.08v.6q-.6 0-.86.32-.24.3-.28.86-.02.54-.04 1.26l-.04 4.84q0 .4-.02.72 0 .3-.06.64.32-.02.62-.02l.64-.04v.82zm15.717.3a4.25 4.25 0 0 1-2.34-.68q-1.04-.7-1.66-2.08-.62-1.4-.62-3.52 0-1.76.36-3.3.38-1.54 1.18-2.66a4.6 4.6 0 0 1 2.14-1.64 4.6 4.6 0 0 1 1.02-.28q.52-.1 1.04-.16.54-.08 1.06-.22.52-.16.78-.34.28-.18.44-.62l.7.22q-.14.64-.28 1.1a1.84 1.84 0 0 1-.46.78q-.3.32-1 .56-.54.18-1.1.28t-1.08.18q-.52.06-1 .2-1.52.46-2.22 1.8-.68 1.32-.66 3.04h.14q.46-1.18 1.4-1.88.96-.7 2.42-.7 1.26 0 2.26.54a3.8 3.8 0 0 1 1.58 1.56q.6 1.02.6 2.52 0 1.6-.64 2.8-.62 1.2-1.7 1.86a4.47 4.47 0 0 1-2.36.64m.08-.76q.98 0 1.56-.56.6-.58.86-1.5a7 7 0 0 0 .26-1.92q0-1.1-.3-2.12-.28-1.02-.92-1.68-.62-.66-1.64-.66-.9 0-1.48.54t-.88 1.42a6 6 0 0 0-.28 1.86q0 1.44.32 2.48.32 1.02.94 1.58.64.56 1.56.56m7.603 5.88q-.62 0-1.06-.3t-.44-.92q0-.36.24-.66t.62-.3q.48-.02.64.3.18.32.18.56v.12a.7.7 0 0 1-.02.16q.06.04.22.04.24 0 .52-.2t.5-.58q.26-.44.6-1.32.36-.88.8-2.1l-3.12-6.68q-.52-1.12-.76-1.78a15 15 0 0 1-.3-.98l-.96.04V117h4.14v.6h-.08q-.84.06-.92.64-.08.56.46 1.72l2.34 5.02q.46-1.28.88-2.52.42-1.26.84-2.5.16-.44.32-.9.18-.48.34-.84.18-.38.32-.48l-1.38.08V117h3.14v.6q-.74.28-1.12.94-.36.64-.74 1.66l-2.5 6.98q-.6 1.68-1.1 2.84-.5 1.18-1.1 1.78-.6.62-1.5.62m8.586-1.86v-4.32h.82q.48 0 .8-.22.32-.24.62-1.04.22-.6.38-1.32.18-.72.3-1.6.12-.9.2-1.96t.12-2.32l-1.76.08V117h8.84v.6q-.62 0-.86.32-.24.3-.28.86-.04.54-.04 1.26v4.84q-.02.4-.04.72-.02.3-.08.64l1.82-.08v4.4h-.76q0-1.64-.34-2.6-.32-.96-1.32-.96h-5.98q-.98 0-1.34.94-.34.96-.34 2.62zm2.62-4.32h3.58q.62 0 .86-.3.26-.32.3-.86.06-.56.06-1.28v-5.38q.02-.32.06-.66h-2.08q-.62 0-.86.36-.22.36-.3.98-.1 1.34-.28 2.52a35 35 0 0 1-.34 2.06q-.16.88-.34 1.38a5 5 0 0 1-.3.68 3 3 0 0 1-.36.5m14.476 1.08q-1.38 0-2.5-.64a4.7 4.7 0 0 1-1.74-1.84q-.64-1.2-.64-2.82 0-1.4.62-2.62a5.15 5.15 0 0 1 1.78-1.96q1.14-.76 2.64-.76.84 0 1.56.28.74.26 1.3.82.56.54.88 1.38.32.82.32 1.94l-7.04.12q0 1.52.32 2.68.34 1.14 1.08 1.78.74.62 1.9.62.621 0 1.26-.22.66-.22 1.22-.6.561-.38.9-.84l.48.4a4.5 4.5 0 0 1-1.3 1.34 5.5 5.5 0 0 1-1.56.72 5.6 5.6 0 0 1-1.48.22m-2.76-6.94h5.1q0-.72-.22-1.38a2.3 2.3 0 0 0-.68-1.1q-.48-.44-1.26-.44-1.16 0-1.94.7-.76.68-1 2.22m10.76 6.62v-.6q.62 0 .86-.3.24-.32.28-.86.06-.56.06-1.28v-5.5a6 6 0 0 1 .08-.62h-1.42q-.8 0-1.18.46-.36.46-.36 1.72h-.76l.08-3.02h8.84l.1 3.02h-.76q-.02-1.26-.38-1.72-.34-.46-1.28-.46h-1.24v7.04q0 .4-.02.72 0 .3-.06.64l1.26-.06v.82zm12.743.32q-1.38 0-2.5-.64a4.7 4.7 0 0 1-1.74-1.84q-.64-1.2-.64-2.82 0-1.4.62-2.62a5.14 5.14 0 0 1 1.78-1.96q1.14-.76 2.64-.76.84 0 1.56.28.74.26 1.3.82.56.54.88 1.38.32.82.32 1.94l-7.04.12q0 1.52.32 2.68.339 1.14 1.08 1.78.74.62 1.9.62.62 0 1.26-.22.66-.22 1.22-.6t.9-.84l.48.4a4.5 4.5 0 0 1-1.3 1.34 5.5 5.5 0 0 1-1.56.72 5.6 5.6 0 0 1-1.48.22m-2.76-6.94h5.1q0-.72-.22-1.38a2.3 2.3 0 0 0-.68-1.1q-.48-.44-1.26-.44-1.16 0-1.94.7-.76.68-1 2.22m18.893 6.94q-1.34 0-2.48-.6a4.76 4.76 0 0 1-1.8-1.76q-.66-1.16-.66-2.78 0-1.04.38-2.02a5.9 5.9 0 0 1 1.06-1.76 5.1 5.1 0 0 1 1.66-1.26 4.84 4.84 0 0 1 2.12-.46q1.12 0 1.94.34.84.34 1.3.9t.46 1.22q0 .44-.24.76-.24.3-.7.3-.5.02-.72-.3-.2-.34-.2-.6 0-.2.06-.4.06-.22.24-.4a1.2 1.2 0 0 0-.56-.7 2.2 2.2 0 0 0-.84-.3 4 4 0 0 0-.7-.08q-1.36 0-2.3 1.1-.92 1.08-.92 3.16 0 1.34.42 2.38.44 1.04 1.22 1.64.78.58 1.8.58.94 0 1.8-.5t1.34-1.22l.52.4a4.6 4.6 0 0 1-1.26 1.36q-.72.52-1.5.76a4.8 4.8 0 0 1-1.44.24m10.627 0q-1.4 0-2.54-.64a5 5 0 0 1-1.82-1.8q-.66-1.16-.66-2.64 0-1.58.66-2.84t1.8-1.98a4.6 4.6 0 0 1 2.56-.74q1.4 0 2.54.68 1.14.66 1.82 1.8t.68 2.6q0 1.54-.68 2.82a5.2 5.2 0 0 1-1.8 2q-1.14.74-2.56.74m.16-.8q1.06 0 1.68-.6t.88-1.56q.28-.96.28-2.02 0-.9-.18-1.76a5.6 5.6 0 0 0-.52-1.58q-.36-.72-.94-1.14-.56-.42-1.36-.42-1.04 0-1.7.6t-.98 1.56q-.3.96-.3 2.06 0 1.24.34 2.36.34 1.1 1.04 1.8t1.76.7m11.593.48v-.6q.64.02.86-.34.22-.38.3-1l.74-6.2.08-.56q.04-.28.06-.54l-1.22.06V117h2.66l2.64 6.18.32.76.32.76q.16-.36.3-.7l.28-.72 2.58-6.28h2.36v.6q-.56 0-.84.32t-.16 1.12l.92 6.08q.06.58 0 1.1l1.3-.04v.82h-4.04v-.6q.621.02.9-.38.3-.42.16-1.32l-.78-5.14-3.06 7.44h-.8l-2.38-5.8q-.18-.46-.38-.92l-.36-.92-.12.92q-.04.46-.1.92l-.48 3.86a4 4 0 0 1-.1.6q-.06.32-.14.56l1.26-.04v.82zm19.126-9.4q-.62 0-.86.32-.24.3-.28.86-.04.54-.06 1.26l-.02 4.84q0 .4-.02.72 0 .3-.06.64l1.26-.06v.82h-4.08v-.6q.62 0 .86-.3.24-.32.28-.86.06-.56.06-1.28v-5.54q.02-.32.08-.66l-1.26.06V117h4.1zm6.56 0q-.6 0-.86.32-.24.3-.28.86-.02.54-.04 1.26l-.02 4.84q0 .4-.02.72 0 .3-.06.64l1.26-.06v.82h-4.08v-.6q.62 0 .86-.3.24-.32.28-.86.04-.56.04-1.28l.02-4.84v-.7q.02-.32.08-.66l-1.26.06V117h4.08zm-8.48 3.88h6.28v.78l-6.28.08zm15.201 5.84q-1.4 0-2.54-.64a5 5 0 0 1-1.82-1.8q-.66-1.16-.66-2.64 0-1.58.66-2.84t1.8-1.98a4.6 4.6 0 0 1 2.56-.74q1.4 0 2.54.68 1.14.66 1.82 1.8t.68 2.6q0 1.54-.68 2.82a5.2 5.2 0 0 1-1.8 2q-1.14.74-2.56.74m.16-.8q1.06 0 1.68-.6t.88-1.56q.28-.96.28-2.02 0-.9-.18-1.76a5.6 5.6 0 0 0-.52-1.58q-.36-.72-.94-1.14-.56-.42-1.36-.42-1.04 0-1.7.6t-.98 1.56q-.3.96-.3 2.06 0 1.24.34 2.36.34 1.1 1.04 1.8t1.76.7m10.7-8.92q-.62 0-.86.32-.24.3-.28.86-.04.54-.06 1.26l-.02 4.84q0 .4-.02.72 0 .3-.06.64.32-.02.62-.02l.64-.04v.82h-4.08v-.6q.62 0 .86-.3.24-.32.28-.86.06-.56.06-1.28v-5.54q.02-.32.08-.66l-.64.04q-.3 0-.62.02V117h4.1zm3.92.36.64.48-6.14 7.7-.68-.56zm2.74-.36q-.6 0-.86.32-.24.3-.28.86-.04.54-.04 1.26l-.04 4.84q0 .4-.02.72 0 .3-.04.64.32-.02.62-.02l.64-.04v.82h-4.1v-.6q.62 0 .86-.3.24-.32.28-.86.06-.56.06-1.28l.02-4.84v-.7q.02-.32.08-.66l-.64.04q-.3 0-.62.02V117h4.08zm-5.38-2.14q-1.161 0-1.98-.46-.82-.48-.82-1.28 0-.36.2-.62.2-.28.58-.3.34-.02.52.14.18.14.24.34.08.18.08.34t-.04.36a1.1 1.1 0 0 1-.14.36q.1.2.52.3.44.08.84.08t.82-.08q.42-.1.54-.3a1 1 0 0 1-.14-.36 2 2 0 0 1-.04-.36q0-.16.06-.34a.8.8 0 0 1 .26-.34q.18-.16.52-.14a.7.7 0 0 1 .56.3q.22.26.22.62 0 .8-.82 1.28-.82.46-1.98.46M.441 153v-.6q.738-.02.96-.46.24-.46.24-1.24v-5.78q0-.36.02-.64.018-.28.06-.52l-.64.04q-.301 0-.62.02V143h1.38q.839-.02 1.84-.02H5.7q1.398 0 2.28.58.899.56.88 1.72-.02.8-.56 1.5-.521.68-1.66.96 1.358.06 2.06.74.7.66.7 1.68 0 .9-.48 1.54t-1.26.98a4.4 4.4 0 0 1-1.68.32zm2.88-.82q.22.02.58.02h1.12q1.12 0 1.78-.46.679-.48.68-1.52-.001-1.06-.74-1.5-.742-.46-1.72-.46-.42 0-.88.02-.441 0-.78.02v2.76q-.001.38-.02.66-.001.28-.02.46m.04-4.64 1.5-.02q.82-.02 1.3-.34.48-.34.68-.82.198-.5.18-.98 0-.7-.3-1.06t-.78-.48a3.4 3.4 0 0 0-1-.14q-.721 0-1.16.26-.42.26-.42 1.12zm16.723 5.78q-1.24 0-2.14-.34-.88-.34-1.34-.9-.46-.58-.46-1.22 0-.44.24-.74a.86.86 0 0 1 .7-.32q.519-.02.72.32.2.32.2.58a1.6 1.6 0 0 1-.06.42.9.9 0 0 1-.24.38q.219.46.66.7.44.24.9.32.48.06.78.06 1.239 0 2.1-1.1.88-1.1.88-3.16 0-2.32-.82-3.6-.8-1.28-2.2-1.28-.88 0-1.5.4-.6.4-.94 1.06-.32.64-.38 1.38h-.64v-3.5h.84l-.04.82q.72-.46 1.36-.68.66-.24 1.48-.24 1.32 0 2.42.62 1.12.6 1.78 1.76.68 1.14.68 2.76 0 1.04-.34 2.02a5.6 5.6 0 0 1-.96 1.78q-.621.78-1.56 1.24-.92.46-2.12.46m-1.62-4.98v-.86h4.88v.78zM28.768 153v-.6q.62 0 .86-.3.24-.32.28-.86.06-.56.06-1.28v-5.5q.02-.28.08-.62h-1.42q-.8 0-1.18.46-.36.46-.36 1.72h-.76l.08-3.02h8.84l.1 3.02h-.76q-.02-1.26-.38-1.72-.34-.46-1.28-.46h-1.24v7.04q0 .4-.02.72 0 .3-.06.64l1.26-.06v.82zm12.862.32q-1.4 0-2.54-.64a5 5 0 0 1-1.82-1.8q-.66-1.16-.66-2.64 0-1.58.66-2.84t1.8-1.98a4.6 4.6 0 0 1 2.56-.74q1.4 0 2.54.68 1.14.66 1.82 1.8t.68 2.6q0 1.54-.68 2.82a5.2 5.2 0 0 1-1.8 2q-1.14.74-2.56.74m.16-.8q1.06 0 1.68-.6t.88-1.56q.28-.96.28-2.02 0-.9-.18-1.76a5.6 5.6 0 0 0-.52-1.58 3.1 3.1 0 0 0-.94-1.14q-.56-.42-1.36-.42-1.04 0-1.7.6t-.98 1.56q-.3.96-.3 2.06 0 1.24.34 2.36.34 1.1 1.04 1.8t1.76.7m8.58.48v-.6q.62 0 .86-.3.24-.32.28-.86.06-.56.06-1.28v-5.5q.02-.28.08-.62h-1.42q-.8 0-1.18.46-.36.46-.36 1.72h-.76l.08-3.02h8.84l.1 3.02h-.76q-.02-1.26-.38-1.72-.34-.46-1.28-.46h-1.24v7.04q0 .4-.02.72 0 .3-.06.64l1.26-.06v.82zm13.156 0v-.6q.62 0 .86-.3.24-.32.28-.86.06-.56.06-1.28v-5.54q.02-.32.08-.66l-1.26.06V143h10.52v.6q-.6 0-.86.32-.24.3-.28.86-.04.54-.04 1.26l-.04 4.84q0 .4-.02.72 0 .3-.06.64l1.26-.06v.82h-4.1v-.6q.62 0 .86-.3.24-.32.28-.86.06-.56.06-1.28l.02-4.84v-.7q.02-.32.08-.66l-3.56.04q-.62 0-.86.26t-.28.76-.06 1.22l-.02 4.84q0 .4-.02.72 0 .3-.06.64l1.26-.06v.82zm12.125 5.1v-.6q.62 0 .86-.32.24-.3.28-.86.04-.54.04-1.26l.04-9.66v-.64q.02-.32.08-.66l-.72.04-.7.04v-.84q.879 0 1.32-.08.459-.08.66-.2.219-.12.36-.26h.6q.02.2.04.48.02.26.04.6.6-.54 1.42-.86.84-.34 1.68-.34 1.16 0 2.16.6.999.6 1.62 1.72.62 1.1.62 2.64 0 1.7-.72 2.98-.7 1.28-1.86 2-1.161.7-2.52.7-.7 0-1.3-.18a4.3 4.3 0 0 1-1.1-.48v3.32q0 .4-.02.7 0 .32-.06.66l.62-.04q.32 0 .64-.02v.82zm5.26-5.58q.96 0 1.64-.58.7-.6 1.06-1.62.38-1.04.38-2.36 0-1.08-.32-2.06-.3-1-.98-1.62-.66-.62-1.76-.62-.681 0-1.32.34-.62.32-1.04.78v.24q.02.14.02.52v1.1q0 .72-.02 1.96v3.14q.5.38 1.08.58.6.2 1.26.2m12.933.48a6 6 0 0 1-.08-.6 9 9 0 0 0-.06-.54 5.7 5.7 0 0 1-1.48 1.08q-.78.38-1.66.38-1.52 0-2.26-.68a2.25 2.25 0 0 1-.74-1.7q0-.92.56-1.58.58-.68 1.48-1.1a8 8 0 0 1 1.98-.64 9.5 9.5 0 0 1 2.08-.2v-1.24q0-.7-.12-1.32a1.9 1.9 0 0 0-.52-1.02q-.4-.4-1.28-.42a3 3 0 0 0-1.2.22q-.6.24-.88.82a.7.7 0 0 1 .2.38q.06.2.06.38 0 .24-.2.56-.2.3-.7.28-.42 0-.64-.28-.22-.3-.22-.7 0-.68.5-1.22.52-.54 1.42-.86t2.04-.32q1.68 0 2.48.9.801.88.78 2.8v1.5q0 .74-.02 1.5v1.5q0 .32-.02.64t-.06.72l.7-.04.72-.04v.84zm-.18-4.9a8 8 0 0 0-1.44.18q-.74.14-1.38.44-.62.3-1.02.8-.38.48-.36 1.18.04.74.48 1.12a1.7 1.7 0 0 0 1.08.36q.82 0 1.42-.3a5.5 5.5 0 0 0 1.22-.88 5 5 0 0 1-.02-.48v-1.18q.02-.54.02-1.24m8.093 5.22q-1.3 0-2.2-.34-.88-.34-1.34-.84-.44-.52-.44-1.06 0-.5.24-.84a.78.78 0 0 1 .68-.34q.519-.02.72.32.22.32.22.58 0 .2-.08.42a.9.9 0 0 1-.24.38q.279.6.96.82.7.2 1.36.2a2.57 2.57 0 0 0 1.56-.5q.68-.52.68-1.66 0-1.18-.74-1.68-.741-.52-1.74-.52h-.9v-.74h.82q.759 0 1.2-.28.459-.28.66-.76.22-.5.22-1.12 0-.9-.46-1.42t-1.32-.52q-.82 0-1.38.44-.56.42-.88 1.08-.3.64-.34 1.34h-.64v-3.5h.84l-.04.76q.62-.5 1.32-.68.72-.18 1.36-.18 1.44 0 2.4.7.98.68.98 1.86a2.36 2.36 0 0 1-.56 1.54q-.54.66-1.58.94 1.2.1 1.94.8.76.68.76 1.8 0 .9-.52 1.58-.5.66-1.42 1.04-.9.38-2.1.38m5.059 3.24v-4.32h.82q.48 0 .8-.22.32-.24.62-1.04.22-.6.38-1.32.18-.72.3-1.6.12-.9.2-1.96t.12-2.32l-1.76.08V143h8.84v.6q-.62 0-.86.32-.24.3-.28.86-.04.54-.04 1.26v4.84q-.02.4-.04.72-.02.3-.08.64l1.82-.08v4.4h-.76q0-1.64-.34-2.6-.32-.96-1.32-.96h-5.98q-.98 0-1.34.94-.34.96-.34 2.62zm2.62-4.32h3.58q.62 0 .86-.3.261-.32.3-.86.06-.56.06-1.28v-5.38q.021-.32.06-.66h-2.08q-.62 0-.86.36-.219.36-.3.98-.1 1.34-.28 2.52a35 35 0 0 1-.34 2.06q-.16.88-.34 1.38a5 5 0 0 1-.3.68 2.8 2.8 0 0 1-.36.5m13.757-8.64q-.62 0-.86.32-.24.3-.28.86-.04.54-.06 1.26l-.02 4.84q0 .4-.02.72 0 .3-.06.64l1.26-.06v.82h-4.08v-.6q.62 0 .86-.3.24-.32.28-.86.06-.56.06-1.28v-5.54q.02-.32.08-.66l-1.26.06V143h4.1zm6.56 0q-.6 0-.86.32-.24.3-.28.86-.02.54-.04 1.26l-.02 4.84q0 .4-.02.72 0 .3-.06.64l1.26-.06v.82h-4.08v-.6q.62 0 .86-.3.24-.32.28-.86.04-.56.04-1.28l.02-4.84v-.7q.02-.32.08-.66l-1.26.06V143h4.08zm-8.48 3.88h6.28v.78l-6.28.08zm14.361-3.88q-.62 0-.86.32-.24.3-.28.86-.039.54-.06 1.26l-.02 4.84q0 .4-.02.72 0 .3-.06.64.32-.02.62-.02l.64-.04v.82h-4.08v-.6q.62 0 .86-.3.24-.32.28-.86.06-.56.06-1.28v-5.54q.02-.32.08-.66l-.64.04q-.3 0-.62.02V143h4.1zm3.92.36.64.48-6.14 7.7-.68-.56zm2.74-.36q-.6 0-.86.32-.24.3-.28.86-.04.54-.04 1.26l-.04 4.84q0 .4-.02.72 0 .3-.04.64.32-.02.62-.02l.64-.04v.82h-4.1v-.6q.62 0 .86-.3.24-.32.28-.86.06-.56.06-1.28l.02-4.84v-.7q.02-.32.08-.66l-.64.04q-.3 0-.62.02V143h4.08zm7.059 9.4v-.6q.62 0 .86-.3.24-.32.28-.86.04-.56.04-1.28v-1.14q-.579.14-1.2.22-.62.06-1.06.06-1.88 0-2.74-.96-.84-.98-.84-2.84 0-.4.02-.82.021-.44.06-.72l-1.26.06V143h4.08v.6q-.68 0-.92.48-.24.46-.26 1.74 0 1 .54 1.64.561.62 1.68.62.4 0 .9-.06.52-.06 1-.18l.02-2.72v-.7q.02-.32.08-.66l-1.26.06V143h4.08v.6q-.6 0-.84.32-.24.3-.28.86-.039.54-.06 1.26l-.02 4.84q0 .4-.02.72 0 .3-.06.64l1.26-.06v.82zm9.973-9.4q-.62 0-.86.32-.24.3-.28.86-.04.54-.06 1.26l-.02 4.84q0 .4-.02.72 0 .3-.06.64l1.26-.06v.82h-4.08v-.6q.62 0 .86-.3.24-.32.28-.86.06-.56.06-1.28v-5.54q.02-.32.08-.66l-1.26.06V143h4.1zm6.56 0q-.6 0-.86.32-.24.3-.28.86-.02.54-.04 1.26l-.02 4.84q0 .4-.02.72 0 .3-.06.64l1.26-.06v.82h-4.08v-.6q.62 0 .86-.3.24-.32.28-.86.04-.56.04-1.28l.02-4.84v-.7q.02-.32.08-.66l-1.26.06V143h4.08zm-8.48 3.88h6.28v.78l-6.28.08zm10.241 5.52v-.6q.74-.02.96-.46.24-.46.24-1.24v-6.28q.02-.32.08-.66l-.64.04q-.3 0-.62.02V143h4.08v.6q-.6 0-.86.28-.24.28-.28.7a8 8 0 0 0-.04.78v1.84l1.02-.04q1.62-.06 2.54.34.94.38 1.32 1.06.4.68.4 1.48 0 .96-.46 1.62-.44.66-1.18 1a3.8 3.8 0 0 1-1.62.34zm2.88-.82q.34.02.66.02h.66q.94 0 1.58-.48.66-.48.66-1.64 0-1.02-.6-1.58-.58-.58-1.64-.58-.42 0-.68.02-.26 0-.6.02v3.1q0 .38-.02.66 0 .28-.02.46m6.08.82v-.6q.62 0 .86-.3.24-.32.28-.86.06-.56.06-1.28l.02-4.84v-.7q.02-.32.08-.66l-.64.04q-.3 0-.62.02V143h4.08v.6q-.6 0-.86.32-.24.3-.28.86-.02.54-.04 1.26l-.04 4.84q0 .4-.02.72 0 .3-.06.64.32-.02.62-.02l.64-.04v.82zm10.004-9.4q-.62 0-.86.32-.24.3-.28.86-.04.54-.06 1.26l-.02 4.84q0 .4-.02.72 0 .3-.06.64.32-.02.62-.02l.64-.04v.82h-4.08v-.6q.62 0 .86-.3.24-.32.28-.86.06-.56.06-1.28v-5.54q.02-.32.08-.66l-.64.04q-.3 0-.62.02V143h4.1zm3.92.36.64.48-6.14 7.7-.68-.56zm2.74-.36q-.6 0-.86.32-.24.3-.28.86-.04.54-.04 1.26l-.04 4.84q0 .4-.02.72 0 .3-.04.64.32-.02.62-.02l.64-.04v.82h-4.1v-.6q.62 0 .86-.3.24-.32.28-.86.06-.56.06-1.28l.02-4.84v-.7q.02-.32.08-.66l-.64.04q-.3 0-.62.02V143h4.08zm-5.38-2.14q-1.16 0-1.98-.46-.82-.48-.82-1.28 0-.36.2-.62.2-.28.58-.3.34-.02.52.14.18.14.24.34.08.18.08.34t-.04.36a1.1 1.1 0 0 1-.14.36q.1.2.52.3.44.08.84.08t.82-.08q.42-.1.54-.3a1.1 1.1 0 0 1-.14-.36 2 2 0 0 1-.04-.36q0-.16.06-.34a.8.8 0 0 1 .26-.34q.18-.16.52-.14.36.02.56.3.22.26.22.62 0 .8-.82 1.28-.82.46-1.98.46m11.953 15.1v-4.32h.82q.48 0 .8-.22.32-.24.62-1.04.22-.6.38-1.32.18-.72.3-1.6.12-.9.2-1.96t.12-2.32l-1.76.08V143h8.84v.6q-.62 0-.86.32-.24.3-.28.86-.04.54-.04 1.26v4.84q-.02.4-.04.72-.02.3-.08.64l1.82-.08v4.4h-.76q0-1.64-.34-2.6-.321-.96-1.32-.96h-5.98q-.98 0-1.34.94-.34.96-.34 2.62zm2.62-4.32h3.58q.62 0 .86-.3.26-.32.3-.86.06-.56.06-1.28v-5.38q.02-.32.06-.66h-2.08q-.62 0-.86.36-.22.36-.3.98-.1 1.34-.28 2.52a35 35 0 0 1-.34 2.06q-.16.88-.34 1.38-.141.38-.3.68a3 3 0 0 1-.36.5m14.476 1.08q-1.38 0-2.5-.64a4.7 4.7 0 0 1-1.74-1.84q-.64-1.2-.64-2.82 0-1.4.62-2.62a5.15 5.15 0 0 1 1.78-1.96q1.14-.76 2.64-.76.84 0 1.56.28.74.26 1.3.82.56.54.88 1.38.32.82.32 1.94l-7.04.12q0 1.52.32 2.68.34 1.14 1.08 1.78.74.62 1.9.62.621 0 1.26-.22.66-.22 1.22-.6.561-.38.9-.84l.48.4a4.5 4.5 0 0 1-1.3 1.34 5.5 5.5 0 0 1-1.56.72 5.6 5.6 0 0 1-1.48.22m-2.76-6.94h5.1q0-.72-.22-1.38a2.3 2.3 0 0 0-.68-1.1q-.48-.44-1.26-.44-1.16 0-1.94.7-.76.68-1 2.22m12.88-2.78q-.62 0-.86.32-.24.3-.28.86-.04.54-.06 1.26l-.02 4.84q0 .4-.02.72 0 .3-.06.64l1.26-.06v.82h-4.08v-.6q.62 0 .86-.3.24-.32.28-.86.06-.56.06-1.28v-5.54q.02-.32.08-.66l-1.26.06V143h4.1zm6.56 0q-.6 0-.86.32-.24.3-.28.86-.02.54-.04 1.26l-.02 4.84q0 .4-.02.72 0 .3-.06.64l1.26-.06v.82h-4.08v-.6q.62 0 .86-.3.24-.32.28-.86.04-.56.04-1.28l.02-4.84v-.7q.02-.32.08-.66l-1.26.06V143h4.08zm-8.48 3.88h6.28v.78l-6.28.08zm10.241 5.52v-.6q.741-.02.96-.46.24-.46.24-1.24v-6.28q.02-.32.08-.66l-.64.04q-.3 0-.62.02V143h4.08v.6q-.6 0-.86.28-.24.28-.28.7-.04.4-.04.78v1.84l1.24-.04q1.62-.04 2.54.36.94.38 1.32 1.06.4.66.4 1.46 0 .96-.46 1.62-.44.66-1.18 1a3.8 3.8 0 0 1-1.62.34zm2.88-.82q.22.02.54.02h1.02q.921 0 1.56-.48.66-.48.66-1.64 0-1.02-.6-1.58-.579-.58-1.62-.58-.44 0-.82.02-.36 0-.7.02v3.1q0 .38-.02.66 0 .28-.02.46m8.657-3.78-.78-8.26a1.6 1.6 0 0 1 .24-.98q.3-.48.92-.48.64 0 .9.48.28.46.24.98l-.78 8.26zm.36 4.92q-.46 0-.82-.36a1.33 1.33 0 0 1-.34-.92q0-.54.36-.92t.82-.38q.5 0 .82.38.34.38.34.92t-.36.92q-.36.36-.82.36"/></svg>