<svg xmlns="http://www.w3.org/2000/svg" width="251" height="75" fill="none" viewBox="0 0 251 75"><path fill="#833c40" d="M1.43 26v-.858q.989-.052 1.352-.442.364-.416.39-1.118.052-.727.052-1.638V10.712q0-.52.026-.988.026-.495.052-.884l-.936.052-.936.052V7.8h16.926v.858q-.962.026-1.352.442-.364.416-.416 1.118a45 45 0 0 0-.026 1.638v11.05q0 .702-.026 1.222 0 .495-.052.832l.936-.052.936-.052V26H12.48v-.858q.989-.052 1.352-.442.39-.416.416-1.118a23 23 0 0 0 .052-1.638V8.814l-7.02.104q-.78.026-1.17.312a1.3 1.3 0 0 0-.494.728 6.3 6.3 0 0 0-.13 1.092v11.856q0 .702-.026 1.222 0 .495-.052.832l.936-.052.936-.052V26zm19.78-.858q.988-.052 1.351-.442.364-.416.39-1.118a23 23 0 0 0 .052-1.638V10.712q0-.52.026-.988.027-.495.052-.884l-.936.052-.936.052V7.8q1.379-.026 2.834-.026 1.457-.026 2.964-.026 2.522 0 4.238.572t2.626 1.69.988 2.782q.052 1.014-.312 2.132-.337 1.092-1.3 2.08-.936.962-2.652 1.56-1.715.598-4.394.598h-.39a6 6 0 0 1-.546-.026v3.77q0 .702-.026 1.222 0 .495-.052.832l.806-.052q.39-.026.78-.026l.806-.052V26h-6.37zm4.055-7.072q.495.052.832.078h.858q1.483 0 2.704-.572a4.86 4.86 0 0 0 1.95-1.69q.729-1.092.728-2.6 0-1.222-.39-2.08a3.34 3.34 0 0 0-1.118-1.404q-.702-.546-1.69-.78a8.6 8.6 0 0 0-2.184-.26q-.91 0-1.274.39-.338.39-.39 1.092-.026.675-.026 1.612zm17.562-9.412q-.962.026-1.352.442-.365.416-.416 1.118a45 45 0 0 0-.026 1.638v11.05q0 .702-.026 1.222 0 .495-.052.832l.936-.052.936-.052V26h-5.85v-.858q.989-.052 1.352-.442.364-.416.39-1.118a23 23 0 0 0 .052-1.638V10.712q0-.52.026-.988.026-.495.052-.884l-.936.052-.936.052V7.8h5.85zm11.83 0q-.962.026-1.352.442-.365.416-.416 1.118a45 45 0 0 0-.026 1.638v11.05q0 .702-.026 1.222 0 .495-.052.832l.936-.052.936-.052V26h-5.85v-.858q.988-.052 1.352-.442.364-.416.39-1.118a23 23 0 0 0 .052-1.638V10.712q0-.52.026-.988.025-.495.052-.884l-.936.052-.936.052V7.8h5.85zm-3.406.416.728.702L40.07 24.648l-.806-.754zM57.518 26v-.858q.989-.052 1.352-.442.365-.416.39-1.118a23 23 0 0 0 .052-1.638V10.712q0-.52.026-.988.026-.495.052-.884l-.936.052-.936.052V7.8h12.064l.13 4.55h-.962q0-1.534-.468-2.314-.468-.806-1.248-1.066-.78-.285-1.768-.26l-1.898.052q-.961.025-1.326.468-.364.416-.416 1.118a22 22 0 0 0-.052 1.612v10.946q0 .702-.026 1.222 0 .495-.052.832.443-.026.884-.026l.884-.052q.443-.026.884-.026V26zm15.388.416a3 3 0 0 1-1.664-.468q-.728-.495-.728-1.3 0-.572.338-.936a1.3 1.3 0 0 1 .936-.416q.65-.052.962.364.312.39.312.78 0 .443-.26.702.208.208.442.208.442 0 1.014-.754.598-.754 1.144-2.314t.91-3.926q.364-2.392.364-5.642V8.84h-.546l-1.898.104V7.8h12.87v.858q-.962.026-1.352.442-.364.416-.416 1.118a45 45 0 0 0-.026 1.638v11.05q0 .702-.026 1.222 0 .495-.052.832l.936-.052.936-.052V26h-5.876v-.858q.989-.052 1.352-.442.39-.416.416-1.118a23 23 0 0 0 .052-1.638V8.814l-3.666.026q-.936 0-1.17.52-.234.495-.286 1.508 0 2.287-.156 4.524a44 44 0 0 1-.494 4.238q-.338 1.976-.91 3.51-.572 1.535-1.43 2.418-.858.858-2.028.858M88.381 26v-.858q.78 0 1.196-.416t.676-1.144q.285-.728.65-1.69L96.26 7.306h.624l5.798 14.794q.209.546.468 1.404.26.858.208 1.456l.884-.052.884-.052V26h-5.954v-.858q.988-.026 1.3-.442t.234-.988a4.6 4.6 0 0 0-.26-1.04l-.91-2.444-6.76.156-.91 2.782a9 9 0 0 1-.338.988q-.13.364-.312.806l1.014-.052 1.014-.052V26zm4.784-6.734h6.006L97.325 14.3q-.286-.806-.598-1.586l-.572-1.612h-.052q-.26.727-.546 1.456-.26.728-.546 1.482zM106.243 26v-.858q.987-.052 1.352-.442.363-.416.39-1.118.051-.727.052-1.638v-11.05a24 24 0 0 1 .078-2.054l-.936.052-.936.052V7.8h5.85v.858q-.962.026-1.352.442-.365.416-.416 1.118a44 44 0 0 0-.026 1.638V24.96l4.732-.026q.727-.052 1.066-.312a1.3 1.3 0 0 0 .494-.728q.13-.468.13-1.066V10.894q0-.702.026-1.196.025-.52.078-.858l-.832.052-.806.052V7.8h5.616v.858q-.963.026-1.352.442-.365.416-.416 1.118a44 44 0 0 0-.026 1.638v11.232q0 .494-.026.936 0 .443-.052.884l4.81-.026q.727-.052 1.066-.312a1.3 1.3 0 0 0 .494-.728q.13-.468.13-1.066V10.894q0-.702.026-1.196.025-.52.078-.858l-.832.052-.806.052V7.8h5.616v.858q-.963.026-1.352.442-.365.416-.416 1.118a44 44 0 0 0-.026 1.638v11.232q0 .52-.026 1.014-.027.468-.078.858l.936-.052.962-.052V26zm35.174-6.734q0-1.145-.312-1.638-.312-.495-.988-.598-.675-.105-1.794-.052l-1.898.078v5.954q0 .702-.026 1.196 0 .495-.052.832l4.966-.078q1.145-.026 1.976-.364.832-.364 1.3-1.248t.468-2.418h.884l-.156 5.07h-13.416v-.858q.989-.052 1.352-.442.364-.416.39-1.118a23 23 0 0 0 .052-1.638V10.712q0-.52.026-.988.027-.495.052-.884l-.936.052-.936.052V7.8h12.506l.13 4.55h-.858q0-1.534-.468-2.314-.467-.806-1.274-1.066-.78-.285-1.768-.26l-2.236.052q-.961.026-1.378.364-.415.338-.52 1.014a15 15 0 0 0-.078 1.716v4.16l4.888.026-.182-2.236h1.144v5.46zM148.543 26v-.858q.989-.052 1.352-.442.364-.416.39-1.118a23 23 0 0 0 .052-1.638V10.712q0-.52.026-.988.027-.495.052-.884l-.936.052-.936.052V7.8h5.85v.858q-.962.026-1.352.442-.363.416-.416 1.118a46 46 0 0 0-.026 1.638v4.316h9.308v-5.46q0-.52.026-.988.027-.495.052-.884l-.936.052-.936.052V7.8h5.85v.858q-.962.026-1.352.442-.363.416-.416 1.118a46 46 0 0 0-.026 1.638v11.05q0 .702-.026 1.222 0 .495-.052.832l.936-.052.936-.052V26h-5.85v-.858q.989-.052 1.352-.442.364-.416.39-1.118a23 23 0 0 0 .052-1.638v-4.732l-9.308.104v5.59q0 .702-.026 1.222 0 .495-.052.832l.936-.052.936-.052V26zM174.68 8.658q-.962.026-1.352.442-.363.416-.416 1.118a46 46 0 0 0-.026 1.638v11.05q0 .702-.026 1.222 0 .495-.052.832l.936-.052.936-.052V26h-5.85v-.858q.989-.052 1.352-.442.364-.416.39-1.118a23 23 0 0 0 .052-1.638V10.712q0-.52.026-.988.027-.495.052-.884l-.936.052-.936.052V7.8h5.85zm11.83 0q-.962.026-1.352.442-.363.416-.416 1.118a46 46 0 0 0-.026 1.638v11.05q0 .702-.026 1.222 0 .495-.052.832l.936-.052.936-.052V26h-5.85v-.858q.989-.052 1.352-.442.364-.416.39-1.118a23 23 0 0 0 .052-1.638V10.712q0-.52.026-.988.027-.495.052-.884l-.936.052-.936.052V7.8h5.85zm-3.406.416.728.702-11.908 14.872-.806-.754zm15.315 10.192q0-1.145-.312-1.638-.312-.495-.988-.598-.675-.105-1.794-.052l-1.898.078v5.954q0 .702-.026 1.196 0 .495-.052.832l4.966-.078q1.145-.026 1.976-.364.832-.364 1.3-1.248t.468-2.418h.884l-.156 5.07h-13.416v-.858q.989-.052 1.352-.442.364-.416.39-1.118a23 23 0 0 0 .052-1.638V10.712q0-.52.026-.988.027-.495.052-.884l-.936.052-.936.052V7.8h12.506l.13 4.55h-.858q0-1.534-.468-2.314-.468-.806-1.274-1.066-.78-.285-1.768-.26l-2.236.052q-.961.026-1.378.364-.415.338-.52 1.014a15 15 0 0 0-.078 1.716v4.16l4.888.026-.182-2.236h1.144v5.46zM212.375 26v-.858q.989-.052 1.352-.442.364-.416.39-1.118a23 23 0 0 0 .052-1.638V10.712q0-.52.026-.988.027-.495.052-.884l-.936.052-.936.052V7.8h5.85v.858q-.962.026-1.352.442-.363.416-.416 1.118a46 46 0 0 0-.026 1.638v4.316h9.308v-5.46q0-.52.026-.988.027-.495.052-.884l-.936.052-.936.052V7.8h5.85v.858q-.962.026-1.352.442-.363.416-.416 1.118a46 46 0 0 0-.026 1.638v11.05q0 .702-.026 1.222 0 .495-.052.832l.936-.052.936-.052V26h-5.85v-.858q.989-.052 1.352-.442.364-.416.39-1.118a23 23 0 0 0 .052-1.638v-4.732l-9.308.104v5.59q0 .702-.026 1.222 0 .495-.052.832l.936-.052.936-.052V26zm18.701 0v-.858q.78 0 1.196-.416.417-.416.676-1.144.287-.728.65-1.69l5.356-14.586h.624l5.798 14.794q.208.546.468 1.404t.208 1.456l.884-.052.884-.052V26h-5.954v-.858q.988-.026 1.3-.442t.234-.988a4.5 4.5 0 0 0-.26-1.04l-.91-2.444-6.76.156-.91 2.782a9 9 0 0 1-.338.988q-.129.364-.312.806l1.014-.052 1.014-.052V26zm4.784-6.734h6.006L240.02 14.3a42 42 0 0 0-.598-1.586l-.572-1.612h-.052q-.26.727-.546 1.456-.26.728-.546 1.482zM78.26 41.56q0 .208-.468.364t-.624.468q-.26 1.145-.572 2.652A957 957 0 0 0 74.776 53h.208q2.756-.104 2.756 1.196 0 .312-.208.312-.052 0-.468-.26-.364-.26-1.456-.26-.52 0-1.04.052-1.925 7.8-4.94 12.116-5.616 8.216-11.96 8.216-2.495 0-4.16-1.456-1.716-1.455-1.716-3.9 0-5.565 7.904-10.66 6.708-4.315 13-5.304.364-1.975 1.196-5.98-3.484 6.188-6.188 6.188-1.612 0-1.612-1.768 0-2.652 2.6-6.5t5.044-4.68q.936-.364 1.716-.364.728 0 1.768.52 1.04.468 1.04 1.092m-2.444.156a2 2 0 0 0-.468-.052q-2.08 0-4.316 2.652-3.172 3.848-3.172 6.292 0 1.092.728 1.092 1.144 0 2.964-2.392 2.548-3.224 4.264-7.592m-3.172 12.272q-3.433.572-8.164 2.964-4.732 2.393-7.28 4.784-3.9 3.744-3.9 7.436 0 2.028 1.3 3.224 1.248 1.248 3.276 1.248 3.224 0 6.344-2.704 2.496-2.132 4.42-5.46 2.756-4.68 4.004-11.492m19.641-6.604q0 .104-.104.312-1.299 2.028-3.9 3.744-2.755 1.82-5.044 1.82-3.276 0-3.276-4.108 0-2.704 2.34-5.928 2.496-3.432 5.148-3.432.52 0 .884.468.417.468.416.988 0 1.613-2.444 3.9-2.184 2.028-4.004 2.704-.364 1.3-.364 2.184 0 2.132 1.924 2.132 1.82 0 4.108-1.508 1.976-1.3 3.38-2.964.365-.52.728-.52.208 0 .208.208m-5.096-5.512q0-.624-.624-.624-.78 0-2.288 2.392-1.3 2.028-1.612 3.172 1.353-.572 2.808-2.028 1.716-1.664 1.716-2.912m11.603 2.08q.156-.156.312-.52t.312-.78q.208-.416.364-.78.208-.416.364-.572.364-.364.832-.364 1.196 0 1.196 1.196 0 .26-.208.624-2.912 4.784-2.912 7.592 0 1.976 1.872 1.976 1.457 0 3.12-1.508 1.144-.989 2.444-2.808 1.092-1.508 1.248-1.508t.156.312q0 .364-.312.884-3.535 5.876-7.332 5.876-2.964 0-2.964-3.744 0-2.08.624-3.9-1.248.312-2.548.728a37 37 0 0 0-2.704.988q-.105.416-.26.832-.155.365-.26.78-.416 2.445-.936 3.328-.52.885-1.196.884-.468 0-.468-.936 0-.208.104-.416.572-1.352 1.144-3.172a64 64 0 0 0 1.144-4.368q.105-.416.208-.988.104-.624.312-1.456.156-.364.728-.728t1.04-.364q.364 0 .364.312 0 .26-.416 1.612-.416 1.3-1.196 3.796a37 37 0 0 1 1.768-.572 54 54 0 0 1 2.444-.78q.364-.052 1.04-.312.26-.572.572-1.144m10.927.624a43 43 0 0 0-1.612 3.64q-.728 1.872-.728 2.86 0 1.82 1.716 1.82 1.091 0 2.444-.884a12.2 12.2 0 0 0 2.444-2.132q-1.353.104-2.288-.468-.885-.572-.936-2.236a2.87 2.87 0 0 1 .364-1.768 4.5 4.5 0 0 1 1.196-1.456 4.8 4.8 0 0 1 1.664-.884q.936-.26 1.664 0 .78.208 1.248 1.04t.364 2.392q-.052.727-.312 1.456 1.196-.572 2.288-1.352a13 13 0 0 0 1.872-1.716l.676.156q-.209.52-.78 1.144a8.7 8.7 0 0 1-1.3 1.144 15 15 0 0 1-1.612 1.092q-.885.52-1.82.884a8.8 8.8 0 0 1-1.508 1.716q-.885.728-1.924 1.3-1.041.572-2.184.936a9.8 9.8 0 0 1-2.132.468q-3.016.312-3.016-3.016 0-1.404.52-3.12t1.3-3.432a37 37 0 0 1 1.768-3.328q.936-1.612 1.768-2.704.207-.26.572-.208.363.053.728.312.363.209.572.572.26.312.26.572 0 .312-.208.572-.156.26-.624.936l-.936 1.404q-.468.728-.936 1.404-.416.675-.572.884m5.512 3.536q.572-1.145.468-1.82-.052-.675-.52-.988-.469-.365-1.144-.312a2.7 2.7 0 0 0-1.248.416q-.572.312-.884.936-.312.572 0 1.404.26.832 1.04 1.04.831.208 1.924-.052.103-.156.156-.312zm30.735-1.3q0 .364-.312.884-1.352 2.235-4.472 4.472-3.328 2.496-5.616 2.496-.468 0-1.404-.052h-1.352q-.209 0-1.56-.364-1.613 4.16-4.368 8.736-3.9 6.344-6.344 6.344-1.3 0-1.3-1.924 0-2.548 4.68-9.464a6091 6091 0 0 1 6.708-9.204v-.312q0-1.872-.052-3.276-1.976 3.224-2.496 3.224-.312 0-.312-.364 0-.208.156-.416 2.288-3.224 2.288-5.772 0-.52-.312-.832-.26-.364-.26-.572t1.612-.208q1.768 0 1.768 3.536 0 .52-.104 1.56a30 30 0 0 0-.052 1.456 35 35 0 0 1 3.224-4.888q2.704-3.328 4.524-3.328 1.664 0 1.664 2.444 0 3.068-2.184 7.124-2.131 4.056-4.68 5.668 4.524-.105 10.036-7.02.208-.26.312-.26.208 0 .208.312m-5.98-4.732q0-1.612-.884-1.612-.26 0-.52.104-1.872.832-3.952 4.836a34 34 0 0 0-2.496 6.084q.52.78 1.82 1.976 2.287-.988 4.212-4.94 1.82-3.744 1.82-6.448m-9.828 9.464q-.052-.052-.104-.052-.208 0-.572.52a555 555 0 0 1-3.744 5.512q-1.092 1.56-2.756 4.732-1.924 3.692-1.924 4.784 0 .468.312.468 2.288 0 6.292-7.488 1.04-1.976 2.236-6.812a2.6 2.6 0 0 1-.052-.52q0-.624.312-1.144m27.568-4.16q0 .105-.104.208-.729 1.248-2.236 2.132-1.456.885-2.86.884a3.7 3.7 0 0 1-1.924-.52q-2.393 3.795-4.94 3.796-1.82 0-1.82-2.132 0-2.964 2.6-6.968a6.3 6.3 0 0 1-.104-1.144q0-1.872 1.248-3.64t3.068-1.768q1.195 0 1.924 1.404.572 1.196.572 2.496 0 2.808-2.184 7.124.78.468 1.768.468 1.715 0 3.224-1.352 1.508-1.352 1.404-1.352.363 0 .364.364m-6.136-3.952q0-1.145-.364-2.34-.52-1.665-1.352-1.664-1.197 0-1.872 1.456-.52 1.144-.468 2.496.831-.988 1.664-.988.78 0 1.144.52v.26q.052.155.052.26 0 .156-.52.156-.936 0-1.976 1.976.675 1.976 2.392 3.224 1.3-3.276 1.3-5.356m-1.716 6.084q-1.716-1.144-2.6-2.652-1.56 3.276-1.56 4.732 0 1.04.78 1.04.727 0 1.924-1.248 1.04-.988 1.456-1.872m6.735-2.756q-.572.624-.884.624-.208 0-.208-.156t.312-.572q.572-1.092 1.196-2.132.675-1.04 1.456-1.82a7.5 7.5 0 0 1 1.768-1.248 4.5 4.5 0 0 1 2.132-.52q3.848 0 3.848 4.108 0 .989-.416 2.028l.208-.208q3.224-2.235 4.16-4.628a1.6 1.6 0 0 0 0-.988 6 6 0 0 0-.104-.364q-.053-.156.052-.208.104-.105.416 0 .312.052.988.364 1.404.572.364 3.796a3.3 3.3 0 0 1-.208.624q-.156.364-.312.78t-.312.78a4 4 0 0 0-.208.572q-.312.832-.52 1.248-.156.365-.364 1.04 1.976-1.56 2.756-1.976.572-1.925 2.6-4.16 2.911-3.068 5.356-3.068 1.664 0 1.664 1.3 0 .52-.78 1.82-.728 1.248-1.196 1.248-.208 0-.208-.26 0-.208.156-.676.207-.468.208-.728 0-1.092-1.352-1.092-1.872 0-3.38 2.444-1.404 2.288-1.404 4.212 0 3.225 2.808 3.224 3.535 0 7.384-4.836.52-.624.884-.624.207 0 .208.156 0 .209-.312.572-1.768 2.6-5.044 4.836-1.924 1.196-3.952 1.196-3.849 0-3.848-4.108v-.416q-2.757 2.028-3.588 4.212-.105.26.156.468.26.209.364.468.051.208.104.364.051.156-.104.208-.105.105-.416 0-.312-.052-.936-.364-1.404-.52-.364-3.796.103-.468.364-1.092.312-.676.416-1.092.312-.832.468-1.508.207-.675.364-1.352-2.913 2.34-3.432 2.184-.209 0-.26-.208-.676 1.56-2.236 3.224-2.913 3.068-5.356 3.068-1.665 0-1.664-1.3 0-.468.78-1.82.675-1.248 1.196-1.248.207 0 .208.26 0 .208-.208.676-.156.468-.156.728 0 1.092 1.352 1.092 1.871 0 3.38-2.444 1.404-2.236 1.404-4.212 0-3.224-2.808-3.224-.885 0-1.56.312-.624.312-1.196.936-.52.572-1.04 1.404-.468.78-1.04 1.768zm39.26-5.2q0 .208-.468.364t-.624.468q-.26 1.145-.572 2.652a987 987 0 0 0-1.82 7.956h.208q2.756-.104 2.756 1.196 0 .312-.208.312-.051 0-.468-.26-.363-.26-1.456-.26-.52 0-1.04.052-1.923 7.8-4.94 12.116-5.615 8.216-11.96 8.216-2.495 0-4.16-1.456-1.716-1.455-1.716-3.9 0-5.565 7.904-10.66 6.709-4.315 13-5.304.365-1.975 1.196-5.98-3.483 6.188-6.188 6.188-1.612 0-1.612-1.768 0-2.652 2.6-6.5t5.044-4.68q.936-.364 1.716-.364.729 0 1.768.52 1.04.468 1.04 1.092m-2.444.156a2 2 0 0 0-.468-.052q-2.08 0-4.316 2.652-3.172 3.848-3.172 6.292 0 1.092.728 1.092 1.144 0 2.964-2.392 2.548-3.224 4.264-7.592m-3.172 12.272q-3.432.572-8.164 2.964t-7.28 4.784q-3.9 3.744-3.9 7.436 0 2.028 1.3 3.224 1.248 1.248 3.276 1.248 3.225 0 6.344-2.704 2.497-2.132 4.42-5.46 2.756-4.68 4.004-11.492m19.642-6.604q0 .104-.104.312-1.3 2.028-3.9 3.744-2.757 1.82-5.044 1.82-3.276 0-3.276-4.108 0-2.704 2.34-5.928 2.496-3.432 5.148-3.432.52 0 .884.468.416.468.416.988 0 1.613-2.444 3.9-2.184 2.028-4.004 2.704-.364 1.3-.364 2.184 0 2.132 1.924 2.132 1.82 0 4.108-1.508 1.976-1.3 3.38-2.964.363-.52.728-.52.208 0 .208.208m-5.096-5.512q0-.624-.624-.624-.78 0-2.288 2.392-1.3 2.028-1.612 3.172 1.352-.572 2.808-2.028 1.716-1.664 1.716-2.912m11.602 2.08q.156-.156.312-.52t.312-.78q.208-.416.364-.78.208-.416.364-.572.364-.364.832-.364 1.196 0 1.196 1.196 0 .26-.208.624-2.912 4.784-2.912 7.592 0 1.976 1.872 1.976 1.456 0 3.12-1.508 1.145-.989 2.444-2.808 1.092-1.508 1.248-1.508t.156.312q0 .364-.312.884-3.535 5.876-7.332 5.876-2.964 0-2.964-3.744 0-2.08.624-3.9-1.248.312-2.548.728t-2.704.988a8 8 0 0 1-.26.832q-.156.365-.26.78-.415 2.445-.936 3.328-.52.885-1.196.884-.468 0-.468-.936 0-.208.104-.416a35 35 0 0 0 1.144-3.172 64 64 0 0 0 1.144-4.368q.105-.416.208-.988.105-.624.312-1.456.156-.364.728-.728.573-.364 1.04-.364.364 0 .364.312 0 .26-.416 1.612-.416 1.3-1.196 3.796a37 37 0 0 1 1.768-.572 54 54 0 0 1 2.444-.78q.365-.052 1.04-.312.26-.572.572-1.144m23.927 2.86q0 .364-.312.884-1.456 2.392-3.38 4.16-2.496 2.288-4.68 2.288-2.912 0-2.912-3.64 0-.833.78-3.276-1.82 2.652-2.34 3.276-1.716 2.028-3.068 2.028-1.716 0-1.716-2.912 0-1.664 1.092-4.004 1.196-2.704 2.6-2.704.78 0 .78.416 0 .052-1.352 2.392-1.3 2.288-1.3 3.536 0 1.665.988 1.664 1.664 0 5.98-7.592.364-.728 1.092-2.028.364-.416.78-.416.468 0 .832.416.416.364.416.884 0-.052-1.872 3.484-1.82 3.535-1.82 5.46 0 1.82 1.716 1.82 1.456 0 3.328-1.664 1.248-1.092 2.808-3.12 1.3-1.665 1.404-1.664.156 0 .156.312m10.141.572q0 .104-.104.312-1.3 2.028-3.9 3.744-2.756 1.82-5.044 1.82-3.276 0-3.276-4.108 0-2.704 2.34-5.928 2.496-3.432 5.148-3.432.52 0 .884.468.416.468.416.988 0 1.613-2.444 3.9-2.184 2.028-4.004 2.704-.364 1.3-.364 2.184 0 2.132 1.924 2.132 1.82 0 4.108-1.508 1.976-1.3 3.38-2.964.364-.52.728-.52.208 0 .208.208m-5.096-5.512q0-.624-.624-.624-.78 0-2.288 2.392-1.3 2.028-1.612 3.172 1.352-.572 2.808-2.028 1.716-1.664 1.716-2.912"/></svg>