<svg xmlns="http://www.w3.org/2000/svg" width="172" height="34" fill="none" viewBox="0 0 172 34"><rect width="172" height="34" fill="#833c40" rx="10"/><path fill="#fff" d="M9.424 22.352q-1.54 0-2.794-.704a5.5 5.5 0 0 1-2.002-1.98q-.726-1.276-.726-2.904 0-1.738.726-3.124t1.98-2.178q1.254-.814 2.816-.814 1.54 0 2.794.748a5.5 5.5 0 0 1 2.002 1.98q.748 1.255.748 2.86 0 1.694-.748 3.102a5.75 5.75 0 0 1-1.98 2.2q-1.254.814-2.816.814m.176-.88q1.165 0 1.848-.66.682-.66.968-1.716a7.9 7.9 0 0 0 .308-2.222q0-.99-.198-1.936a6.2 6.2 0 0 0-.572-1.738q-.396-.792-1.034-1.254-.616-.462-1.496-.462-1.144 0-1.87.66T6.476 13.86q-.33 1.057-.33 2.266 0 1.365.374 2.596.374 1.21 1.144 1.98t1.936.77m9.437.528v-.66q.682 0 .946-.33.264-.352.308-.946.066-.615.066-1.408v-6.05q.022-.308.088-.682h-1.562q-.88 0-1.298.506-.396.506-.396 1.892h-.836L16.441 11h9.724l.11 3.322h-.836q-.022-1.386-.418-1.892-.375-.506-1.408-.506H22.25v7.744q0 .44-.022.792 0 .33-.066.704l1.386-.066V22zm8.473 0v-.66q.682 0 .946-.33.264-.352.308-.946.066-.615.066-1.408l.022-5.324v-.77q.021-.352.088-.726l-.704.044q-.33 0-.682.022V11h4.488v.66q-.66 0-.946.352-.264.33-.308.946-.045.594-.044 1.386l-.022 1.452h.858l2.684-2.816q.374-.375.682-.66.307-.308.616-.506l-1.496.066V11h4.004v.66a3.1 3.1 0 0 0-1.408.484 8 8 0 0 0-1.188.902q-.528.505-.924.924l-1.716 1.804q.44.197.748.506.307.308.616.682l1.562 2.002q.11.132.374.506.285.374.66.814.396.44.814.748.44.308.814.308V22H36.42q-.616 0-1.166-.638a37 37 0 0 1-1.166-1.43l-1.034-1.43q-.44-.66-.814-1.144a5 5 0 0 0-.638-.748l-.88.044-.022 3.014q0 .44-.022.792 0 .33-.066.704.352-.022.682-.022l.704-.044V22zm11.838 5.61v-.66q.682 0 .946-.352.264-.33.308-.946.044-.594.044-1.386l.044-10.626v-.704q.022-.353.088-.726l-.792.044q-.374.023-.77.044v-.924q.968 0 1.452-.088.506-.088.726-.22.243-.132.396-.286h.66q.023.22.044.528.023.285.044.66.66-.594 1.562-.946a4.9 4.9 0 0 1 1.848-.374q1.276 0 2.376.66t1.782 1.892q.682 1.21.682 2.904 0 1.87-.792 3.278-.77 1.408-2.046 2.2-1.276.77-2.772.77-.77 0-1.43-.198a4.7 4.7 0 0 1-1.21-.528v3.652q0 .44-.022.77 0 .352-.066.726l.682-.044q.353 0 .704-.022v.902zm5.786-6.138q1.056 0 1.804-.638.77-.66 1.166-1.782.418-1.144.418-2.596 0-1.188-.352-2.266-.33-1.1-1.078-1.782-.727-.682-1.936-.682-.748 0-1.452.374-.682.352-1.144.858v.264q.022.154.022.572v1.21q0 .792-.022 2.156v3.454q.55.418 1.188.638.66.22 1.386.22m7.54.528v-.66q.813-.022 1.055-.506.264-.506.264-1.364v-6.908q.022-.352.088-.726l-.704.044q-.33 0-.682.022V11h4.488v.66q-.66 0-.946.308a1.35 1.35 0 0 0-.308.77q-.044.44-.044.858v2.024l1.122-.044q1.783-.066 2.794.374 1.034.418 1.452 1.166.44.748.44 1.628 0 1.056-.506 1.782-.484.725-1.298 1.1a4.2 4.2 0 0 1-1.782.374zm3.167-.902q.374.022.726.022h.726q1.035 0 1.738-.528.726-.528.726-1.804 0-1.122-.66-1.738-.638-.638-1.804-.638-.462 0-.748.022-.285 0-.66.022v3.41q0 .418-.022.726 0 .308-.022.506M62.53 22v-.66q.682 0 .946-.33.264-.352.308-.946.066-.615.066-1.408l.022-5.324v-.77q.022-.352.088-.726l-.704.044q-.33 0-.682.022V11h4.488v.66q-.66 0-.946.352-.264.33-.308.946-.023.594-.044 1.386l-.044 5.324q0 .44-.022.792 0 .33-.066.704.352-.022.682-.022l.704-.044V22zm8.672 0v-.66q.682 0 .946-.33.264-.352.308-.946.066-.615.066-1.408v-6.05q.022-.308.088-.682h-1.562q-.88 0-1.298.506-.396.506-.396 1.892h-.836L68.605 11h9.724l.11 3.322h-.836q-.022-1.386-.418-1.892-.375-.506-1.408-.506h-1.364v7.744q0 .44-.022.792 0 .33-.066.704l1.386-.066V22zm8.693 0v-.66q.813-.022 1.056-.506.264-.506.264-1.364v-6.908q.022-.352.088-.726l-.704.044q-.33 0-.682.022V11h4.488v.66q-.66 0-.946.308a1.35 1.35 0 0 0-.308.77q-.044.44-.044.858v2.024l1.364-.044q1.782-.044 2.794.396 1.034.418 1.452 1.166.44.726.44 1.606 0 1.056-.506 1.782-.485.725-1.298 1.1A4.2 4.2 0 0 1 85.57 22zm3.168-.902q.242.022.594.022h1.122q1.011 0 1.716-.528.726-.528.726-1.804 0-1.122-.66-1.738-.639-.638-1.782-.638-.485 0-.902.022-.395 0-.77.022v3.41q0 .418-.022.726 0 .308-.022.506M96.604 22v-.66q.682 0 .945-.33.265-.352.308-.946.067-.615.067-1.408l.021-5.324v-.77q.023-.352.089-.726l-.705.044q-.33 0-.681.022V11h4.487v.66q-.66 0-.946.352-.264.33-.307.946-.044.594-.044 1.386l-.022 1.452h.857l2.684-2.816q.375-.375.682-.66.309-.308.616-.506l-1.496.066V11h4.004v.66a3.1 3.1 0 0 0-1.408.484 8 8 0 0 0-1.188.902q-.528.505-.924.924l-1.716 1.804q.44.197.748.506.309.308.616.682l1.562 2.002q.11.132.374.506.286.374.66.814.397.44.814.748.44.308.814.308V22h-2.002q-.615 0-1.166-.638a38 38 0 0 1-1.166-1.43l-1.034-1.43q-.44-.66-.814-1.144a5 5 0 0 0-.638-.748l-.88.044-.022 3.014q0 .44-.022.792 0 .33-.066.704.352-.022.682-.022l.704-.044V22zm18.724 0a7 7 0 0 1-.088-.66 10 10 0 0 0-.066-.594 6.3 6.3 0 0 1-1.628 1.188 4.1 4.1 0 0 1-1.826.418q-1.672 0-2.486-.748-.814-.77-.814-1.87 0-1.012.616-1.738.638-.748 1.628-1.21a8.8 8.8 0 0 1 2.178-.704 10.4 10.4 0 0 1 2.288-.22v-1.364q0-.77-.132-1.452-.132-.683-.572-1.122t-1.408-.462a3.3 3.3 0 0 0-1.32.242q-.66.264-.968.902a.8.8 0 0 1 .22.418q.066.22.066.418 0 .264-.22.616-.22.33-.77.308-.462 0-.704-.308a1.27 1.27 0 0 1-.242-.77q0-.748.55-1.342.572-.594 1.562-.946t2.244-.352q1.848 0 2.728.99.88.968.858 3.08v1.65q0 .814-.022 1.65v1.65q0 .353-.022.704-.022.352-.066.792l.77-.044.792-.044V22zm-.198-5.39a9 9 0 0 0-1.584.198 6.3 6.3 0 0 0-1.518.484q-.682.33-1.122.88-.418.528-.396 1.298.043.814.528 1.232a1.87 1.87 0 0 0 1.188.396q.902 0 1.562-.33a6 6 0 0 0 1.342-.968 6 6 0 0 1-.022-.528v-1.298q.022-.594.022-1.364m4.656 11v-.66q.681 0 .946-.352.263-.33.308-.946.044-.594.044-1.386l.044-10.626v-.704q.021-.353.088-.726l-.792.044q-.374.023-.77.044v-.924q.968 0 1.452-.088.505-.088.726-.22.242-.132.396-.286h.66q.021.22.044.528.021.285.044.66.66-.594 1.562-.946a4.9 4.9 0 0 1 1.848-.374q1.275 0 2.376.66t1.782 1.892q.681 1.21.682 2.904 0 1.87-.792 3.278-.771 1.408-2.046 2.2a5.27 5.27 0 0 1-2.772.77q-.77 0-1.43-.198a4.7 4.7 0 0 1-1.21-.528v3.652q0 .44-.022.77 0 .352-.066.726l.682-.044q.351 0 .704-.022v.902zm5.786-6.138q1.056 0 1.804-.638.77-.66 1.166-1.782.417-1.144.418-2.596 0-1.188-.352-2.266-.33-1.1-1.078-1.782-.726-.682-1.936-.682-.749 0-1.452.374-.682.352-1.144.858v.264q.022.154.022.572v1.21q0 .792-.022 2.156v3.454q.549.418 1.188.638.66.22 1.386.22m9.739.528v-.66q.681 0 .946-.33.263-.352.308-.946.066-.615.066-1.408v-6.05q.022-.308.088-.682h-1.562q-.88 0-1.298.506-.396.506-.396 1.892h-.836l.088-3.322h9.724l.11 3.322h-.836q-.022-1.386-.418-1.892-.375-.506-1.408-.506h-1.364v7.744q0 .44-.022.792 0 .33-.066.704l1.386-.066V22zm10.386 5.962q-.682 0-1.166-.33t-.484-1.012q0-.396.264-.726a.83.83 0 0 1 .682-.33q.528-.023.704.33.198.352.198.616v.132a.7.7 0 0 1-.022.176q.066.045.242.044.264 0 .572-.22t.55-.638q.287-.485.66-1.452.396-.968.88-2.31l-3.432-7.348a26 26 0 0 1-.836-1.958 17 17 0 0 1-.33-1.078l-1.056.044V11h4.554v.66h-.088q-.924.066-1.012.704-.088.615.506 1.892l2.574 5.522q.506-1.408.968-2.772.462-1.385.924-2.75.176-.485.352-.99.198-.528.374-.924.198-.418.352-.528l-1.518.088V11h3.454v.66q-.814.308-1.232 1.034-.396.704-.814 1.826l-2.75 7.678a53 53 0 0 1-1.21 3.124q-.55 1.298-1.21 1.958-.66.682-1.65.682"/></svg>