<svg xmlns="http://www.w3.org/2000/svg" width="299" height="99" fill="none" viewBox="0 0 299 99"><path fill="#833c40" d="M134.211 6.716q0 .736-.46.736-.23 0-.322-.414-.138-.782-.368-1.196-.783-1.38-2.944-2.208a10.5 10.5 0 0 0-3.726-.69q-2.944 0-6.762.828a74 74 0 0 0-5.98 10.12 53 53 0 0 0-1.978 4.6q4.6-.323 8.372.276 3.956.598 6.716 2.392.92-1.886.598-3.404-.69-2.668-4.646-3.772a17.6 17.6 0 0 0-3.082-.552 13 13 0 0 0-3.082 0l-.966.092q-.599 0-.644-.368-.138-.368.138-.598.276-.276.782-.46.92-.138 2.208 0 1.287.092 2.622.368 1.333.276 2.53.644 1.242.367 2.024.736 3.403 1.518 4.002 3.91.505 1.886-.966 4.462.782.69 1.196 1.15.459.46.552.828.045.598-.368.644a.4.4 0 0 1-.184-.046.5.5 0 0 0-.184-.092q-.507-.552-.874-.966a3.5 3.5 0 0 0-.736-.644q-2.024 2.715-6.164 4.462-1.794.782-3.726 1.196a33 33 0 0 1-4.094.69q-2.715.276-5.566-.598-3.68-1.057-4.232-3.45-.737-2.76 1.518-4.83.46-.414 1.15-.736.735-.368 1.518-.598a17 17 0 0 1 1.656-.46.4.4 0 0 0 .184-.046 89 89 0 0 1 1.794-4.324 90 90 0 0 1 5.152-9.936q-3.45.966-6.9 1.978-4.14 1.058-6.946 1.058-4.186 0-4.186-2.162 0-.645.46-1.38 1.288-1.978 4.738-3.082a19.2 19.2 0 0 1 5.75-.874q2.76 0 3.956.368.597.184.598.598 0 .368-.368.368h-.138q-3.772-.368-3.91-.368-2.392 0-4.83.644-3.083.782-4.232 2.208-.46.552-.46.92 0 1.15 2.806 1.15 2.713 0 7.36-1.196 3.725-1.013 7.406-2.024.276-.46.874-1.288.597-.69 2.208-.69.597 0 .598.23 0 .092-.782 1.15 2.805-.506 5.244-.506 2.529 0 5.106 1.334 2.99 1.564 2.99 3.818m-23.92 18.308q0 1.794.598 1.794.414 0 1.15-.552.735-.506.828-.506.414 0 .414.414 0 .506-.966 1.012-.921.552-1.518.552-2.254 0-2.254-2.852 0-1.932 1.012-5.106-1.978.69-3.036 1.932-1.335 1.472-.782 3.588.505 1.979 3.358 2.76 2.162.69 4.416.46 9.246-.874 12.834-6.394a23 23 0 0 0-3.174-1.472q-1.656-.645-3.588-1.012-3.68-.782-6.946-.414-.139 0-.46.046-.276.045-.598.092h-.23q-1.059 3.265-1.058 5.658m32.784 1.334q0 .276-.138.276-.047 0-.414-.23-.368-.23-1.334-.23-.46 0-.874.046-1.748 6.9-4.37 10.718-4.968 7.268-10.626 7.268-2.208 0-3.68-1.288-1.518-1.288-1.518-3.45 0-4.922 7.038-9.43 5.888-3.818 11.454-4.692.644-2.852 1.472-8.464-.552 1.335-1.978 3.542-1.426 2.162-2.438 3.22-1.196 1.242-2.254 1.242-1.472 0-1.472-2.576 0-1.472.92-3.542 1.058-2.392 2.346-2.392.644 0 .644.368 0 .046-1.15 2.116-1.15 2.025-1.15 3.128 0 1.472.828 1.472 1.427 0 6.21-9.246.092-.69 1.15-.69.828 0 .828.368 0 .598-.598 3.91a147 147 0 0 1-1.518 7.498h.184q2.438-.092 2.438 1.058m-4.508-.184q-3.036.506-7.222 2.622t-6.394 4.232q-3.496 3.312-3.496 6.578 0 1.794 1.15 2.852 1.104 1.104 2.944 1.104 2.806 0 5.566-2.392 2.208-1.886 3.91-4.83 2.438-4.14 3.542-10.166m16.717-10.994q0 .184-.414.322t-.552.414q-.23 1.012-.506 2.346-.552 2.346-1.61 7.038h.184q2.438-.092 2.438 1.058 0 .276-.184.276-.047 0-.414-.23-.322-.23-1.288-.23a9 9 0 0 0-.92.046q-1.702 6.9-4.37 10.718-4.968 7.268-10.58 7.268-2.208 0-3.68-1.288-1.518-1.288-1.518-3.45 0-4.922 6.992-9.43 5.934-3.818 11.5-4.692.322-1.748 1.058-5.29-3.082 5.474-5.474 5.474-1.426 0-1.426-1.564 0-2.346 2.3-5.75t4.462-4.14q.828-.322 1.518-.322.644 0 1.564.46.92.414.92.966m-2.162.138a1.7 1.7 0 0 0-.414-.046q-1.84 0-3.818 2.346-2.806 3.405-2.806 5.566 0 .966.644.966 1.012 0 2.622-2.116 2.254-2.852 3.772-6.716m-2.806 10.856q-3.036.506-7.222 2.622t-6.44 4.232q-3.45 3.312-3.45 6.578 0 1.794 1.15 2.852 1.104 1.104 2.898 1.104 2.852 0 5.612-2.392 2.208-1.886 3.91-4.83 2.438-4.14 3.542-10.166m17.421.184q0 .276-.138.276-.045 0-.414-.23-.368-.23-1.334-.23-.46 0-.874.046-1.748 6.9-4.37 10.718-4.968 7.268-10.626 7.268-2.208 0-3.68-1.288-1.518-1.288-1.518-3.45 0-4.922 7.038-9.43 5.889-3.818 11.454-4.692.644-2.852 1.472-8.464-.552 1.335-1.978 3.542-1.425 2.162-2.438 3.22-1.195 1.242-2.254 1.242-1.472 0-1.472-2.576 0-1.472.92-3.542 1.059-2.392 2.346-2.392.645 0 .644.368 0 .046-1.15 2.116-1.15 2.025-1.15 3.128 0 1.472.828 1.472 1.426 0 6.21-9.246.093-.69 1.15-.69.828 0 .828.368 0 .598-.598 3.91a147 147 0 0 1-1.518 7.498h.184q2.439-.092 2.438 1.058m-4.508-.184q-3.036.506-7.222 2.622-4.185 2.115-6.394 4.232-3.495 3.312-3.496 6.578 0 1.794 1.15 2.852 1.104 1.104 2.944 1.104 2.806 0 5.566-2.392 2.209-1.886 3.91-4.83 2.439-4.14 3.542-10.166m25.156-5.842q0 .092-.092.184-.643 1.104-1.978 1.886-1.288.782-2.53.782a3.3 3.3 0 0 1-1.702-.46q-2.115 3.358-4.37 3.358-1.61 0-1.61-1.886 0-2.622 2.3-6.164a5.7 5.7 0 0 1-.092-1.012q0-1.656 1.104-3.22t2.714-1.564q1.059 0 1.702 1.242.506 1.058.506 2.208 0 2.484-1.932 6.302.69.414 1.564.414 1.518 0 2.852-1.196 1.335-1.196 1.242-1.196.322 0 .322.322m-5.428-3.496q0-1.013-.322-2.07-.46-1.472-1.196-1.472-1.058 0-1.656 1.288a4.8 4.8 0 0 0-.414 2.208q.737-.874 1.472-.874.69 0 1.012.46v.23a.8.8 0 0 1 .046.23q0 .138-.46.138-.827 0-1.748 1.748a5.76 5.76 0 0 0 2.116 2.852q1.15-2.898 1.15-4.738m-1.518 5.382q-1.518-1.013-2.3-2.346-1.38 2.898-1.38 4.186 0 .92.69.92.645 0 1.702-1.104.92-.875 1.288-1.656m20.724-2.392q0 .368-.276.782-3.588 5.704-7.13 5.704-2.576 0-2.576-2.99 0-2.852 1.932-6.026a1.9 1.9 0 0 1-.598.092q-.736 0-1.426-.46-.828-.505-.828-1.15-.506 1.15-1.886 3.266-1.701 2.668-2.254 2.668-.184 0-.184-.184t.23-.506q1.794-2.438 3.634-6.302a4.8 4.8 0 0 1-.092-1.012q0-1.058.414-2.438.46-1.748 1.242-1.748.507 0 .874.828.322.644.322 1.242 0 1.15-1.886 3.358.414 1.425 1.61 1.426.828 0 1.61-.874.783-.92 1.104-.92.415 0 .736.368.322.322.322.782 0-.045-1.61 3.082-1.61 3.128-1.61 4.83 0 1.61 1.518 1.61 1.288 0 2.944-1.472 1.059-.966 2.484-2.76 1.15-1.472 1.196-1.472.184 0 .184.276m9.013.506a.7.7 0 0 1-.092.276q-1.15 1.794-3.45 3.312-2.439 1.61-4.462 1.61-2.898 0-2.898-3.634 0-2.392 2.07-5.244 2.208-3.036 4.554-3.036.46 0 .782.414.368.414.368.874 0 1.425-2.162 3.45-1.932 1.794-3.542 2.392-.322 1.15-.322 1.932 0 1.886 1.702 1.886 1.61 0 3.634-1.334a13.8 13.8 0 0 0 2.99-2.622q.321-.46.644-.46.184 0 .184.184m-4.508-4.876q0-.552-.552-.552-.69 0-2.024 2.116-1.15 1.794-1.426 2.806 1.196-.505 2.484-1.794 1.518-1.472 1.518-2.576m10.263 1.84q.138-.138.276-.46t.276-.69q.184-.367.322-.69.184-.368.322-.506.322-.322.736-.322 1.058 0 1.058 1.058 0 .23-.184.552-2.576 4.232-2.576 6.716 0 1.748 1.656 1.748 1.288 0 2.76-1.334 1.013-.874 2.162-2.484.966-1.334 1.104-1.334t.138.276q0 .322-.276.782-3.128 5.198-6.486 5.198-2.622 0-2.622-3.312 0-1.84.552-3.45-1.104.276-2.254.644t-2.392.874q-.092.367-.23.736a4.6 4.6 0 0 0-.23.69q-.368 2.162-.828 2.944t-1.058.782q-.414 0-.414-.828 0-.184.092-.368.507-1.196 1.012-2.806a56 56 0 0 0 1.012-3.864q.093-.368.184-.874.093-.552.276-1.288.138-.323.644-.644.507-.322.92-.322.322 0 .322.276 0 .23-.368 1.426-.368 1.15-1.058 3.358.645-.23 1.564-.506a48 48 0 0 1 2.162-.69q.323-.046.92-.276.23-.506.506-1.012m9.666.552a38 38 0 0 0-1.426 3.22q-.644 1.656-.644 2.53 0 1.61 1.518 1.61.966 0 2.162-.782a10.7 10.7 0 0 0 2.162-1.886q-1.196.091-2.024-.414-.782-.506-.828-1.978a2.55 2.55 0 0 1 .322-1.564q.414-.781 1.058-1.288.69-.552 1.472-.782.828-.23 1.472 0 .69.185 1.104.92t.322 2.116q-.045.645-.276 1.288 1.059-.506 2.024-1.196.966-.736 1.656-1.518l.598.138q-.183.46-.69 1.012-.46.506-1.15 1.012-.643.506-1.426.966t-1.61.782a7.8 7.8 0 0 1-1.334 1.518 11 11 0 0 1-3.634 1.978 8.7 8.7 0 0 1-1.886.414q-2.667.276-2.668-2.668 0-1.242.46-2.76t1.15-3.036a33 33 0 0 1 1.564-2.944 23 23 0 0 1 1.564-2.392q.185-.23.506-.184.323.046.644.276.323.184.506.506.23.276.23.506a.8.8 0 0 1-.184.506q-.138.23-.552.828l-.828 1.242q-.414.644-.828 1.242-.368.599-.506.782m4.876 3.128q.507-1.012.414-1.61-.046-.598-.46-.874-.414-.323-1.012-.276a2.4 2.4 0 0 0-1.104.368q-.506.276-.782.828-.276.506 0 1.242.23.735.92.92.736.184 1.702-.046.093-.138.138-.276zm27.189-1.15q0 .322-.276.782-1.196 1.978-3.956 3.956-2.943 2.208-4.968 2.208-.414 0-1.242-.046h-1.196q-.183 0-1.38-.322-1.425 3.68-3.864 7.728-3.45 5.612-5.612 5.612-1.15 0-1.15-1.702 0-2.254 4.14-8.372 2.945-4.049 5.934-8.142v-.276q0-1.656-.046-2.898-1.748 2.852-2.208 2.852-.276 0-.276-.322 0-.184.138-.368 2.025-2.852 2.024-5.106 0-.46-.276-.736-.23-.322-.23-.506t1.426-.184q1.564 0 1.564 3.128 0 .46-.092 1.38a28 28 0 0 0-.046 1.288 31 31 0 0 1 2.852-4.324q2.392-2.944 4.002-2.944 1.473 0 1.472 2.162 0 2.715-1.932 6.302-1.886 3.588-4.14 5.014 4.002-.091 8.878-6.21.184-.23.276-.23.184 0 .184.276m-5.29-4.186q0-1.425-.782-1.426-.23 0-.46.092-1.656.736-3.496 4.278a30 30 0 0 0-2.208 5.382q.46.69 1.61 1.748 2.025-.875 3.726-4.37 1.61-3.312 1.61-5.704m-8.694 8.372q-.045-.046-.092-.046-.183 0-.506.46-1.104 1.656-3.312 4.876-.966 1.38-2.438 4.186-1.702 3.266-1.702 4.232 0 .414.276.414 2.025 0 5.566-6.624.92-1.748 1.978-6.026a2.4 2.4 0 0 1-.046-.46q0-.552.276-1.012m27.101-3.864q0 .23-.276.644-2.024 3.266-3.818 4.186a3.7 3.7 0 0 1-1.656.414q-2.806 0-2.806-3.956 0-.645.092-1.38-3.082 5.474-5.474 5.474-1.426 0-1.426-1.564 0-2.392 2.3-5.75 2.3-3.405 4.462-4.14a4 4 0 0 1 1.518-.322q1.656 0 2.392 1.15.138.23.138.322 0 .046-.322.138t-.46.322q-1.104 1.794-1.104 5.382 0 3.312 1.426 3.312 1.012 0 2.852-2.208 1.886-2.254 2.024-2.254t.138.23m-6.762-4.83a1.7 1.7 0 0 0-.414-.046q-1.84 0-3.818 2.346-2.806 3.405-2.806 5.566 0 .966.644.966 1.012 0 2.622-2.116 2.254-2.852 3.772-6.716m15.644-.138q0 .184-.414.322t-.552.414q-.23 1.012-.506 2.346-.552 2.346-1.61 7.038h.184q2.438-.092 2.438 1.058 0 .276-.184.276-.046 0-.414-.23-.322-.23-1.288-.23a9 9 0 0 0-.92.046q-1.702 6.9-4.37 10.718-4.968 7.268-10.58 7.268-2.208 0-3.68-1.288-1.518-1.288-1.518-3.45 0-4.922 6.992-9.43 5.934-3.818 11.5-4.692.322-1.748 1.058-5.29-3.082 5.474-5.474 5.474-1.426 0-1.426-1.564 0-2.346 2.3-5.75t4.462-4.14q.828-.322 1.518-.322.644 0 1.564.46.92.414.92.966m-2.162.138a1.7 1.7 0 0 0-.414-.046q-1.84 0-3.818 2.346-2.806 3.405-2.806 5.566 0 .966.644.966 1.012 0 2.622-2.116 2.254-2.852 3.772-6.716m-2.806 10.856q-3.036.506-7.222 2.622t-6.44 4.232q-3.45 3.312-3.45 6.578 0 1.794 1.15 2.852 1.104 1.104 2.898 1.104 2.852 0 5.612-2.392 2.208-1.886 3.91-4.83 2.438-4.14 3.542-10.166m21.377-6.026q0 .23-.276.644-2.024 3.266-3.818 4.186a3.7 3.7 0 0 1-1.656.414q-2.806 0-2.806-3.956 0-.645.092-1.38-3.082 5.474-5.474 5.474-1.426 0-1.426-1.564 0-2.392 2.3-5.75 2.3-3.405 4.462-4.14a4 4 0 0 1 1.518-.322q1.656 0 2.392 1.15.138.23.138.322 0 .046-.322.138t-.46.322q-1.104 1.794-1.104 5.382 0 3.312 1.426 3.312 1.012 0 2.852-2.208 1.886-2.254 2.024-2.254t.138.23m-6.762-4.83a1.7 1.7 0 0 0-.414-.046q-1.84 0-3.818 2.346-2.806 3.405-2.806 5.566 0 .966.644.966 1.012 0 2.622-2.116 2.254-2.852 3.772-6.716M22.954 80.358q0 .276-.138.276-.046 0-.414-.23t-1.334-.23q-.46 0-.874.046-1.748 6.9-4.37 10.718-4.968 7.268-10.626 7.268-2.208 0-3.68-1.288Q0 95.63 0 93.468q0-4.922 7.038-9.43 5.888-3.818 11.454-4.692.645-2.852 1.472-8.464-.552 1.334-1.978 3.542-1.425 2.162-2.438 3.22-1.196 1.242-2.254 1.242-1.472 0-1.472-2.576 0-1.472.92-3.542 1.058-2.392 2.346-2.392.644 0 .644.368 0 .046-1.15 2.116-1.15 2.024-1.15 3.128 0 1.472.828 1.472 1.425 0 6.21-9.246.092-.69 1.15-.69.828 0 .828.368 0 .598-.598 3.91a147 147 0 0 1-1.518 7.498h.184q2.438-.092 2.438 1.058m-4.508-.184q-3.036.506-7.222 2.622-4.185 2.115-6.394 4.232-3.495 3.312-3.496 6.578 0 1.794 1.15 2.852 1.104 1.104 2.944 1.104 2.805 0 5.566-2.392 2.208-1.885 3.91-4.83 2.438-4.14 3.542-10.166m11.887-13.57q-.782 1.242-1.61 3.036a25 25 0 0 0-1.242 3.358 22.7 22.7 0 0 1 2.806-3.956q2.208-2.53 3.91-2.53 1.38 0 1.38 1.978 0 2.852-1.794 6.486a14.7 14.7 0 0 1-3.128 4.324q-2.3 2.162-4.692 2.162-1.84 0-1.84-.69 0-.276.276-.276.138 0 .644.138.552.184.92.184 2.07 0 4.094-2.346 1.518-1.794 2.484-4.186.874-2.07.874-4.554 0-1.518-.69-1.518-1.518 0-4.048 4.186-2.392 3.91-2.392 5.842 0 .506.322.782.368.276.368.46t-.23.184q-1.702 0-1.702-2.484 0-1.748.828-4.508.875-2.805 2.622-6.394 1.472-2.898 5.106-8.694 5.612-8.97 9.154-8.97 2.07 0 2.07 1.886 0 3.312-5.796 9.246-3.726 3.773-8.694 6.854m13.616-15.272q0-.966-.782-1.012-1.196 0-3.726 2.024-4.462 3.542-7.682 10.856a34 34 0 0 0-.736 1.932q3.312-1.932 7.636-6.21 5.198-5.015 5.29-7.59m7.184 22.494q0 .322-.276.782a17 17 0 0 1-2.99 3.68q-2.208 2.024-4.14 2.024-2.576 0-2.576-3.22 0-.736.69-2.898-1.611 2.346-2.07 2.898-1.518 1.794-2.714 1.794-1.518 0-1.518-2.576 0-1.472.966-3.542 1.058-2.392 2.3-2.392.69 0 .69.368-.001.046-1.196 2.116-1.15 2.024-1.15 3.128-.001 1.472.874 1.472 1.47 0 5.29-6.716.321-.644.966-1.794.321-.368.69-.368.413 0 .736.368.368.322.368.782 0-.045-1.656 3.082-1.61 3.127-1.61 4.83 0 1.61 1.518 1.61 1.288 0 2.944-1.472 1.104-.966 2.484-2.76 1.149-1.472 1.242-1.472.138 0 .138.276m8.602-4.646q0 .184-.414.322t-.552.414a125 125 0 0 0-.506 2.346 846 846 0 0 0-1.61 7.038h.184q2.438-.092 2.438 1.058 0 .276-.184.276-.045 0-.414-.23-.322-.23-1.288-.23a9 9 0 0 0-.92.046q-1.701 6.9-4.37 10.718-4.968 7.268-10.58 7.268-2.208 0-3.68-1.288-1.518-1.288-1.518-3.45 0-4.922 6.992-9.43 5.935-3.818 11.5-4.692.323-1.748 1.058-5.29-3.081 5.475-5.474 5.474-1.425 0-1.426-1.564 0-2.346 2.3-5.75t4.462-4.14q.828-.322 1.518-.322.645 0 1.564.46.92.414.92.966m-2.162.138a1.7 1.7 0 0 0-.414-.046q-1.84 0-3.818 2.346-2.805 3.405-2.806 5.566 0 .966.644.966 1.013 0 2.622-2.116 2.254-2.852 3.772-6.716m-2.806 10.856q-3.036.506-7.222 2.622-4.185 2.115-6.44 4.232-3.45 3.312-3.45 6.578 0 1.794 1.15 2.852 1.104 1.104 2.898 1.104 2.852 0 5.612-2.392 2.209-1.885 3.91-4.83 2.438-4.14 3.542-10.166m17.375-5.842q0 .091-.092.276-1.149 1.794-3.45 3.312-2.437 1.61-4.462 1.61-2.898 0-2.898-3.634 0-2.392 2.07-5.244 2.208-3.036 4.554-3.036.46 0 .782.414.368.414.368.874 0 1.425-2.162 3.45-1.931 1.794-3.542 2.392-.322 1.15-.322 1.932 0 1.886 1.702 1.886 1.61 0 3.634-1.334a13.8 13.8 0 0 0 2.99-2.622q.323-.46.644-.46.184 0 .184.184m-4.508-4.876q0-.552-.552-.552-.69 0-2.024 2.116-1.15 1.794-1.426 2.806 1.197-.506 2.484-1.794 1.518-1.472 1.518-2.576m22.27 4.784q0 .184-.092.276a21.7 21.7 0 0 1-2.576 2.99q-1.978 1.84-3.312 1.84-2.162 0-2.162-4.784 0-.736.046-1.656-1.656 1.472-3.726 5.29-.69 1.288-1.518 1.288-.276 0-.414-.184-.138-.506-.138-1.288 0-1.335.598-4.876.322-1.794.322-2.3 0-.368-.138-.368-.781.69-2.53 2.99-1.885 2.484-4.048 5.842-.276.414-.46.414-.368 0-.368-.828 0-.23.046-.368 1.059-2.484 2.162-6.992.092-.645.368-1.84.091-.323.598-.644.552-.322.92-.322.322 0 .322.276 0 .46-2.162 6.992 1.656-2.208 3.404-4.554l1.656-2.208q.69-.828 1.426-.828t.736.828q0 .598-.322 2.392-.322 1.748-.736 5.152 1.288-1.84 4.002-5.382.735-.874 1.472-.874.69 0 .69.874 0 .736-.23 2.208-.23 1.425-.23 2.162 0 2.392 1.242 2.392 1.749 0 4.462-3.864.276-.46.46-.46.23 0 .23.414m-4.646-8.556q-5.796-1.38-8.51.138-.505.276-.828.874-.138.322-.138.874t-.138.828l-.184.138q-.459.322-.414-.644.092-1.012.46-1.702.46-1.058 1.564-1.61 2.024-1.196 5.336-.92.828 0 5.566.782 2.898.505 3.818 0 .552-.322.782-.828.276-.599.092-1.104-.137-.506.046-.874l.092-.046q.368-.23.322.92 0 1.15-.276 1.702-.69 1.335-1.472 1.84-1.15.645-3.634.23-.276-.138-1.104-.23-.368 0-1.38-.368m6.709 6.164a38 38 0 0 0-1.426 3.22q-.644 1.656-.644 2.53 0 1.61 1.518 1.61.966 0 2.162-.782a10.7 10.7 0 0 0 2.162-1.886q-1.197.092-2.024-.414-.783-.506-.828-1.978a2.54 2.54 0 0 1 .322-1.564q.414-.781 1.058-1.288.69-.552 1.472-.782.828-.23 1.472 0 .69.185 1.104.92t.322 2.116q-.046.645-.276 1.288 1.058-.506 2.024-1.196.966-.736 1.656-1.518l.598.138q-.184.46-.69 1.012-.46.506-1.15 1.012-.645.506-1.426.966-.782.46-1.61.782a7.8 7.8 0 0 1-1.334 1.518 11 11 0 0 1-3.634 1.978 8.7 8.7 0 0 1-1.886.414q-2.669.276-2.668-2.668 0-1.242.46-2.76t1.15-3.036a33 33 0 0 1 1.564-2.944q.828-1.426 1.564-2.392.183-.23.506-.184.321.046.644.276.321.184.506.506.23.276.23.506a.8.8 0 0 1-.184.506q-.138.23-.552.828l-.828 1.242q-.414.644-.828 1.242-.369.599-.506.782m4.876 3.128q.506-1.012.414-1.61-.046-.598-.46-.874-.415-.323-1.012-.276-.6.045-1.104.368-.506.276-.782.828-.276.506 0 1.242.23.735.92.92.736.184 1.702-.046.09-.138.138-.276.09-.138.184-.276m30.776-20.792q0 3.312-5.796 9.246-3.726 3.772-8.832 7.636a33 33 0 0 0-1.518 3.726l4.554-4.554q3.405-3.22 5.014-3.22 1.197 0 1.196 1.748 0 1.794-2.484 3.496-2.3 1.61-4.14 1.518.966 4.416 3.68 4.416 2.668 0 5.842-4.186.276-.414.552-.414.23 0 .23.23 0 .184-.184.46-1.104 1.61-3.128 3.404-2.438 2.208-3.818 2.208-1.701 0-3.404-2.346-1.563-2.116-1.794-3.956-1.103 1.288-2.162 2.53-1.058 1.38-1.38 3.174-.506.23-1.058.23-1.011 0-1.012-.46 0-1.058 1.932-5.474a94 94 0 0 1 6.486-12.328q5.613-8.97 9.154-8.97 2.07 0 2.07 1.886m-1.058.644q0-.966-.782-.966-1.196 0-3.68 2.116-4.37 3.634-7.406 11.04-.69 1.702-.69 1.978 3.267-2.024 7.498-6.44 5.06-5.152 5.06-7.728m-6.302 14.628q0-.92-.598-.92-.92 0-5.014 4.278.185.368.828.368 1.38 0 3.082-1.196 1.702-1.242 1.702-2.53m18.596 4.692q0 .23-.276.644-2.024 3.266-3.818 4.186a3.7 3.7 0 0 1-1.656.414q-2.806 0-2.806-3.956 0-.645.092-1.38-3.081 5.475-5.474 5.474-1.425 0-1.426-1.564 0-2.392 2.3-5.75 2.3-3.405 4.462-4.14a4 4 0 0 1 1.518-.322q1.656 0 2.392 1.15.138.23.138.322 0 .046-.322.138-.321.092-.46.322-1.104 1.794-1.104 5.382 0 3.312 1.426 3.312 1.013 0 2.852-2.208 1.887-2.254 2.024-2.254.138 0 .138.23m-6.762-4.83a1.7 1.7 0 0 0-.414-.046q-1.84 0-3.818 2.346-2.805 3.405-2.806 5.566 0 .966.644.966 1.013 0 2.622-2.116 2.254-2.852 3.772-6.716m5.8 4.462q-.506.552-.782.552-.184 0-.184-.138t.276-.506q.506-.966 1.058-1.886a10 10 0 0 1 1.288-1.61 6.6 6.6 0 0 1 1.564-1.104 4 4 0 0 1 1.886-.46q3.404 0 3.404 3.634a4.8 4.8 0 0 1-.368 1.794l.184-.184q2.852-1.978 3.68-4.094a1.4 1.4 0 0 0 0-.874 4 4 0 0 0-.092-.322q-.045-.138.046-.184.093-.092.368 0 .276.046.874.322 1.243.506.322 3.358-.046.23-.184.552t-.276.69-.276.69a4 4 0 0 0-.184.506q-.276.736-.46 1.104a10 10 0 0 0-.322.92q1.749-1.38 2.438-1.748.506-1.702 2.3-3.68 2.577-2.715 4.738-2.714 1.472 0 1.472 1.15 0 .46-.69 1.61-.644 1.104-1.058 1.104-.184 0-.184-.23 0-.184.138-.598.184-.413.184-.644 0-.966-1.196-.966-1.656 0-2.99 2.162-1.242 2.024-1.242 3.726 0 2.852 2.484 2.852 3.129 0 6.532-4.278.46-.552.782-.552.184 0 .184.138 0 .184-.276.506-1.564 2.3-4.462 4.278-1.701 1.058-3.496 1.058-3.404 0-3.404-3.634v-.368q-2.437 1.794-3.174 3.726-.091.23.138.414.23.184.322.414.047.184.092.322.046.138-.092.184-.092.092-.368 0-.276-.046-.828-.322-1.242-.46-.322-3.358.093-.414.322-.966a6 6 0 0 0 .368-.966q.276-.735.414-1.334.184-.598.322-1.196-2.576 2.07-3.036 1.932-.183 0-.23-.184-.597 1.38-1.978 2.852-2.575 2.714-4.738 2.714-1.472 0-1.472-1.15 0-.414.69-1.61.599-1.104 1.058-1.104.184 0 .184.23 0 .184-.184.598-.138.413-.138.644 0 .966 1.196.966 1.656 0 2.99-2.162 1.242-1.978 1.242-3.726 0-2.852-2.484-2.852-.781 0-1.38.276-.552.276-1.058.828a9 9 0 0 0-.92 1.242q-.413.69-.92 1.564zm34.731-4.6q0 .184-.414.322t-.552.414q-.23 1.012-.506 2.346-.552 2.346-1.61 7.038h.184q2.438-.092 2.438 1.058 0 .276-.184.276-.047 0-.414-.23-.322-.23-1.288-.23a9 9 0 0 0-.92.046q-1.702 6.9-4.37 10.718-4.968 7.268-10.58 7.268-2.208 0-3.68-1.288-1.518-1.288-1.518-3.45 0-4.922 6.992-9.43 5.934-3.818 11.5-4.692.322-1.748 1.058-5.29-3.082 5.475-5.474 5.474-1.426 0-1.426-1.564 0-2.346 2.3-5.75t4.462-4.14q.828-.322 1.518-.322.644 0 1.564.46.92.414.92.966m-2.162.138a1.7 1.7 0 0 0-.414-.046q-1.84 0-3.818 2.346-2.806 3.405-2.806 5.566 0 .966.644.966 1.013 0 2.622-2.116 2.254-2.852 3.772-6.716m-2.806 10.856q-3.036.506-7.222 2.622t-6.44 4.232q-3.45 3.312-3.45 6.578 0 1.794 1.15 2.852 1.104 1.104 2.898 1.104 2.852 0 5.612-2.392 2.208-1.885 3.91-4.83 2.438-4.14 3.542-10.166m18.663-5.842q0 .092-.092.184-.644 1.104-1.978 1.886-1.288.782-2.53.782a3.3 3.3 0 0 1-1.702-.46q-2.116 3.358-4.37 3.358-1.61 0-1.61-1.886 0-2.622 2.3-6.164a5.7 5.7 0 0 1-.092-1.012q0-1.656 1.104-3.22t2.714-1.564q1.058 0 1.702 1.242.506 1.058.506 2.208 0 2.484-1.932 6.302.69.414 1.564.414 1.518 0 2.852-1.196t1.242-1.196q.322 0 .322.322m-5.428-3.496q0-1.013-.322-2.07-.46-1.472-1.196-1.472-1.058 0-1.656 1.288a4.8 4.8 0 0 0-.414 2.208q.736-.874 1.472-.874.69 0 1.012.46v.23a.8.8 0 0 1 .046.23q0 .138-.46.138-.828 0-1.748 1.748a5.76 5.76 0 0 0 2.116 2.852q1.15-2.898 1.15-4.738m-1.518 5.382q-1.518-1.013-2.3-2.346-1.38 2.898-1.38 4.186 0 .92.69.92.644 0 1.702-1.104.92-.874 1.288-1.656m13.134-3.45q-.69.552-1.15 1.242t-.736 1.38q-.23.69-.322 1.288a7 7 0 0 0-.092 1.012q0 1.564 1.518 1.472.644-.045 1.058-.23.414-.184 1.196-.966l3.68-4.922q.506.23.368.414a6 6 0 0 1-.506.552q-1.749 2.852-3.22 4.462-1.473 1.565-3.22 1.656a5.6 5.6 0 0 1-2.116-.506q-.966-.46-1.196-1.61-.184-.69.138-1.38.321-.735.92-1.472a23 23 0 0 1 1.518-1.656 39 39 0 0 0 1.794-1.932q.735-.598.69-1.196 0-.644-.506-.966t-1.334-.184q-.783.139-1.564 1.012a74 74 0 0 0-.736.828q-.276.367-.506.736a17 17 0 0 0-.46.782l-.552.874q-1.656 2.53-2.162 2.53-.185 0-.23-.184a.6.6 0 0 0 .092-.138q.045-.138.138-.368.552-.69 1.104-1.564a31 31 0 0 1 1.196-1.84q.643-.966 1.426-1.84a9.5 9.5 0 0 1 1.886-1.61q1.701-.599 2.76-.552 1.104.045 1.38.644.321.598-.23 1.702-.552 1.058-2.024 2.53m16.138 1.564q0 .092-.092.184-.643 1.104-1.978 1.886-1.288.782-2.53.782a3.3 3.3 0 0 1-1.702-.46q-2.115 3.358-4.37 3.358-1.61 0-1.61-1.886 0-2.622 2.3-6.164a5.7 5.7 0 0 1-.092-1.012q0-1.656 1.104-3.22t2.714-1.564q1.059 0 1.702 1.242.507 1.058.506 2.208 0 2.484-1.932 6.302.69.414 1.564.414 1.518 0 2.852-1.196 1.335-1.196 1.242-1.196.322 0 .322.322m-5.428-3.496q0-1.013-.322-2.07-.46-1.472-1.196-1.472-1.058 0-1.656 1.288a4.8 4.8 0 0 0-.414 2.208q.737-.874 1.472-.874.69 0 1.012.46v.23a.8.8 0 0 1 .046.23q0 .138-.46.138-.827 0-1.748 1.748a5.76 5.76 0 0 0 2.116 2.852q1.15-2.898 1.15-4.738m-1.518 5.382q-1.517-1.013-2.3-2.346-1.38 2.898-1.38 4.186 0 .92.69.92.645 0 1.702-1.104.92-.874 1.288-1.656m27.369-2.392q0 .322-.276.782a17 17 0 0 1-2.99 3.68q-2.208 2.024-4.14 2.024-2.576 0-2.576-3.22 0-.736.69-2.898-1.61 2.346-2.07 2.898-1.518 1.794-2.714 1.794-1.518 0-1.518-2.576 0-1.472.966-3.542 1.058-2.392 2.3-2.392.69 0 .69.368 0 .046-1.196 2.116-1.15 2.024-1.15 3.128 0 1.472.874 1.472 1.472 0 5.29-6.716.323-.644.966-1.794.322-.368.69-.368.414 0 .736.368.368.322.368.782 0-.045-1.656 3.082-1.61 3.127-1.61 4.83 0 1.61 1.518 1.61 1.288 0 2.944-1.472 1.104-.966 2.484-2.76 1.15-1.472 1.242-1.472.138 0 .138.276m11.823 6.532q0 .276-.138.276-.092 0-.414-.23t-1.288-.23a9 9 0 0 0-.92.046q-.092 4.462-4.37 10.718-4.968 7.268-10.626 7.268-2.208 0-3.68-1.288t-1.472-3.45q0-4.922 6.992-9.43 5.934-3.818 11.454-4.692-.046-2.898-2.254-2.898-.46 0-1.426.46-.92.414-1.242.414-.598 0-.598-.552 0-.276.414-.69 4.968-4.554 4.968-6.118 0-1.012-1.15-1.012-2.806 0-5.888 4.922-.322.46-.46.46-.184 0-.184-.23t.184-.552q1.012-2.116 2.668-3.588 1.932-1.702 3.956-1.702 2.484 0 2.484 2.07 0 2.254-3.68 5.198h.138q1.518-.046 2.576 1.104a4.18 4.18 0 0 1 1.242 2.668h.184q2.161-.046 2.484.644.046.184.046.414m-4.462-.184q-3.082.506-7.268 2.622t-6.394 4.232q-3.496 3.312-3.496 6.578 0 1.794 1.15 2.852 1.104 1.104 2.944 1.104 5.244 0 9.522-7.222 3.45-5.842 3.542-10.166m18.648-13.57q-.782 1.242-1.61 3.036a25 25 0 0 0-1.242 3.358 22.7 22.7 0 0 1 2.806-3.956q2.209-2.53 3.91-2.53 1.38 0 1.38 1.978 0 2.852-1.794 6.486a14.7 14.7 0 0 1-3.128 4.324q-2.3 2.162-4.692 2.162-1.84 0-1.84-.69 0-.276.276-.276.138 0 .644.138.552.184.92.184 2.07 0 4.094-2.346 1.518-1.794 2.484-4.186.874-2.07.874-4.554 0-1.518-.69-1.518-1.518 0-4.048 4.186-2.392 3.91-2.392 5.842 0 .506.322.782.368.276.368.46t-.23.184q-1.702 0-1.702-2.484 0-1.748.828-4.508.875-2.805 2.622-6.394 1.473-2.898 5.106-8.694 5.613-8.97 9.154-8.97 2.07 0 2.07 1.886 0 3.312-5.796 9.246-3.726 3.773-8.694 6.854m13.616-15.272q0-.966-.782-1.012-1.196 0-3.726 2.024-4.461 3.542-7.682 10.856a35 35 0 0 0-.736 1.932q3.313-1.932 7.636-6.21 5.199-5.015 5.29-7.59m6.77 22.816q0 .23-.276.644-2.025 3.266-3.818 4.186a3.7 3.7 0 0 1-1.656.414q-2.806 0-2.806-3.956 0-.645.092-1.38-3.083 5.475-5.474 5.474-1.426 0-1.426-1.564 0-2.392 2.3-5.75 2.3-3.405 4.462-4.14a4 4 0 0 1 1.518-.322q1.656 0 2.392 1.15.138.23.138.322 0 .046-.322.138t-.46.322q-1.104 1.794-1.104 5.382 0 3.312 1.426 3.312 1.011 0 2.852-2.208 1.886-2.254 2.024-2.254t.138.23m-6.762-4.83a1.7 1.7 0 0 0-.414-.046q-1.84 0-3.818 2.346-2.806 3.405-2.806 5.566 0 .966.644.966 1.011 0 2.622-2.116 2.254-2.852 3.772-6.716m17.208 4.554q0 .184-.276.506-1.61 2.346-4.462 4.278-1.656 1.058-3.496 1.058-3.404 0-3.404-3.634 0-2.254 2.484-4.968 2.53-2.715 4.738-2.714 1.472 0 1.472 1.15 0 .46-.69 1.61-.644 1.104-1.058 1.104-.184 0-.184-.23 0-.184.138-.598.184-.413.184-.644 0-.966-1.196-.966-1.656 0-2.99 2.162-1.242 1.978-1.242 3.726 0 2.852 2.484 2.852 3.127 0 6.532-4.278.46-.552.782-.552.183 0 .184.138m12.821-15.916-.276.414-1.242 1.932q-4.968 7.82-7.176 12.098-.276.598-.874 1.84-.276.598-.69.598-.322 0-.322-.322 0-.782 4.002-8.556 3.726-7.222 4.876-9.062.047-.092.138-.092.276 0 .92.46t.644.69m-10.994 20.976q0 1.104-1.15 1.104-1.196 0-1.196-1.104t1.196-1.104q1.15 0 1.15 1.104"/></svg>