<svg xmlns="http://www.w3.org/2000/svg" width="314" height="31" fill="none" viewBox="0 0 314 31"><path fill="#833c40" d="M0 22.4v-1.056q1.215-.064 1.664-.544.448-.512.48-1.376.064-.896.064-2.016V3.584q0-.64.032-1.216.032-.608.064-1.088l-1.152.064L0 1.408V0h20.832v1.056q-1.184.032-1.664.544-.449.512-.512 1.376a55 55 0 0 0-.032 2.016v13.6q0 .864-.032 1.504 0 .608-.064 1.024l1.152-.064 1.152-.064V22.4H13.6v-1.056q1.215-.064 1.664-.544.48-.512.512-1.376.064-.896.064-2.016V1.248l-8.64.128q-.96.032-1.44.384a1.58 1.58 0 0 0-.608.896A8 8 0 0 0 4.992 4v14.592q0 .864-.032 1.504 0 .608-.064 1.024l2.304-.128V22.4zm23.704 8.16v-.96q.992 0 1.376-.512.384-.48.448-1.376.063-.864.064-2.016l.064-15.456V9.216q.032-.511.128-1.056l-2.272.128V6.944q1.407 0 2.112-.128.735-.128 1.056-.32.351-.192.576-.416h.96q.031.32.064.768.031.415.064.96a7.4 7.4 0 0 1 2.272-1.376 7.1 7.1 0 0 1 2.688-.544 6.6 6.6 0 0 1 3.456.96q1.599.96 2.592 2.752.992 1.76.992 4.224 0 2.72-1.152 4.768-1.12 2.048-2.976 3.2a7.66 7.66 0 0 1-4.032 1.12q-1.12 0-2.08-.288a6.8 6.8 0 0 1-1.76-.768v5.312q0 .64-.032 1.12 0 .512-.096 1.056l.992-.064q.511 0 1.024-.032v1.312zm8.416-8.928q1.536 0 2.624-.928 1.12-.96 1.696-2.592.608-1.665.608-3.776 0-1.727-.512-3.296-.48-1.6-1.568-2.592-1.056-.992-2.816-.992-1.089 0-2.112.544a5.9 5.9 0 0 0-1.664 1.248v.384q.032.225.032.832v1.76q0 1.152-.032 3.136v5.024q.8.608 1.728.928.96.32 2.016.32m20.694.768a10 10 0 0 1-.129-.96 13 13 0 0 0-.096-.864 9.1 9.1 0 0 1-2.367 1.728 6 6 0 0 1-2.657.608q-2.43 0-3.615-1.088-1.184-1.12-1.184-2.72 0-1.472.895-2.528.929-1.088 2.368-1.76 1.473-.704 3.168-1.024a15 15 0 0 1 3.328-.32v-1.984q0-1.12-.191-2.112-.193-.991-.833-1.632t-2.047-.672q-.93-.032-1.92.352-.96.384-1.408 1.312.255.255.32.608.096.32.096.608 0 .384-.32.896-.32.48-1.12.448-.672 0-1.024-.448a1.84 1.84 0 0 1-.353-1.12q0-1.088.8-1.952.833-.864 2.273-1.376t3.264-.512q2.687 0 3.968 1.44 1.28 1.408 1.248 4.48v2.4q0 1.185-.032 2.4v2.4q0 .512-.032 1.024-.033.512-.096 1.152l1.12-.064 1.151-.064V22.4zm-.288-7.84q-1.089.032-2.305.288-1.184.225-2.207.704a4.64 4.64 0 0 0-1.633 1.28q-.608.768-.575 1.888.063 1.185.768 1.792.735.576 1.727.576 1.313 0 2.273-.48.991-.511 1.952-1.408a9 9 0 0 1-.033-.768v-1.888q.032-.864.032-1.984m12.947 8.352q-2.08 0-3.52-.544-1.407-.544-2.144-1.344-.703-.832-.703-1.696 0-.8.383-1.344.386-.544 1.089-.544.831-.031 1.151.512.352.511.352.928 0 .32-.128.672a1.46 1.46 0 0 1-.384.608q.45.96 1.536 1.312 1.121.32 2.176.32 1.41 0 2.496-.8 1.088-.832 1.088-2.656 0-1.889-1.183-2.688-1.185-.832-2.785-.832h-1.44v-1.184h1.312q1.216 0 1.92-.448a2.54 2.54 0 0 0 1.057-1.216q.351-.8.352-1.792 0-1.44-.736-2.272t-2.112-.832q-1.312 0-2.209.704a4.7 4.7 0 0 0-1.407 1.728 5.8 5.8 0 0 0-.544 2.144h-1.025v-5.6h1.345l-.064 1.216q.99-.8 2.112-1.088a9 9 0 0 1 2.175-.288q2.306 0 3.84 1.12 1.569 1.088 1.569 2.976 0 1.376-.897 2.464-.863 1.056-2.527 1.504 1.92.16 3.104 1.28 1.216 1.087 1.216 2.88 0 1.44-.832 2.528-.8 1.056-2.272 1.664-1.44.608-3.36.608m8.096 5.184v-6.912h1.312q.768 0 1.28-.352.512-.383.992-1.664.352-.96.608-2.112.288-1.152.48-2.56.192-1.44.32-3.136.128-1.695.192-3.712l-2.816.128V6.4h14.144v.96q-.992 0-1.376.512-.384.48-.448 1.376a28 28 0 0 0-.064 2.016v7.744q-.032.64-.064 1.152-.032.48-.128 1.024l2.912-.128v7.04h-1.216q0-2.625-.544-4.16-.511-1.536-2.112-1.536h-9.568q-1.568 0-2.144 1.504-.544 1.536-.544 4.192zm4.192-6.912h5.728q.992 0 1.376-.48.415-.512.48-1.376.096-.896.096-2.048V8.672q.031-.511.096-1.056h-3.328q-.992 0-1.376.576-.352.576-.48 1.568a53 53 0 0 1-.448 4.032 56 56 0 0 1-.544 3.296q-.256 1.409-.544 2.208-.225.608-.48 1.088-.256.448-.576.8M99.771 7.36q-.992 0-1.376.512-.384.48-.448 1.376a44 44 0 0 0-.096 2.016l-.032 7.744q0 .64-.032 1.152 0 .48-.096 1.024l2.016-.096V22.4H93.18v-.96q.993 0 1.376-.48.385-.512.448-1.376.096-.896.096-2.048V8.672q.032-.511.128-1.056l-2.016.096V6.4h6.56zm10.496 0q-.96 0-1.376.512-.384.48-.448 1.376-.031.864-.064 2.016l-.032 7.744q0 .64-.032 1.152 0 .48-.096 1.024l2.016-.096V22.4h-6.528v-.96q.993 0 1.376-.48.385-.512.448-1.376.064-.896.064-2.048l.032-7.744v-1.12q.032-.511.128-1.056l-2.016.096V6.4h6.528zm-13.568 6.208h10.048v1.248l-10.048.128zm22.979-6.208q-.993 0-1.376.512-.385.48-.448 1.376a43 43 0 0 0-.096 2.016l-.032 7.744q0 .64-.032 1.152 0 .48-.096 1.024.512-.032.992-.032l1.024-.064V22.4h-6.528v-.96q.992 0 1.376-.48.384-.512.448-1.376.096-.896.096-2.048V8.672q.032-.511.128-1.056l-1.024.064q-.48 0-.992.032V6.4h6.56zm6.272.576 1.024.768-9.824 12.32-1.088-.896zm4.384-.576q-.96 0-1.376.512-.385.48-.448 1.376a28 28 0 0 0-.064 2.016l-.064 7.744q0 .64-.032 1.152 0 .48-.064 1.024.512-.032.992-.032l1.024-.064V22.4h-6.56v-.96q.992 0 1.376-.48.384-.512.448-1.376.096-.896.096-2.048l.032-7.744v-1.12q.032-.511.128-1.056l-1.024.064q-.48 0-.992.032V6.4h6.528zm2.494 15.04v-.96q.992 0 1.376-.48.384-.512.448-1.376.096-.896.096-2.048l.032-7.744v-1.12q.032-.511.128-1.056l-1.024.064q-.48 0-.992.032V6.4h6.528v.96q-.96 0-1.376.512-.384.48-.448 1.376a28 28 0 0 0-.064 2.016l-.032 2.112h1.248l3.904-4.096q.544-.544.992-.96.448-.448.896-.736l-2.176.096V6.4h5.824v.96a4.5 4.5 0 0 0-2.048.704q-.928.576-1.728 1.312-.768.736-1.344 1.344l-2.496 2.624q.64.288 1.088.736.448.449.896.992l2.272 2.912q.16.192.544.736.416.544.96 1.184.576.64 1.184 1.088.64.448 1.184.448v.96h-2.912q-.896 0-1.696-.928a54 54 0 0 1-1.696-2.08l-1.504-2.08a30 30 0 0 0-1.184-1.664q-.512-.705-.928-1.088l-1.28.064-.032 4.384q0 .64-.032 1.152 0 .48-.096 1.024.512-.032.992-.032l1.024-.064V22.4zm33.722.512q-2.144 0-3.968-.96-1.793-.992-2.88-2.816-1.056-1.856-1.056-4.448 0-1.665.608-3.232a9.4 9.4 0 0 1 1.696-2.816 8.2 8.2 0 0 1 2.656-2.016q1.536-.735 3.392-.736 1.791 0 3.104.544 1.344.544 2.08 1.44.735.896.736 1.952 0 .705-.384 1.216-.385.48-1.12.48-.801.032-1.152-.48-.32-.544-.32-.96 0-.32.096-.64.096-.352.384-.64-.257-.768-.896-1.12a3.5 3.5 0 0 0-1.344-.48 6 6 0 0 0-1.12-.128q-2.177 0-3.68 1.76-1.472 1.728-1.472 5.056 0 2.145.672 3.808.704 1.665 1.952 2.624 1.248.928 2.88.928 1.503 0 2.88-.8 1.376-.8 2.144-1.952l.832.64q-.833 1.344-2.016 2.176a8.2 8.2 0 0 1-2.4 1.216q-1.217.384-2.304.384m17.003 0q-2.24 0-4.064-1.024a8 8 0 0 1-2.912-2.88q-1.056-1.855-1.056-4.224 0-2.528 1.056-4.544t2.88-3.168q1.824-1.184 4.096-1.184 2.24 0 4.064 1.088a8 8 0 0 1 2.912 2.88q1.088 1.824 1.088 4.16 0 2.465-1.088 4.512-1.056 2.016-2.88 3.2-1.825 1.185-4.096 1.184m.256-1.28q1.695 0 2.688-.96.991-.96 1.408-2.496a11.5 11.5 0 0 0 .448-3.232q0-1.44-.288-2.816-.256-1.408-.832-2.528-.577-1.152-1.504-1.824-.897-.672-2.176-.672-1.665 0-2.72.96t-1.568 2.496a11 11 0 0 0-.48 3.296q0 1.984.544 3.776.543 1.76 1.664 2.88t2.816 1.12m18.335 1.28q-2.145 0-3.968-.96-1.792-.992-2.88-2.816-1.056-1.856-1.056-4.448 0-1.665.608-3.232a9.4 9.4 0 0 1 1.696-2.816 8.2 8.2 0 0 1 2.656-2.016q1.536-.735 3.392-.736 1.791 0 3.104.544 1.344.544 2.08 1.44t.736 1.952q0 .705-.384 1.216-.385.48-1.12.48-.801.032-1.152-.48-.32-.544-.32-.96 0-.32.096-.64.096-.352.384-.64-.257-.768-.896-1.12a3.5 3.5 0 0 0-1.344-.48 6 6 0 0 0-1.12-.128q-2.177 0-3.68 1.76-1.473 1.728-1.472 5.056 0 2.145.672 3.808.704 1.665 1.952 2.624 1.248.928 2.88.928 1.503 0 2.88-.8 1.376-.8 2.144-1.952l.832.64q-.833 1.344-2.016 2.176a8.2 8.2 0 0 1-2.4 1.216q-1.216.384-2.304.384m12.423-.512v-.96q.992 0 1.376-.48.384-.512.448-1.376.096-.896.096-2.048v-8.8a10 10 0 0 1 .128-.992h-2.272q-1.28 0-1.888.736-.576.736-.576 2.752h-1.216l.128-4.832h14.144l.16 4.832h-1.216q-.032-2.016-.608-2.752-.545-.735-2.048-.736h-1.984v11.264q0 .64-.032 1.152 0 .48-.096 1.024l2.016-.096V22.4zm20.58.512q-2.24 0-4.064-1.024a8 8 0 0 1-2.912-2.88q-1.056-1.855-1.056-4.224 0-2.528 1.056-4.544t2.88-3.168q1.824-1.184 4.096-1.184 2.24 0 4.064 1.088a8 8 0 0 1 2.912 2.88q1.088 1.824 1.088 4.16 0 2.465-1.088 4.512-1.056 2.016-2.88 3.2-1.825 1.185-4.096 1.184m.256-1.28q1.695 0 2.688-.96.991-.96 1.408-2.496a11.5 11.5 0 0 0 .448-3.232q0-1.44-.288-2.816-.256-1.408-.832-2.528-.576-1.152-1.504-1.824-.897-.672-2.176-.672-1.665 0-2.72.96t-1.568 2.496a11 11 0 0 0-.48 3.296q0 1.984.544 3.776.543 1.76 1.664 2.88t2.816 1.12M252.521 7.36q-.992 0-1.376.512-.384.48-.448 1.376a46 46 0 0 0-.096 2.016l-.032 7.744q0 .64-.032 1.152 0 .48-.096 1.024.512-.032.992-.032l1.024-.064V22.4h-6.528v-.96q.993 0 1.376-.48.385-.512.448-1.376.096-.896.096-2.048V8.672q.032-.511.128-1.056l-1.024.064q-.48 0-.992.032V6.4h6.56zm6.272.576 1.024.768-9.824 12.32-1.088-.896zm4.384-.576q-.96 0-1.376.512-.384.48-.448 1.376a28 28 0 0 0-.064 2.016l-.064 7.744q0 .64-.032 1.152 0 .48-.064 1.024.513-.032.992-.032l1.024-.064V22.4h-6.56v-.96q.993 0 1.376-.48.385-.512.448-1.376.096-.896.096-2.048l.032-7.744v-1.12q.032-.511.128-1.056l-1.024.064q-.48 0-.992.032V6.4h6.528zm6.015 15.04v-.96q.992 0 1.376-.48.384-.512.448-1.376.096-.896.096-2.048v-8.8a10 10 0 0 1 .128-.992h-2.272q-1.28 0-1.888.736-.576.736-.576 2.752h-1.216l.128-4.832h14.144l.16 4.832h-1.216q-.032-2.016-.608-2.752-.545-.735-2.048-.736h-1.984v11.264q0 .64-.032 1.152 0 .48-.096 1.024l2.016-.096V22.4zm20.452.512q-2.144 0-3.968-.96-1.792-.992-2.88-2.816-1.056-1.856-1.056-4.448 0-1.665.608-3.232a9.4 9.4 0 0 1 1.696-2.816 8.2 8.2 0 0 1 2.656-2.016q1.536-.735 3.392-.736 1.791 0 3.104.544 1.344.544 2.08 1.44t.736 1.952q0 .705-.384 1.216-.385.48-1.12.48-.801.032-1.152-.48-.32-.544-.32-.96 0-.32.096-.64.096-.352.384-.64-.257-.768-.896-1.12a3.5 3.5 0 0 0-1.344-.48 6 6 0 0 0-1.12-.128q-2.177 0-3.68 1.76-1.472 1.728-1.472 5.056 0 2.145.672 3.808.704 1.665 1.952 2.624 1.248.928 2.88.928 1.503 0 2.88-.8 1.376-.8 2.144-1.952l.832.64q-.832 1.344-2.016 2.176a8.2 8.2 0 0 1-2.4 1.216q-1.216.384-2.304.384m8.359-.512v-.96q.735 0 1.248-.384.543-.416 1.12-1.184.607-.768 1.504-1.888l1.152-1.44q.351-.448.704-.64.351-.225.768-.352-2.433-.415-3.424-1.632a4.37 4.37 0 0 1-.96-2.784q0-1.536.736-2.592a4.67 4.67 0 0 1 1.92-1.6 6.3 6.3 0 0 1 2.592-.544h8.096v.96q-.768 0-1.184.352-.417.32-.576.928-.16.576-.16 1.44v8.928q0 .64-.032 1.152 0 .48-.096 1.024l2.016-.096V22.4h-6.528v-.96q1.248 0 1.568-.832.32-.864.32-2.016V16l-2.208.032a7.6 7.6 0 0 0-.896 1.024q-.48.64-.928 1.28a47 47 0 0 1-.704 1.056q-.801 1.12-1.728 2.08-.928.928-1.792.928zm8.512-7.552h1.216l1.056-.064V8.448q.031-.448.064-.736a8 8 0 0 0-1.312-.032h-1.024q-1.473 0-2.528.768-1.024.768-1.024 2.624 0 1.568.928 2.688.96 1.088 2.624 1.088"/></svg>